%FSLAX45Y45*%
G04 Gerber Fmt 4.5, Leading zero omitted, Abs format (unit mm)*
G04 Created by KiCad (PCBNEW (5.1.0)-1) date 2022-03-22 21:10:53*
%MOMM*%
%LPD*%
G04 APERTURE LIST*
%ADD10C,0.050000*%
%ADD11C,0.200000*%
%ADD12C,0.300000*%
G04 APERTURE END LIST*
D10*
X8400000Y-12745000D02*
X8400000Y-8340000D01*
X17900000Y-12925000D02*
X17900000Y-10050000D01*
X17900000Y-12925000D02*
X17590000Y-12925000D01*
X8400000Y-12925000D02*
X17590000Y-12925000D01*
X8400000Y-12745000D02*
X8400000Y-12925000D01*
X17900000Y-8450000D02*
X17900000Y-10050000D01*
X17900000Y-4600000D02*
X17900000Y-8450000D01*
X8400000Y-4600000D02*
X8400000Y-8340000D01*
X8400000Y-4600000D02*
X17900000Y-4600000D01*
D11*
X17385000Y-12410000D02*
X17705000Y-12730000D01*
X17705000Y-12410000D02*
X17385000Y-12730000D01*
X17385000Y-4795000D02*
X17705000Y-5115000D01*
X17705000Y-4795000D02*
X17385000Y-5115000D01*
X8600000Y-12410000D02*
X8920000Y-12730000D01*
X8920000Y-12410000D02*
X8600000Y-12730000D01*
D12*
X8683928Y-13393214D02*
X8683928Y-13093214D01*
X8755357Y-13093214D01*
X8798214Y-13107500D01*
X8826786Y-13136071D01*
X8841071Y-13164643D01*
X8855357Y-13221786D01*
X8855357Y-13264643D01*
X8841071Y-13321786D01*
X8826786Y-13350357D01*
X8798214Y-13378929D01*
X8755357Y-13393214D01*
X8683928Y-13393214D01*
X8983928Y-13393214D02*
X8983928Y-13193214D01*
X8983928Y-13250357D02*
X8998214Y-13221786D01*
X9012500Y-13207500D01*
X9041071Y-13193214D01*
X9069643Y-13193214D01*
X9169643Y-13393214D02*
X9169643Y-13193214D01*
X9169643Y-13093214D02*
X9155357Y-13107500D01*
X9169643Y-13121786D01*
X9183928Y-13107500D01*
X9169643Y-13093214D01*
X9169643Y-13121786D01*
X9355357Y-13393214D02*
X9326786Y-13378929D01*
X9312500Y-13350357D01*
X9312500Y-13093214D01*
X9512500Y-13393214D02*
X9483928Y-13378929D01*
X9469643Y-13350357D01*
X9469643Y-13093214D01*
X9855357Y-13393214D02*
X9855357Y-13093214D01*
X9955357Y-13307500D01*
X10055357Y-13093214D01*
X10055357Y-13393214D01*
X10326786Y-13393214D02*
X10326786Y-13236071D01*
X10312500Y-13207500D01*
X10283928Y-13193214D01*
X10226786Y-13193214D01*
X10198214Y-13207500D01*
X10326786Y-13378929D02*
X10298214Y-13393214D01*
X10226786Y-13393214D01*
X10198214Y-13378929D01*
X10183928Y-13350357D01*
X10183928Y-13321786D01*
X10198214Y-13293214D01*
X10226786Y-13278929D01*
X10298214Y-13278929D01*
X10326786Y-13264643D01*
X10469643Y-13193214D02*
X10469643Y-13493214D01*
X10469643Y-13207500D02*
X10498214Y-13193214D01*
X10555357Y-13193214D01*
X10583928Y-13207500D01*
X10598214Y-13221786D01*
X10612500Y-13250357D01*
X10612500Y-13336071D01*
X10598214Y-13364643D01*
X10583928Y-13378929D01*
X10555357Y-13393214D01*
X10498214Y-13393214D01*
X10469643Y-13378929D01*
X10741071Y-13364643D02*
X10755357Y-13378929D01*
X10741071Y-13393214D01*
X10726786Y-13378929D01*
X10741071Y-13364643D01*
X10741071Y-13393214D01*
X10741071Y-13207500D02*
X10755357Y-13221786D01*
X10741071Y-13236071D01*
X10726786Y-13221786D01*
X10741071Y-13207500D01*
X10741071Y-13236071D01*
X8077500Y-13727500D02*
X8397500Y-14047500D01*
X8397500Y-13727500D02*
X8077500Y-14047500D01*
X8655357Y-13723214D02*
X8841071Y-13723214D01*
X8741071Y-13837500D01*
X8783928Y-13837500D01*
X8812500Y-13851786D01*
X8826786Y-13866071D01*
X8841071Y-13894643D01*
X8841071Y-13966071D01*
X8826786Y-13994643D01*
X8812500Y-14008929D01*
X8783928Y-14023214D01*
X8698214Y-14023214D01*
X8669643Y-14008929D01*
X8655357Y-13994643D01*
X8969643Y-13994643D02*
X8983928Y-14008929D01*
X8969643Y-14023214D01*
X8955357Y-14008929D01*
X8969643Y-13994643D01*
X8969643Y-14023214D01*
X9098214Y-13751786D02*
X9112500Y-13737500D01*
X9141071Y-13723214D01*
X9212500Y-13723214D01*
X9241071Y-13737500D01*
X9255357Y-13751786D01*
X9269643Y-13780357D01*
X9269643Y-13808929D01*
X9255357Y-13851786D01*
X9083928Y-14023214D01*
X9269643Y-14023214D01*
X9455357Y-13723214D02*
X9483928Y-13723214D01*
X9512500Y-13737500D01*
X9526786Y-13751786D01*
X9541071Y-13780357D01*
X9555357Y-13837500D01*
X9555357Y-13908929D01*
X9541071Y-13966071D01*
X9526786Y-13994643D01*
X9512500Y-14008929D01*
X9483928Y-14023214D01*
X9455357Y-14023214D01*
X9426786Y-14008929D01*
X9412500Y-13994643D01*
X9398214Y-13966071D01*
X9383928Y-13908929D01*
X9383928Y-13837500D01*
X9398214Y-13780357D01*
X9412500Y-13751786D01*
X9426786Y-13737500D01*
X9455357Y-13723214D01*
X9683928Y-14023214D02*
X9683928Y-13823214D01*
X9683928Y-13851786D02*
X9698214Y-13837500D01*
X9726786Y-13823214D01*
X9769643Y-13823214D01*
X9798214Y-13837500D01*
X9812500Y-13866071D01*
X9812500Y-14023214D01*
X9812500Y-13866071D02*
X9826786Y-13837500D01*
X9855357Y-13823214D01*
X9898214Y-13823214D01*
X9926786Y-13837500D01*
X9941071Y-13866071D01*
X9941071Y-14023214D01*
X10083928Y-14023214D02*
X10083928Y-13823214D01*
X10083928Y-13851786D02*
X10098214Y-13837500D01*
X10126786Y-13823214D01*
X10169643Y-13823214D01*
X10198214Y-13837500D01*
X10212500Y-13866071D01*
X10212500Y-14023214D01*
X10212500Y-13866071D02*
X10226786Y-13837500D01*
X10255357Y-13823214D01*
X10298214Y-13823214D01*
X10326786Y-13837500D01*
X10341071Y-13866071D01*
X10341071Y-14023214D01*
X10926786Y-13708929D02*
X10669643Y-14094643D01*
X11312500Y-13723214D02*
X11341071Y-13723214D01*
X11369643Y-13737500D01*
X11383928Y-13751786D01*
X11398214Y-13780357D01*
X11412500Y-13837500D01*
X11412500Y-13908929D01*
X11398214Y-13966071D01*
X11383928Y-13994643D01*
X11369643Y-14008929D01*
X11341071Y-14023214D01*
X11312500Y-14023214D01*
X11283928Y-14008929D01*
X11269643Y-13994643D01*
X11255357Y-13966071D01*
X11241071Y-13908929D01*
X11241071Y-13837500D01*
X11255357Y-13780357D01*
X11269643Y-13751786D01*
X11283928Y-13737500D01*
X11312500Y-13723214D01*
X11541071Y-13994643D02*
X11555357Y-14008929D01*
X11541071Y-14023214D01*
X11526786Y-14008929D01*
X11541071Y-13994643D01*
X11541071Y-14023214D01*
X11841071Y-14023214D02*
X11669643Y-14023214D01*
X11755357Y-14023214D02*
X11755357Y-13723214D01*
X11726786Y-13766071D01*
X11698214Y-13794643D01*
X11669643Y-13808929D01*
X11955357Y-13751786D02*
X11969643Y-13737500D01*
X11998214Y-13723214D01*
X12069643Y-13723214D01*
X12098214Y-13737500D01*
X12112500Y-13751786D01*
X12126786Y-13780357D01*
X12126786Y-13808929D01*
X12112500Y-13851786D01*
X11941071Y-14023214D01*
X12126786Y-14023214D01*
X12383928Y-13723214D02*
X12326786Y-13723214D01*
X12298214Y-13737500D01*
X12283928Y-13751786D01*
X12255357Y-13794643D01*
X12241071Y-13851786D01*
X12241071Y-13966071D01*
X12255357Y-13994643D01*
X12269643Y-14008929D01*
X12298214Y-14023214D01*
X12355357Y-14023214D01*
X12383928Y-14008929D01*
X12398214Y-13994643D01*
X12412500Y-13966071D01*
X12412500Y-13894643D01*
X12398214Y-13866071D01*
X12383928Y-13851786D01*
X12355357Y-13837500D01*
X12298214Y-13837500D01*
X12269643Y-13851786D01*
X12255357Y-13866071D01*
X12241071Y-13894643D01*
X12526786Y-13723214D02*
X12526786Y-13780357D01*
X12641071Y-13723214D02*
X12641071Y-13780357D01*
X13083928Y-14137500D02*
X13069643Y-14123214D01*
X13041071Y-14080357D01*
X13026786Y-14051786D01*
X13012500Y-14008929D01*
X12998214Y-13937500D01*
X12998214Y-13880357D01*
X13012500Y-13808929D01*
X13026786Y-13766071D01*
X13041071Y-13737500D01*
X13069643Y-13694643D01*
X13083928Y-13680357D01*
X13169643Y-13723214D02*
X13355357Y-13723214D01*
X13255357Y-13837500D01*
X13298214Y-13837500D01*
X13326786Y-13851786D01*
X13341071Y-13866071D01*
X13355357Y-13894643D01*
X13355357Y-13966071D01*
X13341071Y-13994643D01*
X13326786Y-14008929D01*
X13298214Y-14023214D01*
X13212500Y-14023214D01*
X13183928Y-14008929D01*
X13169643Y-13994643D01*
X13712500Y-14023214D02*
X13712500Y-13723214D01*
X13841071Y-14023214D02*
X13841071Y-13866071D01*
X13826786Y-13837500D01*
X13798214Y-13823214D01*
X13755357Y-13823214D01*
X13726786Y-13837500D01*
X13712500Y-13851786D01*
X14026786Y-14023214D02*
X13998214Y-14008929D01*
X13983928Y-13994643D01*
X13969643Y-13966071D01*
X13969643Y-13880357D01*
X13983928Y-13851786D01*
X13998214Y-13837500D01*
X14026786Y-13823214D01*
X14069643Y-13823214D01*
X14098214Y-13837500D01*
X14112500Y-13851786D01*
X14126786Y-13880357D01*
X14126786Y-13966071D01*
X14112500Y-13994643D01*
X14098214Y-14008929D01*
X14069643Y-14023214D01*
X14026786Y-14023214D01*
X14298214Y-14023214D02*
X14269643Y-14008929D01*
X14255357Y-13980357D01*
X14255357Y-13723214D01*
X14526786Y-14008929D02*
X14498214Y-14023214D01*
X14441071Y-14023214D01*
X14412500Y-14008929D01*
X14398214Y-13980357D01*
X14398214Y-13866071D01*
X14412500Y-13837500D01*
X14441071Y-13823214D01*
X14498214Y-13823214D01*
X14526786Y-13837500D01*
X14541071Y-13866071D01*
X14541071Y-13894643D01*
X14398214Y-13923214D01*
X14655357Y-14008929D02*
X14683928Y-14023214D01*
X14741071Y-14023214D01*
X14769643Y-14008929D01*
X14783928Y-13980357D01*
X14783928Y-13966071D01*
X14769643Y-13937500D01*
X14741071Y-13923214D01*
X14698214Y-13923214D01*
X14669643Y-13908929D01*
X14655357Y-13880357D01*
X14655357Y-13866071D01*
X14669643Y-13837500D01*
X14698214Y-13823214D01*
X14741071Y-13823214D01*
X14769643Y-13837500D01*
X14883928Y-14137500D02*
X14898214Y-14123214D01*
X14926786Y-14080357D01*
X14941071Y-14051786D01*
X14955357Y-14008929D01*
X14969643Y-13937500D01*
X14969643Y-13880357D01*
X14955357Y-13808929D01*
X14941071Y-13766071D01*
X14926786Y-13737500D01*
X14898214Y-13694643D01*
X14883928Y-13680357D01*
X15426786Y-14137500D02*
X15412500Y-14123214D01*
X15383928Y-14080357D01*
X15369643Y-14051786D01*
X15355357Y-14008929D01*
X15341071Y-13937500D01*
X15341071Y-13880357D01*
X15355357Y-13808929D01*
X15369643Y-13766071D01*
X15383928Y-13737500D01*
X15412500Y-13694643D01*
X15426786Y-13680357D01*
X15541071Y-13823214D02*
X15541071Y-14023214D01*
X15541071Y-13851786D02*
X15555357Y-13837500D01*
X15583928Y-13823214D01*
X15626786Y-13823214D01*
X15655357Y-13837500D01*
X15669643Y-13866071D01*
X15669643Y-14023214D01*
X15855357Y-14023214D02*
X15826786Y-14008929D01*
X15812500Y-13994643D01*
X15798214Y-13966071D01*
X15798214Y-13880357D01*
X15812500Y-13851786D01*
X15826786Y-13837500D01*
X15855357Y-13823214D01*
X15898214Y-13823214D01*
X15926786Y-13837500D01*
X15941071Y-13851786D01*
X15955357Y-13880357D01*
X15955357Y-13966071D01*
X15941071Y-13994643D01*
X15926786Y-14008929D01*
X15898214Y-14023214D01*
X15855357Y-14023214D01*
X16041071Y-13823214D02*
X16155357Y-13823214D01*
X16083928Y-13723214D02*
X16083928Y-13980357D01*
X16098214Y-14008929D01*
X16126786Y-14023214D01*
X16155357Y-14023214D01*
X16483928Y-13823214D02*
X16483928Y-14123214D01*
X16483928Y-13837500D02*
X16512500Y-13823214D01*
X16569643Y-13823214D01*
X16598214Y-13837500D01*
X16612500Y-13851786D01*
X16626786Y-13880357D01*
X16626786Y-13966071D01*
X16612500Y-13994643D01*
X16598214Y-14008929D01*
X16569643Y-14023214D01*
X16512500Y-14023214D01*
X16483928Y-14008929D01*
X16798214Y-14023214D02*
X16769643Y-14008929D01*
X16755357Y-13980357D01*
X16755357Y-13723214D01*
X17041071Y-14023214D02*
X17041071Y-13866071D01*
X17026786Y-13837500D01*
X16998214Y-13823214D01*
X16941071Y-13823214D01*
X16912500Y-13837500D01*
X17041071Y-14008929D02*
X17012500Y-14023214D01*
X16941071Y-14023214D01*
X16912500Y-14008929D01*
X16898214Y-13980357D01*
X16898214Y-13951786D01*
X16912500Y-13923214D01*
X16941071Y-13908929D01*
X17012500Y-13908929D01*
X17041071Y-13894643D01*
X17141071Y-13823214D02*
X17255357Y-13823214D01*
X17183928Y-13723214D02*
X17183928Y-13980357D01*
X17198214Y-14008929D01*
X17226786Y-14023214D01*
X17255357Y-14023214D01*
X17469643Y-14008929D02*
X17441071Y-14023214D01*
X17383928Y-14023214D01*
X17355357Y-14008929D01*
X17341071Y-13980357D01*
X17341071Y-13866071D01*
X17355357Y-13837500D01*
X17383928Y-13823214D01*
X17441071Y-13823214D01*
X17469643Y-13837500D01*
X17483928Y-13866071D01*
X17483928Y-13894643D01*
X17341071Y-13923214D01*
X17741071Y-14023214D02*
X17741071Y-13723214D01*
X17741071Y-14008929D02*
X17712500Y-14023214D01*
X17655357Y-14023214D01*
X17626786Y-14008929D01*
X17612500Y-13994643D01*
X17598214Y-13966071D01*
X17598214Y-13880357D01*
X17612500Y-13851786D01*
X17626786Y-13837500D01*
X17655357Y-13823214D01*
X17712500Y-13823214D01*
X17741071Y-13837500D01*
X17855357Y-14137500D02*
X17869643Y-14123214D01*
X17898214Y-14080357D01*
X17912500Y-14051786D01*
X17926786Y-14008929D01*
X17941071Y-13937500D01*
X17941071Y-13880357D01*
X17926786Y-13808929D01*
X17912500Y-13766071D01*
X17898214Y-13737500D01*
X17869643Y-13694643D01*
X17855357Y-13680357D01*
M02*
