%FSLAX45Y45*%
G04 Gerber Fmt 4.5, Leading zero omitted, Abs format (unit mm)*
G04 Created by KiCad (PCBNEW (5.1.0)-1) date 2022-03-22 21:10:53*
%MOMM*%
%LPD*%
G04 APERTURE LIST*
%ADD10C,0.050000*%
%ADD11C,0.200000*%
%ADD12C,0.300000*%
G04 APERTURE END LIST*
D10*
X8400000Y-12745000D02*
X8400000Y-8340000D01*
X17900000Y-12925000D02*
X17900000Y-10050000D01*
X17900000Y-12925000D02*
X17590000Y-12925000D01*
X8400000Y-12925000D02*
X17590000Y-12925000D01*
X8400000Y-12745000D02*
X8400000Y-12925000D01*
X17900000Y-8450000D02*
X17900000Y-10050000D01*
X17900000Y-4600000D02*
X17900000Y-8450000D01*
X8400000Y-4600000D02*
X8400000Y-8340000D01*
X8400000Y-4600000D02*
X17900000Y-4600000D01*
D11*
X8740000Y-8750000D02*
X8780000Y-8790000D01*
X8780000Y-8750000D02*
X8740000Y-8790000D01*
X8900000Y-8750000D02*
X8940000Y-8790000D01*
X8940000Y-8750000D02*
X8900000Y-8790000D01*
X8930000Y-6490000D02*
X8970000Y-6530000D01*
X8970000Y-6490000D02*
X8930000Y-6530000D01*
X8930000Y-9570000D02*
X8970000Y-9610000D01*
X8970000Y-9570000D02*
X8930000Y-9610000D01*
X8950000Y-8090000D02*
X8990000Y-8130000D01*
X8990000Y-8090000D02*
X8950000Y-8130000D01*
X8957500Y-10117500D02*
X8997500Y-10157500D01*
X8997500Y-10117500D02*
X8957500Y-10157500D01*
X8957500Y-10347500D02*
X8997500Y-10387500D01*
X8997500Y-10347500D02*
X8957500Y-10387500D01*
X9060000Y-8750000D02*
X9100000Y-8790000D01*
X9100000Y-8750000D02*
X9060000Y-8790000D01*
X9140000Y-4850000D02*
X9180000Y-4890000D01*
X9180000Y-4850000D02*
X9140000Y-4890000D01*
X9140000Y-6490000D02*
X9180000Y-6530000D01*
X9180000Y-6490000D02*
X9140000Y-6530000D01*
X9220000Y-8750000D02*
X9260000Y-8790000D01*
X9260000Y-8750000D02*
X9220000Y-8790000D01*
X9350000Y-10120000D02*
X9390000Y-10160000D01*
X9390000Y-10120000D02*
X9350000Y-10160000D01*
X9470000Y-8750000D02*
X9510000Y-8790000D01*
X9510000Y-8750000D02*
X9470000Y-8790000D01*
X9630000Y-8750000D02*
X9670000Y-8790000D01*
X9670000Y-8750000D02*
X9630000Y-8790000D01*
X9710000Y-11215000D02*
X9750000Y-11255000D01*
X9750000Y-11215000D02*
X9710000Y-11255000D01*
X9780000Y-9070000D02*
X9820000Y-9110000D01*
X9820000Y-9070000D02*
X9780000Y-9110000D01*
X9960000Y-10250000D02*
X10000000Y-10290000D01*
X10000000Y-10250000D02*
X9960000Y-10290000D01*
X9962500Y-10490000D02*
X10002500Y-10530000D01*
X10002500Y-10490000D02*
X9962500Y-10530000D01*
X10020000Y-6490000D02*
X10060000Y-6530000D01*
X10060000Y-6490000D02*
X10020000Y-6530000D01*
X10060000Y-8090000D02*
X10100000Y-8130000D01*
X10100000Y-8090000D02*
X10060000Y-8130000D01*
X10150000Y-8750000D02*
X10190000Y-8790000D01*
X10190000Y-8750000D02*
X10150000Y-8790000D01*
X10220000Y-6490000D02*
X10260000Y-6530000D01*
X10260000Y-6490000D02*
X10220000Y-6530000D01*
X10230000Y-4850000D02*
X10270000Y-4890000D01*
X10270000Y-4850000D02*
X10230000Y-4890000D01*
X10290000Y-11225000D02*
X10330000Y-11265000D01*
X10330000Y-11225000D02*
X10290000Y-11265000D01*
X10310000Y-8750000D02*
X10350000Y-8790000D01*
X10350000Y-8750000D02*
X10310000Y-8790000D01*
X10447500Y-11305000D02*
X10487500Y-11345000D01*
X10487500Y-11305000D02*
X10447500Y-11345000D01*
X10550000Y-8750000D02*
X10590000Y-8790000D01*
X10590000Y-8750000D02*
X10550000Y-8790000D01*
X10595000Y-11305000D02*
X10635000Y-11345000D01*
X10635000Y-11305000D02*
X10595000Y-11345000D01*
X10710000Y-8750000D02*
X10750000Y-8790000D01*
X10750000Y-8750000D02*
X10710000Y-8790000D01*
X10730000Y-10120000D02*
X10770000Y-10160000D01*
X10770000Y-10120000D02*
X10730000Y-10160000D01*
X10840000Y-11115000D02*
X10880000Y-11155000D01*
X10880000Y-11115000D02*
X10840000Y-11155000D01*
X10992500Y-10222500D02*
X11032500Y-10262500D01*
X11032500Y-10222500D02*
X10992500Y-10262500D01*
X10992500Y-10380001D02*
X11032500Y-10420001D01*
X11032500Y-10380001D02*
X10992500Y-10420001D01*
X11050000Y-9580000D02*
X11090000Y-9620000D01*
X11090000Y-9580000D02*
X11050000Y-9620000D01*
X11085000Y-6460000D02*
X11125000Y-6500000D01*
X11125000Y-6460000D02*
X11085000Y-6500000D01*
X11090000Y-8090000D02*
X11130000Y-8130000D01*
X11130000Y-8090000D02*
X11090000Y-8130000D01*
X11150000Y-10120000D02*
X11190000Y-10160000D01*
X11190000Y-10120000D02*
X11150000Y-10160000D01*
X11240000Y-8750000D02*
X11280000Y-8790000D01*
X11280000Y-8750000D02*
X11240000Y-8790000D01*
X11300000Y-4850000D02*
X11340000Y-4890000D01*
X11340000Y-4850000D02*
X11300000Y-4890000D01*
X11370000Y-6460000D02*
X11410000Y-6500000D01*
X11410000Y-6460000D02*
X11370000Y-6500000D01*
X11400000Y-8750000D02*
X11440000Y-8790000D01*
X11440000Y-8750000D02*
X11400000Y-8790000D01*
X11550000Y-10120000D02*
X11590000Y-10160000D01*
X11590000Y-10120000D02*
X11550000Y-10160000D01*
X11630000Y-8750000D02*
X11670000Y-8790000D01*
X11670000Y-8750000D02*
X11630000Y-8790000D01*
X11640000Y-11425000D02*
X11680000Y-11465000D01*
X11680000Y-11425000D02*
X11640000Y-11465000D01*
X11790000Y-8750000D02*
X11830000Y-8790000D01*
X11830000Y-8750000D02*
X11790000Y-8790000D01*
X11795000Y-11230000D02*
X11835000Y-11270000D01*
X11835000Y-11230000D02*
X11795000Y-11270000D01*
X11960000Y-9070000D02*
X12000000Y-9110000D01*
X12000000Y-9070000D02*
X11960000Y-9110000D01*
X12017500Y-11255000D02*
X12057500Y-11295000D01*
X12057500Y-11255000D02*
X12017500Y-11295000D01*
X12160000Y-8090000D02*
X12200000Y-8130000D01*
X12200000Y-8090000D02*
X12160000Y-8130000D01*
X12165000Y-11255000D02*
X12205000Y-11295000D01*
X12205000Y-11255000D02*
X12165000Y-11295000D01*
X12190000Y-6460000D02*
X12230000Y-6500000D01*
X12230000Y-6460000D02*
X12190000Y-6500000D01*
X12320000Y-8750000D02*
X12360000Y-8790000D01*
X12360000Y-8750000D02*
X12320000Y-8790000D01*
X12350000Y-11125000D02*
X12390000Y-11165000D01*
X12390000Y-11125000D02*
X12350000Y-11165000D01*
X12380000Y-4850000D02*
X12420000Y-4890000D01*
X12420000Y-4850000D02*
X12380000Y-4890000D01*
X12400000Y-6480000D02*
X12440000Y-6520000D01*
X12440000Y-6480000D02*
X12400000Y-6520000D01*
X12480000Y-8750000D02*
X12520000Y-8790000D01*
X12520000Y-8750000D02*
X12480000Y-8790000D01*
X12710000Y-8750000D02*
X12750000Y-8790000D01*
X12750000Y-8750000D02*
X12710000Y-8790000D01*
X12860000Y-11665000D02*
X12900000Y-11705000D01*
X12900000Y-11665000D02*
X12860000Y-11705000D01*
X12870000Y-8750000D02*
X12910000Y-8790000D01*
X12910000Y-8750000D02*
X12870000Y-8790000D01*
X12930000Y-10110000D02*
X12970000Y-10150000D01*
X12970000Y-10110000D02*
X12930000Y-10150000D01*
X12945000Y-10637500D02*
X12985000Y-10677500D01*
X12985000Y-10637500D02*
X12945000Y-10677500D01*
X12945000Y-10975000D02*
X12985000Y-11015000D01*
X12985000Y-10975000D02*
X12945000Y-11015000D01*
X13122500Y-10195000D02*
X13162500Y-10235000D01*
X13162500Y-10195000D02*
X13122500Y-10235000D01*
X13122500Y-10350000D02*
X13162500Y-10390000D01*
X13162500Y-10350000D02*
X13122500Y-10390000D01*
X13237500Y-10997500D02*
X13277500Y-11037500D01*
X13277500Y-10997500D02*
X13237500Y-11037500D01*
X13260000Y-9570000D02*
X13300000Y-9610000D01*
X13300000Y-9570000D02*
X13260000Y-9610000D01*
X13270000Y-6480000D02*
X13310000Y-6520000D01*
X13310000Y-6480000D02*
X13270000Y-6520000D01*
X13270000Y-8090000D02*
X13310000Y-8130000D01*
X13310000Y-8090000D02*
X13270000Y-8130000D01*
X13280000Y-10120000D02*
X13320000Y-10160000D01*
X13320000Y-10120000D02*
X13280000Y-10160000D01*
X13282500Y-11317500D02*
X13322500Y-11357500D01*
X13322500Y-11317500D02*
X13282500Y-11357500D01*
X13390000Y-8750000D02*
X13430000Y-8790000D01*
X13430000Y-8750000D02*
X13390000Y-8790000D01*
X13394293Y-10869698D02*
X13434293Y-10909698D01*
X13434293Y-10869698D02*
X13394293Y-10909698D01*
X13395000Y-10565000D02*
X13435000Y-10605000D01*
X13435000Y-10565000D02*
X13395000Y-10605000D01*
X13458735Y-11743735D02*
X13498735Y-11783735D01*
X13498735Y-11743735D02*
X13458735Y-11783735D01*
X13470000Y-4850000D02*
X13510000Y-4890000D01*
X13510000Y-4850000D02*
X13470000Y-4890000D01*
X13470000Y-6480000D02*
X13510000Y-6520000D01*
X13510000Y-6480000D02*
X13470000Y-6520000D01*
X13550000Y-8750000D02*
X13590000Y-8790000D01*
X13590000Y-8750000D02*
X13550000Y-8790000D01*
X13700000Y-10120000D02*
X13740000Y-10160000D01*
X13740000Y-10120000D02*
X13700000Y-10160000D01*
X13790000Y-8750000D02*
X13830000Y-8790000D01*
X13830000Y-8750000D02*
X13790000Y-8790000D01*
X13846000Y-11285000D02*
X13886000Y-11325000D01*
X13886000Y-11285000D02*
X13846000Y-11325000D01*
X13950000Y-8750000D02*
X13990000Y-8790000D01*
X13990000Y-8750000D02*
X13950000Y-8790000D01*
X14078750Y-11696250D02*
X14118750Y-11736250D01*
X14118750Y-11696250D02*
X14078750Y-11736250D01*
X14100000Y-11365000D02*
X14140000Y-11405000D01*
X14140000Y-11365000D02*
X14100000Y-11405000D01*
X14120000Y-9070000D02*
X14160000Y-9110000D01*
X14160000Y-9070000D02*
X14120000Y-9110000D01*
X14138735Y-11163735D02*
X14178735Y-11203735D01*
X14178735Y-11163735D02*
X14138735Y-11203735D01*
X14280000Y-11695000D02*
X14320000Y-11735000D01*
X14320000Y-11695000D02*
X14280000Y-11735000D01*
X14320000Y-8090000D02*
X14360000Y-8130000D01*
X14360000Y-8090000D02*
X14320000Y-8130000D01*
X14350000Y-6490000D02*
X14390000Y-6530000D01*
X14390000Y-6490000D02*
X14350000Y-6530000D01*
X14390000Y-11275000D02*
X14430000Y-11315000D01*
X14430000Y-11275000D02*
X14390000Y-11315000D01*
X14460000Y-8750000D02*
X14500000Y-8790000D01*
X14500000Y-8750000D02*
X14460000Y-8790000D01*
X14540000Y-4850000D02*
X14580000Y-4890000D01*
X14580000Y-4850000D02*
X14540000Y-4890000D01*
X14602500Y-10637500D02*
X14642500Y-10677500D01*
X14642500Y-10637500D02*
X14602500Y-10677500D01*
X14620000Y-8750000D02*
X14660000Y-8790000D01*
X14660000Y-8750000D02*
X14620000Y-8790000D01*
X14622500Y-12717500D02*
X14662500Y-12757500D01*
X14662500Y-12717500D02*
X14622500Y-12757500D01*
X14625000Y-6480000D02*
X14665000Y-6520000D01*
X14665000Y-6480000D02*
X14625000Y-6520000D01*
X14730000Y-10090000D02*
X14770000Y-10130000D01*
X14770000Y-10090000D02*
X14730000Y-10130000D01*
X14765000Y-10630000D02*
X14805000Y-10670000D01*
X14805000Y-10630000D02*
X14765000Y-10670000D01*
X14825000Y-10860000D02*
X14865000Y-10900000D01*
X14865000Y-10860000D02*
X14825000Y-10900000D01*
X14905000Y-10492500D02*
X14945000Y-10532500D01*
X14945000Y-10492500D02*
X14905000Y-10532500D01*
X14907500Y-10710000D02*
X14947500Y-10750000D01*
X14947500Y-10710000D02*
X14907500Y-10750000D01*
X14910000Y-10180000D02*
X14950000Y-10220000D01*
X14950000Y-10180000D02*
X14910000Y-10220000D01*
X14910000Y-10355000D02*
X14950000Y-10395000D01*
X14950000Y-10355000D02*
X14910000Y-10395000D01*
X14950000Y-11155000D02*
X14990000Y-11195000D01*
X14990000Y-11155000D02*
X14950000Y-11195000D01*
X15030000Y-8750000D02*
X15070000Y-8790000D01*
X15070000Y-8750000D02*
X15030000Y-8790000D01*
X15052500Y-10492500D02*
X15092500Y-10532500D01*
X15092500Y-10492500D02*
X15052500Y-10532500D01*
X15052500Y-10613855D02*
X15092500Y-10653855D01*
X15092500Y-10613855D02*
X15052500Y-10653855D01*
X15080000Y-10710000D02*
X15120000Y-10750000D01*
X15120000Y-10710000D02*
X15080000Y-10750000D01*
X15140000Y-9580000D02*
X15180000Y-9620000D01*
X15180000Y-9580000D02*
X15140000Y-9620000D01*
X15180000Y-8750000D02*
X15220000Y-8790000D01*
X15220000Y-8750000D02*
X15180000Y-8790000D01*
X15182500Y-10110000D02*
X15222500Y-10150000D01*
X15222500Y-10110000D02*
X15182500Y-10150000D01*
X15340000Y-8750000D02*
X15380000Y-8790000D01*
X15380000Y-8750000D02*
X15340000Y-8790000D01*
X15430000Y-6480000D02*
X15470000Y-6520000D01*
X15470000Y-6480000D02*
X15430000Y-6520000D01*
X15440000Y-8090000D02*
X15480000Y-8130000D01*
X15480000Y-8090000D02*
X15440000Y-8130000D01*
X15460000Y-11715000D02*
X15500000Y-11755000D01*
X15500000Y-11715000D02*
X15460000Y-11755000D01*
X15500000Y-8750000D02*
X15540000Y-8790000D01*
X15540000Y-8750000D02*
X15500000Y-8790000D01*
X15590000Y-10120000D02*
X15630000Y-10160000D01*
X15630000Y-10120000D02*
X15590000Y-10160000D01*
X15620000Y-4860000D02*
X15660000Y-4900000D01*
X15660000Y-4860000D02*
X15620000Y-4900000D01*
X15630000Y-6480000D02*
X15670000Y-6520000D01*
X15670000Y-6480000D02*
X15630000Y-6520000D01*
X15650000Y-8750000D02*
X15690000Y-8790000D01*
X15690000Y-8750000D02*
X15650000Y-8790000D01*
X15770000Y-10665000D02*
X15810000Y-10705000D01*
X15810000Y-10665000D02*
X15770000Y-10705000D01*
X15787500Y-10805000D02*
X15827500Y-10845000D01*
X15827500Y-10805000D02*
X15787500Y-10845000D01*
X15810000Y-8750000D02*
X15850000Y-8790000D01*
X15850000Y-8750000D02*
X15810000Y-8790000D01*
X15960000Y-8750000D02*
X16000000Y-8790000D01*
X16000000Y-8750000D02*
X15960000Y-8790000D01*
X15980000Y-10665000D02*
X16020000Y-10705000D01*
X16020000Y-10665000D02*
X15980000Y-10705000D01*
X15990000Y-11180000D02*
X16030000Y-11220000D01*
X16030000Y-11180000D02*
X15990000Y-11220000D01*
X16010000Y-9070000D02*
X16050000Y-9110000D01*
X16050000Y-9070000D02*
X16010000Y-9110000D01*
X16070000Y-10825000D02*
X16110000Y-10865000D01*
X16110000Y-10825000D02*
X16070000Y-10865000D01*
X16120000Y-8750000D02*
X16160000Y-8790000D01*
X16160000Y-8750000D02*
X16120000Y-8790000D01*
X16412360Y-11067640D02*
X16452360Y-11107640D01*
X16452360Y-11067640D02*
X16412360Y-11107640D01*
X16412360Y-11342640D02*
X16452360Y-11382640D01*
X16452360Y-11342640D02*
X16412360Y-11382640D01*
X16500000Y-10130000D02*
X16540000Y-10170000D01*
X16540000Y-10130000D02*
X16500000Y-10170000D01*
X16510000Y-6480000D02*
X16550000Y-6520000D01*
X16550000Y-6480000D02*
X16510000Y-6520000D01*
X16520000Y-8090000D02*
X16560000Y-8130000D01*
X16560000Y-8090000D02*
X16520000Y-8130000D01*
X16710000Y-4870000D02*
X16750000Y-4910000D01*
X16750000Y-4870000D02*
X16710000Y-4910000D01*
X16710000Y-6480000D02*
X16750000Y-6520000D01*
X16750000Y-6480000D02*
X16710000Y-6520000D01*
X16913823Y-4937904D02*
X16953823Y-4977904D01*
X16953823Y-4937904D02*
X16913823Y-4977904D01*
X17002500Y-10967500D02*
X17042500Y-11007500D01*
X17042500Y-10967500D02*
X17002500Y-11007500D01*
X17124896Y-7929896D02*
X17164896Y-7969896D01*
X17164896Y-7929896D02*
X17124896Y-7969896D01*
X17230000Y-6590000D02*
X17270000Y-6630000D01*
X17270000Y-6590000D02*
X17230000Y-6630000D01*
X17235000Y-7888190D02*
X17275000Y-7928190D01*
X17275000Y-7888190D02*
X17235000Y-7928190D01*
X17315000Y-5380000D02*
X17355000Y-5420000D01*
X17355000Y-5380000D02*
X17315000Y-5420000D01*
X17318807Y-7946193D02*
X17358807Y-7986193D01*
X17358807Y-7946193D02*
X17318807Y-7986193D01*
X17320000Y-6840000D02*
X17360000Y-6880000D01*
X17360000Y-6840000D02*
X17320000Y-6880000D01*
X17404000Y-7998560D02*
X17444000Y-8038560D01*
X17444000Y-7998560D02*
X17404000Y-8038560D01*
X17410000Y-5565000D02*
X17450000Y-5605000D01*
X17450000Y-5565000D02*
X17410000Y-5605000D01*
X17410000Y-6950000D02*
X17450000Y-6990000D01*
X17450000Y-6950000D02*
X17410000Y-6990000D01*
X17490000Y-7340000D02*
X17530000Y-7380000D01*
X17530000Y-7340000D02*
X17490000Y-7380000D01*
X17490000Y-7947530D02*
X17530000Y-7987530D01*
X17530000Y-7947530D02*
X17490000Y-7987530D01*
X17495000Y-5700000D02*
X17535000Y-5740000D01*
X17535000Y-5700000D02*
X17495000Y-5740000D01*
X17575000Y-8010000D02*
X17615000Y-8050000D01*
X17615000Y-8010000D02*
X17575000Y-8050000D01*
X17580000Y-5820000D02*
X17620000Y-5860000D01*
X17620000Y-5820000D02*
X17580000Y-5860000D01*
X17580000Y-7460000D02*
X17620000Y-7500000D01*
X17620000Y-7460000D02*
X17580000Y-7500000D01*
X17600000Y-10560000D02*
X17640000Y-10600000D01*
X17640000Y-10560000D02*
X17600000Y-10600000D01*
X17640000Y-10080000D02*
X17680000Y-10120000D01*
X17680000Y-10080000D02*
X17640000Y-10120000D01*
X17640000Y-10170000D02*
X17680000Y-10210000D01*
X17680000Y-10170000D02*
X17640000Y-10210000D01*
X17660000Y-7610000D02*
X17700000Y-7650000D01*
X17700000Y-7610000D02*
X17660000Y-7650000D01*
X17660000Y-7945000D02*
X17700000Y-7985000D01*
X17700000Y-7945000D02*
X17660000Y-7985000D01*
X17665000Y-5960000D02*
X17705000Y-6000000D01*
X17705000Y-5960000D02*
X17665000Y-6000000D01*
X17730000Y-10080000D02*
X17770000Y-10120000D01*
X17770000Y-10080000D02*
X17730000Y-10120000D01*
X17730000Y-10170000D02*
X17770000Y-10210000D01*
X17770000Y-10170000D02*
X17730000Y-10210000D01*
X17750000Y-6070000D02*
X17790000Y-6110000D01*
X17790000Y-6070000D02*
X17750000Y-6110000D01*
X17750000Y-7720000D02*
X17790000Y-7760000D01*
X17790000Y-7720000D02*
X17750000Y-7760000D01*
X13059000Y-6722000D02*
G75*
G03X13059000Y-6722000I-40000J0D01*
G01*
X13059000Y-6976000D02*
G75*
G03X13059000Y-6976000I-40000J0D01*
G01*
X13059000Y-7230000D02*
G75*
G03X13059000Y-7230000I-40000J0D01*
G01*
X13059000Y-7484000D02*
G75*
G03X13059000Y-7484000I-40000J0D01*
G01*
X13059000Y-7738000D02*
G75*
G03X13059000Y-7738000I-40000J0D01*
G01*
X13821000Y-6722000D02*
G75*
G03X13821000Y-6722000I-40000J0D01*
G01*
X13821000Y-6976000D02*
G75*
G03X13821000Y-6976000I-40000J0D01*
G01*
X13821000Y-7230000D02*
G75*
G03X13821000Y-7230000I-40000J0D01*
G01*
X13821000Y-7484000D02*
G75*
G03X13821000Y-7484000I-40000J0D01*
G01*
X13821000Y-7738000D02*
G75*
G03X13821000Y-7738000I-40000J0D01*
G01*
X9819000Y-6722000D02*
G75*
G03X9819000Y-6722000I-40000J0D01*
G01*
X9819000Y-6976000D02*
G75*
G03X9819000Y-6976000I-40000J0D01*
G01*
X9819000Y-7230000D02*
G75*
G03X9819000Y-7230000I-40000J0D01*
G01*
X9819000Y-7484000D02*
G75*
G03X9819000Y-7484000I-40000J0D01*
G01*
X9819000Y-7738000D02*
G75*
G03X9819000Y-7738000I-40000J0D01*
G01*
X10581000Y-6722000D02*
G75*
G03X10581000Y-6722000I-40000J0D01*
G01*
X10581000Y-6976000D02*
G75*
G03X10581000Y-6976000I-40000J0D01*
G01*
X10581000Y-7230000D02*
G75*
G03X10581000Y-7230000I-40000J0D01*
G01*
X10581000Y-7484000D02*
G75*
G03X10581000Y-7484000I-40000J0D01*
G01*
X10581000Y-7738000D02*
G75*
G03X10581000Y-7738000I-40000J0D01*
G01*
X16289000Y-5072000D02*
G75*
G03X16289000Y-5072000I-40000J0D01*
G01*
X16289000Y-5326000D02*
G75*
G03X16289000Y-5326000I-40000J0D01*
G01*
X16289000Y-5580000D02*
G75*
G03X16289000Y-5580000I-40000J0D01*
G01*
X16289000Y-5834000D02*
G75*
G03X16289000Y-5834000I-40000J0D01*
G01*
X16289000Y-6088000D02*
G75*
G03X16289000Y-6088000I-40000J0D01*
G01*
X17051000Y-5072000D02*
G75*
G03X17051000Y-5072000I-40000J0D01*
G01*
X17051000Y-5326000D02*
G75*
G03X17051000Y-5326000I-40000J0D01*
G01*
X17051000Y-5580000D02*
G75*
G03X17051000Y-5580000I-40000J0D01*
G01*
X17051000Y-5834000D02*
G75*
G03X17051000Y-5834000I-40000J0D01*
G01*
X17051000Y-6088000D02*
G75*
G03X17051000Y-6088000I-40000J0D01*
G01*
X14129000Y-5072000D02*
G75*
G03X14129000Y-5072000I-40000J0D01*
G01*
X14129000Y-5326000D02*
G75*
G03X14129000Y-5326000I-40000J0D01*
G01*
X14129000Y-5580000D02*
G75*
G03X14129000Y-5580000I-40000J0D01*
G01*
X14129000Y-5834000D02*
G75*
G03X14129000Y-5834000I-40000J0D01*
G01*
X14129000Y-6088000D02*
G75*
G03X14129000Y-6088000I-40000J0D01*
G01*
X14891000Y-5072000D02*
G75*
G03X14891000Y-5072000I-40000J0D01*
G01*
X14891000Y-5326000D02*
G75*
G03X14891000Y-5326000I-40000J0D01*
G01*
X14891000Y-5580000D02*
G75*
G03X14891000Y-5580000I-40000J0D01*
G01*
X14891000Y-5834000D02*
G75*
G03X14891000Y-5834000I-40000J0D01*
G01*
X14891000Y-6088000D02*
G75*
G03X14891000Y-6088000I-40000J0D01*
G01*
X10889000Y-5082000D02*
G75*
G03X10889000Y-5082000I-40000J0D01*
G01*
X10889000Y-5336000D02*
G75*
G03X10889000Y-5336000I-40000J0D01*
G01*
X10889000Y-5590000D02*
G75*
G03X10889000Y-5590000I-40000J0D01*
G01*
X10889000Y-5844000D02*
G75*
G03X10889000Y-5844000I-40000J0D01*
G01*
X10889000Y-6098000D02*
G75*
G03X10889000Y-6098000I-40000J0D01*
G01*
X11651000Y-5082000D02*
G75*
G03X11651000Y-5082000I-40000J0D01*
G01*
X11651000Y-5336000D02*
G75*
G03X11651000Y-5336000I-40000J0D01*
G01*
X11651000Y-5590000D02*
G75*
G03X11651000Y-5590000I-40000J0D01*
G01*
X11651000Y-5844000D02*
G75*
G03X11651000Y-5844000I-40000J0D01*
G01*
X11651000Y-6098000D02*
G75*
G03X11651000Y-6098000I-40000J0D01*
G01*
X9809000Y-5082000D02*
G75*
G03X9809000Y-5082000I-40000J0D01*
G01*
X9809000Y-5336000D02*
G75*
G03X9809000Y-5336000I-40000J0D01*
G01*
X9809000Y-5590000D02*
G75*
G03X9809000Y-5590000I-40000J0D01*
G01*
X9809000Y-5844000D02*
G75*
G03X9809000Y-5844000I-40000J0D01*
G01*
X9809000Y-6098000D02*
G75*
G03X9809000Y-6098000I-40000J0D01*
G01*
X10571000Y-5082000D02*
G75*
G03X10571000Y-5082000I-40000J0D01*
G01*
X10571000Y-5336000D02*
G75*
G03X10571000Y-5336000I-40000J0D01*
G01*
X10571000Y-5590000D02*
G75*
G03X10571000Y-5590000I-40000J0D01*
G01*
X10571000Y-5844000D02*
G75*
G03X10571000Y-5844000I-40000J0D01*
G01*
X10571000Y-6098000D02*
G75*
G03X10571000Y-6098000I-40000J0D01*
G01*
X16299000Y-6722000D02*
G75*
G03X16299000Y-6722000I-40000J0D01*
G01*
X16299000Y-6976000D02*
G75*
G03X16299000Y-6976000I-40000J0D01*
G01*
X16299000Y-7230000D02*
G75*
G03X16299000Y-7230000I-40000J0D01*
G01*
X16299000Y-7484000D02*
G75*
G03X16299000Y-7484000I-40000J0D01*
G01*
X16299000Y-7738000D02*
G75*
G03X16299000Y-7738000I-40000J0D01*
G01*
X17061000Y-6722000D02*
G75*
G03X17061000Y-6722000I-40000J0D01*
G01*
X17061000Y-6976000D02*
G75*
G03X17061000Y-6976000I-40000J0D01*
G01*
X17061000Y-7230000D02*
G75*
G03X17061000Y-7230000I-40000J0D01*
G01*
X17061000Y-7484000D02*
G75*
G03X17061000Y-7484000I-40000J0D01*
G01*
X17061000Y-7738000D02*
G75*
G03X17061000Y-7738000I-40000J0D01*
G01*
X11979000Y-6722000D02*
G75*
G03X11979000Y-6722000I-40000J0D01*
G01*
X11979000Y-6976000D02*
G75*
G03X11979000Y-6976000I-40000J0D01*
G01*
X11979000Y-7230000D02*
G75*
G03X11979000Y-7230000I-40000J0D01*
G01*
X11979000Y-7484000D02*
G75*
G03X11979000Y-7484000I-40000J0D01*
G01*
X11979000Y-7738000D02*
G75*
G03X11979000Y-7738000I-40000J0D01*
G01*
X12741000Y-6722000D02*
G75*
G03X12741000Y-6722000I-40000J0D01*
G01*
X12741000Y-6976000D02*
G75*
G03X12741000Y-6976000I-40000J0D01*
G01*
X12741000Y-7230000D02*
G75*
G03X12741000Y-7230000I-40000J0D01*
G01*
X12741000Y-7484000D02*
G75*
G03X12741000Y-7484000I-40000J0D01*
G01*
X12741000Y-7738000D02*
G75*
G03X12741000Y-7738000I-40000J0D01*
G01*
X15219000Y-6722000D02*
G75*
G03X15219000Y-6722000I-40000J0D01*
G01*
X15219000Y-6976000D02*
G75*
G03X15219000Y-6976000I-40000J0D01*
G01*
X15219000Y-7230000D02*
G75*
G03X15219000Y-7230000I-40000J0D01*
G01*
X15219000Y-7484000D02*
G75*
G03X15219000Y-7484000I-40000J0D01*
G01*
X15219000Y-7738000D02*
G75*
G03X15219000Y-7738000I-40000J0D01*
G01*
X15981000Y-6722000D02*
G75*
G03X15981000Y-6722000I-40000J0D01*
G01*
X15981000Y-6976000D02*
G75*
G03X15981000Y-6976000I-40000J0D01*
G01*
X15981000Y-7230000D02*
G75*
G03X15981000Y-7230000I-40000J0D01*
G01*
X15981000Y-7484000D02*
G75*
G03X15981000Y-7484000I-40000J0D01*
G01*
X15981000Y-7738000D02*
G75*
G03X15981000Y-7738000I-40000J0D01*
G01*
X15209000Y-5072000D02*
G75*
G03X15209000Y-5072000I-40000J0D01*
G01*
X15209000Y-5326000D02*
G75*
G03X15209000Y-5326000I-40000J0D01*
G01*
X15209000Y-5580000D02*
G75*
G03X15209000Y-5580000I-40000J0D01*
G01*
X15209000Y-5834000D02*
G75*
G03X15209000Y-5834000I-40000J0D01*
G01*
X15209000Y-6088000D02*
G75*
G03X15209000Y-6088000I-40000J0D01*
G01*
X15971000Y-5072000D02*
G75*
G03X15971000Y-5072000I-40000J0D01*
G01*
X15971000Y-5326000D02*
G75*
G03X15971000Y-5326000I-40000J0D01*
G01*
X15971000Y-5580000D02*
G75*
G03X15971000Y-5580000I-40000J0D01*
G01*
X15971000Y-5834000D02*
G75*
G03X15971000Y-5834000I-40000J0D01*
G01*
X15971000Y-6088000D02*
G75*
G03X15971000Y-6088000I-40000J0D01*
G01*
X13049000Y-5072000D02*
G75*
G03X13049000Y-5072000I-40000J0D01*
G01*
X13049000Y-5326000D02*
G75*
G03X13049000Y-5326000I-40000J0D01*
G01*
X13049000Y-5580000D02*
G75*
G03X13049000Y-5580000I-40000J0D01*
G01*
X13049000Y-5834000D02*
G75*
G03X13049000Y-5834000I-40000J0D01*
G01*
X13049000Y-6088000D02*
G75*
G03X13049000Y-6088000I-40000J0D01*
G01*
X13811000Y-5072000D02*
G75*
G03X13811000Y-5072000I-40000J0D01*
G01*
X13811000Y-5326000D02*
G75*
G03X13811000Y-5326000I-40000J0D01*
G01*
X13811000Y-5580000D02*
G75*
G03X13811000Y-5580000I-40000J0D01*
G01*
X13811000Y-5834000D02*
G75*
G03X13811000Y-5834000I-40000J0D01*
G01*
X13811000Y-6088000D02*
G75*
G03X13811000Y-6088000I-40000J0D01*
G01*
X8729000Y-5082000D02*
G75*
G03X8729000Y-5082000I-40000J0D01*
G01*
X8729000Y-5336000D02*
G75*
G03X8729000Y-5336000I-40000J0D01*
G01*
X8729000Y-5590000D02*
G75*
G03X8729000Y-5590000I-40000J0D01*
G01*
X8729000Y-5844000D02*
G75*
G03X8729000Y-5844000I-40000J0D01*
G01*
X8729000Y-6098000D02*
G75*
G03X8729000Y-6098000I-40000J0D01*
G01*
X9491000Y-5082000D02*
G75*
G03X9491000Y-5082000I-40000J0D01*
G01*
X9491000Y-5336000D02*
G75*
G03X9491000Y-5336000I-40000J0D01*
G01*
X9491000Y-5590000D02*
G75*
G03X9491000Y-5590000I-40000J0D01*
G01*
X9491000Y-5844000D02*
G75*
G03X9491000Y-5844000I-40000J0D01*
G01*
X9491000Y-6098000D02*
G75*
G03X9491000Y-6098000I-40000J0D01*
G01*
X14139000Y-6722000D02*
G75*
G03X14139000Y-6722000I-40000J0D01*
G01*
X14139000Y-6976000D02*
G75*
G03X14139000Y-6976000I-40000J0D01*
G01*
X14139000Y-7230000D02*
G75*
G03X14139000Y-7230000I-40000J0D01*
G01*
X14139000Y-7484000D02*
G75*
G03X14139000Y-7484000I-40000J0D01*
G01*
X14139000Y-7738000D02*
G75*
G03X14139000Y-7738000I-40000J0D01*
G01*
X14901000Y-6722000D02*
G75*
G03X14901000Y-6722000I-40000J0D01*
G01*
X14901000Y-6976000D02*
G75*
G03X14901000Y-6976000I-40000J0D01*
G01*
X14901000Y-7230000D02*
G75*
G03X14901000Y-7230000I-40000J0D01*
G01*
X14901000Y-7484000D02*
G75*
G03X14901000Y-7484000I-40000J0D01*
G01*
X14901000Y-7738000D02*
G75*
G03X14901000Y-7738000I-40000J0D01*
G01*
X10899000Y-6722000D02*
G75*
G03X10899000Y-6722000I-40000J0D01*
G01*
X10899000Y-6976000D02*
G75*
G03X10899000Y-6976000I-40000J0D01*
G01*
X10899000Y-7230000D02*
G75*
G03X10899000Y-7230000I-40000J0D01*
G01*
X10899000Y-7484000D02*
G75*
G03X10899000Y-7484000I-40000J0D01*
G01*
X10899000Y-7738000D02*
G75*
G03X10899000Y-7738000I-40000J0D01*
G01*
X11661000Y-6722000D02*
G75*
G03X11661000Y-6722000I-40000J0D01*
G01*
X11661000Y-6976000D02*
G75*
G03X11661000Y-6976000I-40000J0D01*
G01*
X11661000Y-7230000D02*
G75*
G03X11661000Y-7230000I-40000J0D01*
G01*
X11661000Y-7484000D02*
G75*
G03X11661000Y-7484000I-40000J0D01*
G01*
X11661000Y-7738000D02*
G75*
G03X11661000Y-7738000I-40000J0D01*
G01*
X8739000Y-6722000D02*
G75*
G03X8739000Y-6722000I-40000J0D01*
G01*
X8739000Y-6976000D02*
G75*
G03X8739000Y-6976000I-40000J0D01*
G01*
X8739000Y-7230000D02*
G75*
G03X8739000Y-7230000I-40000J0D01*
G01*
X8739000Y-7484000D02*
G75*
G03X8739000Y-7484000I-40000J0D01*
G01*
X8739000Y-7738000D02*
G75*
G03X8739000Y-7738000I-40000J0D01*
G01*
X9501000Y-6722000D02*
G75*
G03X9501000Y-6722000I-40000J0D01*
G01*
X9501000Y-6976000D02*
G75*
G03X9501000Y-6976000I-40000J0D01*
G01*
X9501000Y-7230000D02*
G75*
G03X9501000Y-7230000I-40000J0D01*
G01*
X9501000Y-7484000D02*
G75*
G03X9501000Y-7484000I-40000J0D01*
G01*
X9501000Y-7738000D02*
G75*
G03X9501000Y-7738000I-40000J0D01*
G01*
X11968000Y-5078000D02*
G75*
G03X11968000Y-5078000I-40000J0D01*
G01*
X11968000Y-5332000D02*
G75*
G03X11968000Y-5332000I-40000J0D01*
G01*
X11968000Y-5586000D02*
G75*
G03X11968000Y-5586000I-40000J0D01*
G01*
X11968000Y-5840000D02*
G75*
G03X11968000Y-5840000I-40000J0D01*
G01*
X11968000Y-6094000D02*
G75*
G03X11968000Y-6094000I-40000J0D01*
G01*
X12730000Y-5078000D02*
G75*
G03X12730000Y-5078000I-40000J0D01*
G01*
X12730000Y-5332000D02*
G75*
G03X12730000Y-5332000I-40000J0D01*
G01*
X12730000Y-5586000D02*
G75*
G03X12730000Y-5586000I-40000J0D01*
G01*
X12730000Y-5840000D02*
G75*
G03X12730000Y-5840000I-40000J0D01*
G01*
X12730000Y-6094000D02*
G75*
G03X12730000Y-6094000I-40000J0D01*
G01*
X9421000Y-11590000D02*
X9421000Y-11690000D01*
X9371000Y-11640000D02*
X9471000Y-11640000D01*
X9675000Y-11590000D02*
X9675000Y-11690000D01*
X9625000Y-11640000D02*
X9725000Y-11640000D01*
X10955921Y-12206921D02*
X10955921Y-12135079D01*
X10884079Y-12135079D01*
X10884079Y-12206921D01*
X10955921Y-12206921D01*
X10955921Y-12460921D02*
X10955921Y-12389079D01*
X10884079Y-12389079D01*
X10884079Y-12460921D01*
X10955921Y-12460921D01*
X11209921Y-12206921D02*
X11209921Y-12135079D01*
X11138079Y-12135079D01*
X11138079Y-12206921D01*
X11209921Y-12206921D01*
X11209921Y-12460921D02*
X11209921Y-12389079D01*
X11138079Y-12389079D01*
X11138079Y-12460921D01*
X11209921Y-12460921D01*
X11463921Y-12206921D02*
X11463921Y-12135079D01*
X11392079Y-12135079D01*
X11392079Y-12206921D01*
X11463921Y-12206921D01*
X11463921Y-12460921D02*
X11463921Y-12389079D01*
X11392079Y-12389079D01*
X11392079Y-12460921D01*
X11463921Y-12460921D01*
X11717921Y-12206921D02*
X11717921Y-12135079D01*
X11646079Y-12135079D01*
X11646079Y-12206921D01*
X11717921Y-12206921D01*
X11717921Y-12460921D02*
X11717921Y-12389079D01*
X11646079Y-12389079D01*
X11646079Y-12460921D01*
X11717921Y-12460921D01*
X11971921Y-12206921D02*
X11971921Y-12135079D01*
X11900079Y-12135079D01*
X11900079Y-12206921D01*
X11971921Y-12206921D01*
X11971921Y-12460921D02*
X11971921Y-12389079D01*
X11900079Y-12389079D01*
X11900079Y-12460921D01*
X11971921Y-12460921D01*
X12225921Y-12206921D02*
X12225921Y-12135079D01*
X12154079Y-12135079D01*
X12154079Y-12206921D01*
X12225921Y-12206921D01*
X12225921Y-12460921D02*
X12225921Y-12389079D01*
X12154079Y-12389079D01*
X12154079Y-12460921D01*
X12225921Y-12460921D01*
X12479921Y-12206921D02*
X12479921Y-12135079D01*
X12408079Y-12135079D01*
X12408079Y-12206921D01*
X12479921Y-12206921D01*
X12479921Y-12460921D02*
X12479921Y-12389079D01*
X12408079Y-12389079D01*
X12408079Y-12460921D01*
X12479921Y-12460921D01*
X12733921Y-12206921D02*
X12733921Y-12135079D01*
X12662079Y-12135079D01*
X12662079Y-12206921D01*
X12733921Y-12206921D01*
X12733921Y-12460921D02*
X12733921Y-12389079D01*
X12662079Y-12389079D01*
X12662079Y-12460921D01*
X12733921Y-12460921D01*
X12987921Y-12206921D02*
X12987921Y-12135079D01*
X12916079Y-12135079D01*
X12916079Y-12206921D01*
X12987921Y-12206921D01*
X12987921Y-12460921D02*
X12987921Y-12389079D01*
X12916079Y-12389079D01*
X12916079Y-12460921D01*
X12987921Y-12460921D01*
X13241921Y-12206921D02*
X13241921Y-12135079D01*
X13170079Y-12135079D01*
X13170079Y-12206921D01*
X13241921Y-12206921D01*
X13241921Y-12460921D02*
X13241921Y-12389079D01*
X13170079Y-12389079D01*
X13170079Y-12460921D01*
X13241921Y-12460921D01*
X13495921Y-12206921D02*
X13495921Y-12135079D01*
X13424079Y-12135079D01*
X13424079Y-12206921D01*
X13495921Y-12206921D01*
X13495921Y-12460921D02*
X13495921Y-12389079D01*
X13424079Y-12389079D01*
X13424079Y-12460921D01*
X13495921Y-12460921D01*
X13749921Y-12206921D02*
X13749921Y-12135079D01*
X13678079Y-12135079D01*
X13678079Y-12206921D01*
X13749921Y-12206921D01*
X13749921Y-12460921D02*
X13749921Y-12389079D01*
X13678079Y-12389079D01*
X13678079Y-12460921D01*
X13749921Y-12460921D01*
X14003921Y-12206921D02*
X14003921Y-12135079D01*
X13932079Y-12135079D01*
X13932079Y-12206921D01*
X14003921Y-12206921D01*
X14003921Y-12460921D02*
X14003921Y-12389079D01*
X13932079Y-12389079D01*
X13932079Y-12460921D01*
X14003921Y-12460921D01*
X15365921Y-12206921D02*
X15365921Y-12135079D01*
X15294079Y-12135079D01*
X15294079Y-12206921D01*
X15365921Y-12206921D01*
X15365921Y-12460921D02*
X15365921Y-12389079D01*
X15294079Y-12389079D01*
X15294079Y-12460921D01*
X15365921Y-12460921D01*
X15619921Y-12206921D02*
X15619921Y-12135079D01*
X15548079Y-12135079D01*
X15548079Y-12206921D01*
X15619921Y-12206921D01*
X15619921Y-12460921D02*
X15619921Y-12389079D01*
X15548079Y-12389079D01*
X15548079Y-12460921D01*
X15619921Y-12460921D01*
X15873921Y-12206921D02*
X15873921Y-12135079D01*
X15802079Y-12135079D01*
X15802079Y-12206921D01*
X15873921Y-12206921D01*
X15873921Y-12460921D02*
X15873921Y-12389079D01*
X15802079Y-12389079D01*
X15802079Y-12460921D01*
X15873921Y-12460921D01*
X16127921Y-12206921D02*
X16127921Y-12135079D01*
X16056079Y-12135079D01*
X16056079Y-12206921D01*
X16127921Y-12206921D01*
X16127921Y-12460921D02*
X16127921Y-12389079D01*
X16056079Y-12389079D01*
X16056079Y-12460921D01*
X16127921Y-12460921D01*
X16381921Y-12206921D02*
X16381921Y-12135079D01*
X16310079Y-12135079D01*
X16310079Y-12206921D01*
X16381921Y-12206921D01*
X16381921Y-12460921D02*
X16381921Y-12389079D01*
X16310079Y-12389079D01*
X16310079Y-12460921D01*
X16381921Y-12460921D01*
X9420000Y-12471000D02*
X9496000Y-12395000D01*
X9420000Y-12319000D01*
X9344000Y-12395000D01*
X9420000Y-12471000D01*
X9928000Y-12471000D02*
X10004000Y-12395000D01*
X9928000Y-12319000D01*
X9852000Y-12395000D01*
X9928000Y-12471000D01*
D12*
X8683928Y-13393214D02*
X8683928Y-13093214D01*
X8755357Y-13093214D01*
X8798214Y-13107500D01*
X8826786Y-13136071D01*
X8841071Y-13164643D01*
X8855357Y-13221786D01*
X8855357Y-13264643D01*
X8841071Y-13321786D01*
X8826786Y-13350357D01*
X8798214Y-13378929D01*
X8755357Y-13393214D01*
X8683928Y-13393214D01*
X8983928Y-13393214D02*
X8983928Y-13193214D01*
X8983928Y-13250357D02*
X8998214Y-13221786D01*
X9012500Y-13207500D01*
X9041071Y-13193214D01*
X9069643Y-13193214D01*
X9169643Y-13393214D02*
X9169643Y-13193214D01*
X9169643Y-13093214D02*
X9155357Y-13107500D01*
X9169643Y-13121786D01*
X9183928Y-13107500D01*
X9169643Y-13093214D01*
X9169643Y-13121786D01*
X9355357Y-13393214D02*
X9326786Y-13378929D01*
X9312500Y-13350357D01*
X9312500Y-13093214D01*
X9512500Y-13393214D02*
X9483928Y-13378929D01*
X9469643Y-13350357D01*
X9469643Y-13093214D01*
X9855357Y-13393214D02*
X9855357Y-13093214D01*
X9955357Y-13307500D01*
X10055357Y-13093214D01*
X10055357Y-13393214D01*
X10326786Y-13393214D02*
X10326786Y-13236071D01*
X10312500Y-13207500D01*
X10283928Y-13193214D01*
X10226786Y-13193214D01*
X10198214Y-13207500D01*
X10326786Y-13378929D02*
X10298214Y-13393214D01*
X10226786Y-13393214D01*
X10198214Y-13378929D01*
X10183928Y-13350357D01*
X10183928Y-13321786D01*
X10198214Y-13293214D01*
X10226786Y-13278929D01*
X10298214Y-13278929D01*
X10326786Y-13264643D01*
X10469643Y-13193214D02*
X10469643Y-13493214D01*
X10469643Y-13207500D02*
X10498214Y-13193214D01*
X10555357Y-13193214D01*
X10583928Y-13207500D01*
X10598214Y-13221786D01*
X10612500Y-13250357D01*
X10612500Y-13336071D01*
X10598214Y-13364643D01*
X10583928Y-13378929D01*
X10555357Y-13393214D01*
X10498214Y-13393214D01*
X10469643Y-13378929D01*
X10741071Y-13364643D02*
X10755357Y-13378929D01*
X10741071Y-13393214D01*
X10726786Y-13378929D01*
X10741071Y-13364643D01*
X10741071Y-13393214D01*
X10741071Y-13207500D02*
X10755357Y-13221786D01*
X10741071Y-13236071D01*
X10726786Y-13221786D01*
X10741071Y-13207500D01*
X10741071Y-13236071D01*
X8357500Y-13867500D02*
X8397500Y-13907500D01*
X8397500Y-13867500D02*
X8357500Y-13907500D01*
X8741071Y-13723214D02*
X8769643Y-13723214D01*
X8798214Y-13737500D01*
X8812500Y-13751786D01*
X8826786Y-13780357D01*
X8841071Y-13837500D01*
X8841071Y-13908929D01*
X8826786Y-13966071D01*
X8812500Y-13994643D01*
X8798214Y-14008929D01*
X8769643Y-14023214D01*
X8741071Y-14023214D01*
X8712500Y-14008929D01*
X8698214Y-13994643D01*
X8683928Y-13966071D01*
X8669643Y-13908929D01*
X8669643Y-13837500D01*
X8683928Y-13780357D01*
X8698214Y-13751786D01*
X8712500Y-13737500D01*
X8741071Y-13723214D01*
X8969643Y-13994643D02*
X8983928Y-14008929D01*
X8969643Y-14023214D01*
X8955357Y-14008929D01*
X8969643Y-13994643D01*
X8969643Y-14023214D01*
X9241071Y-13823214D02*
X9241071Y-14023214D01*
X9169643Y-13708929D02*
X9098214Y-13923214D01*
X9283928Y-13923214D01*
X9455357Y-13723214D02*
X9483928Y-13723214D01*
X9512500Y-13737500D01*
X9526786Y-13751786D01*
X9541071Y-13780357D01*
X9555357Y-13837500D01*
X9555357Y-13908929D01*
X9541071Y-13966071D01*
X9526786Y-13994643D01*
X9512500Y-14008929D01*
X9483928Y-14023214D01*
X9455357Y-14023214D01*
X9426786Y-14008929D01*
X9412500Y-13994643D01*
X9398214Y-13966071D01*
X9383928Y-13908929D01*
X9383928Y-13837500D01*
X9398214Y-13780357D01*
X9412500Y-13751786D01*
X9426786Y-13737500D01*
X9455357Y-13723214D01*
X9683928Y-14023214D02*
X9683928Y-13823214D01*
X9683928Y-13851786D02*
X9698214Y-13837500D01*
X9726786Y-13823214D01*
X9769643Y-13823214D01*
X9798214Y-13837500D01*
X9812500Y-13866071D01*
X9812500Y-14023214D01*
X9812500Y-13866071D02*
X9826786Y-13837500D01*
X9855357Y-13823214D01*
X9898214Y-13823214D01*
X9926786Y-13837500D01*
X9941071Y-13866071D01*
X9941071Y-14023214D01*
X10083928Y-14023214D02*
X10083928Y-13823214D01*
X10083928Y-13851786D02*
X10098214Y-13837500D01*
X10126786Y-13823214D01*
X10169643Y-13823214D01*
X10198214Y-13837500D01*
X10212500Y-13866071D01*
X10212500Y-14023214D01*
X10212500Y-13866071D02*
X10226786Y-13837500D01*
X10255357Y-13823214D01*
X10298214Y-13823214D01*
X10326786Y-13837500D01*
X10341071Y-13866071D01*
X10341071Y-14023214D01*
X10926786Y-13708929D02*
X10669643Y-14094643D01*
X11312500Y-13723214D02*
X11341071Y-13723214D01*
X11369643Y-13737500D01*
X11383928Y-13751786D01*
X11398214Y-13780357D01*
X11412500Y-13837500D01*
X11412500Y-13908929D01*
X11398214Y-13966071D01*
X11383928Y-13994643D01*
X11369643Y-14008929D01*
X11341071Y-14023214D01*
X11312500Y-14023214D01*
X11283928Y-14008929D01*
X11269643Y-13994643D01*
X11255357Y-13966071D01*
X11241071Y-13908929D01*
X11241071Y-13837500D01*
X11255357Y-13780357D01*
X11269643Y-13751786D01*
X11283928Y-13737500D01*
X11312500Y-13723214D01*
X11541071Y-13994643D02*
X11555357Y-14008929D01*
X11541071Y-14023214D01*
X11526786Y-14008929D01*
X11541071Y-13994643D01*
X11541071Y-14023214D01*
X11741071Y-13723214D02*
X11769643Y-13723214D01*
X11798214Y-13737500D01*
X11812500Y-13751786D01*
X11826786Y-13780357D01*
X11841071Y-13837500D01*
X11841071Y-13908929D01*
X11826786Y-13966071D01*
X11812500Y-13994643D01*
X11798214Y-14008929D01*
X11769643Y-14023214D01*
X11741071Y-14023214D01*
X11712500Y-14008929D01*
X11698214Y-13994643D01*
X11683928Y-13966071D01*
X11669643Y-13908929D01*
X11669643Y-13837500D01*
X11683928Y-13780357D01*
X11698214Y-13751786D01*
X11712500Y-13737500D01*
X11741071Y-13723214D01*
X12126786Y-14023214D02*
X11955357Y-14023214D01*
X12041071Y-14023214D02*
X12041071Y-13723214D01*
X12012500Y-13766071D01*
X11983928Y-13794643D01*
X11955357Y-13808929D01*
X12383928Y-13723214D02*
X12326786Y-13723214D01*
X12298214Y-13737500D01*
X12283928Y-13751786D01*
X12255357Y-13794643D01*
X12241071Y-13851786D01*
X12241071Y-13966071D01*
X12255357Y-13994643D01*
X12269643Y-14008929D01*
X12298214Y-14023214D01*
X12355357Y-14023214D01*
X12383928Y-14008929D01*
X12398214Y-13994643D01*
X12412500Y-13966071D01*
X12412500Y-13894643D01*
X12398214Y-13866071D01*
X12383928Y-13851786D01*
X12355357Y-13837500D01*
X12298214Y-13837500D01*
X12269643Y-13851786D01*
X12255357Y-13866071D01*
X12241071Y-13894643D01*
X12526786Y-13723214D02*
X12526786Y-13780357D01*
X12641071Y-13723214D02*
X12641071Y-13780357D01*
X13083928Y-14137500D02*
X13069643Y-14123214D01*
X13041071Y-14080357D01*
X13026786Y-14051786D01*
X13012500Y-14008929D01*
X12998214Y-13937500D01*
X12998214Y-13880357D01*
X13012500Y-13808929D01*
X13026786Y-13766071D01*
X13041071Y-13737500D01*
X13069643Y-13694643D01*
X13083928Y-13680357D01*
X13355357Y-14023214D02*
X13183928Y-14023214D01*
X13269643Y-14023214D02*
X13269643Y-13723214D01*
X13241071Y-13766071D01*
X13212500Y-13794643D01*
X13183928Y-13808929D01*
X13612500Y-13723214D02*
X13555357Y-13723214D01*
X13526786Y-13737500D01*
X13512500Y-13751786D01*
X13483928Y-13794643D01*
X13469643Y-13851786D01*
X13469643Y-13966071D01*
X13483928Y-13994643D01*
X13498214Y-14008929D01*
X13526786Y-14023214D01*
X13583928Y-14023214D01*
X13612500Y-14008929D01*
X13626786Y-13994643D01*
X13641071Y-13966071D01*
X13641071Y-13894643D01*
X13626786Y-13866071D01*
X13612500Y-13851786D01*
X13583928Y-13837500D01*
X13526786Y-13837500D01*
X13498214Y-13851786D01*
X13483928Y-13866071D01*
X13469643Y-13894643D01*
X13755357Y-13751786D02*
X13769643Y-13737500D01*
X13798214Y-13723214D01*
X13869643Y-13723214D01*
X13898214Y-13737500D01*
X13912500Y-13751786D01*
X13926786Y-13780357D01*
X13926786Y-13808929D01*
X13912500Y-13851786D01*
X13741071Y-14023214D01*
X13926786Y-14023214D01*
X14283928Y-14023214D02*
X14283928Y-13723214D01*
X14412500Y-14023214D02*
X14412500Y-13866071D01*
X14398214Y-13837500D01*
X14369643Y-13823214D01*
X14326786Y-13823214D01*
X14298214Y-13837500D01*
X14283928Y-13851786D01*
X14598214Y-14023214D02*
X14569643Y-14008929D01*
X14555357Y-13994643D01*
X14541071Y-13966071D01*
X14541071Y-13880357D01*
X14555357Y-13851786D01*
X14569643Y-13837500D01*
X14598214Y-13823214D01*
X14641071Y-13823214D01*
X14669643Y-13837500D01*
X14683928Y-13851786D01*
X14698214Y-13880357D01*
X14698214Y-13966071D01*
X14683928Y-13994643D01*
X14669643Y-14008929D01*
X14641071Y-14023214D01*
X14598214Y-14023214D01*
X14869643Y-14023214D02*
X14841071Y-14008929D01*
X14826786Y-13980357D01*
X14826786Y-13723214D01*
X15098214Y-14008929D02*
X15069643Y-14023214D01*
X15012500Y-14023214D01*
X14983928Y-14008929D01*
X14969643Y-13980357D01*
X14969643Y-13866071D01*
X14983928Y-13837500D01*
X15012500Y-13823214D01*
X15069643Y-13823214D01*
X15098214Y-13837500D01*
X15112500Y-13866071D01*
X15112500Y-13894643D01*
X14969643Y-13923214D01*
X15226786Y-14008929D02*
X15255357Y-14023214D01*
X15312500Y-14023214D01*
X15341071Y-14008929D01*
X15355357Y-13980357D01*
X15355357Y-13966071D01*
X15341071Y-13937500D01*
X15312500Y-13923214D01*
X15269643Y-13923214D01*
X15241071Y-13908929D01*
X15226786Y-13880357D01*
X15226786Y-13866071D01*
X15241071Y-13837500D01*
X15269643Y-13823214D01*
X15312500Y-13823214D01*
X15341071Y-13837500D01*
X15455357Y-14137500D02*
X15469643Y-14123214D01*
X15498214Y-14080357D01*
X15512500Y-14051786D01*
X15526786Y-14008929D01*
X15541071Y-13937500D01*
X15541071Y-13880357D01*
X15526786Y-13808929D01*
X15512500Y-13766071D01*
X15498214Y-13737500D01*
X15469643Y-13694643D01*
X15455357Y-13680357D01*
X8397500Y-14283500D02*
G75*
G03X8397500Y-14283500I-40000J0D01*
G01*
X8741071Y-14119214D02*
X8769643Y-14119214D01*
X8798214Y-14133500D01*
X8812500Y-14147786D01*
X8826786Y-14176357D01*
X8841071Y-14233500D01*
X8841071Y-14304929D01*
X8826786Y-14362071D01*
X8812500Y-14390643D01*
X8798214Y-14404929D01*
X8769643Y-14419214D01*
X8741071Y-14419214D01*
X8712500Y-14404929D01*
X8698214Y-14390643D01*
X8683928Y-14362071D01*
X8669643Y-14304929D01*
X8669643Y-14233500D01*
X8683928Y-14176357D01*
X8698214Y-14147786D01*
X8712500Y-14133500D01*
X8741071Y-14119214D01*
X8969643Y-14390643D02*
X8983928Y-14404929D01*
X8969643Y-14419214D01*
X8955357Y-14404929D01*
X8969643Y-14390643D01*
X8969643Y-14419214D01*
X9155357Y-14247786D02*
X9126786Y-14233500D01*
X9112500Y-14219214D01*
X9098214Y-14190643D01*
X9098214Y-14176357D01*
X9112500Y-14147786D01*
X9126786Y-14133500D01*
X9155357Y-14119214D01*
X9212500Y-14119214D01*
X9241071Y-14133500D01*
X9255357Y-14147786D01*
X9269643Y-14176357D01*
X9269643Y-14190643D01*
X9255357Y-14219214D01*
X9241071Y-14233500D01*
X9212500Y-14247786D01*
X9155357Y-14247786D01*
X9126786Y-14262071D01*
X9112500Y-14276357D01*
X9098214Y-14304929D01*
X9098214Y-14362071D01*
X9112500Y-14390643D01*
X9126786Y-14404929D01*
X9155357Y-14419214D01*
X9212500Y-14419214D01*
X9241071Y-14404929D01*
X9255357Y-14390643D01*
X9269643Y-14362071D01*
X9269643Y-14304929D01*
X9255357Y-14276357D01*
X9241071Y-14262071D01*
X9212500Y-14247786D01*
X9455357Y-14119214D02*
X9483928Y-14119214D01*
X9512500Y-14133500D01*
X9526786Y-14147786D01*
X9541071Y-14176357D01*
X9555357Y-14233500D01*
X9555357Y-14304929D01*
X9541071Y-14362071D01*
X9526786Y-14390643D01*
X9512500Y-14404929D01*
X9483928Y-14419214D01*
X9455357Y-14419214D01*
X9426786Y-14404929D01*
X9412500Y-14390643D01*
X9398214Y-14362071D01*
X9383928Y-14304929D01*
X9383928Y-14233500D01*
X9398214Y-14176357D01*
X9412500Y-14147786D01*
X9426786Y-14133500D01*
X9455357Y-14119214D01*
X9683928Y-14419214D02*
X9683928Y-14219214D01*
X9683928Y-14247786D02*
X9698214Y-14233500D01*
X9726786Y-14219214D01*
X9769643Y-14219214D01*
X9798214Y-14233500D01*
X9812500Y-14262071D01*
X9812500Y-14419214D01*
X9812500Y-14262071D02*
X9826786Y-14233500D01*
X9855357Y-14219214D01*
X9898214Y-14219214D01*
X9926786Y-14233500D01*
X9941071Y-14262071D01*
X9941071Y-14419214D01*
X10083928Y-14419214D02*
X10083928Y-14219214D01*
X10083928Y-14247786D02*
X10098214Y-14233500D01*
X10126786Y-14219214D01*
X10169643Y-14219214D01*
X10198214Y-14233500D01*
X10212500Y-14262071D01*
X10212500Y-14419214D01*
X10212500Y-14262071D02*
X10226786Y-14233500D01*
X10255357Y-14219214D01*
X10298214Y-14219214D01*
X10326786Y-14233500D01*
X10341071Y-14262071D01*
X10341071Y-14419214D01*
X10926786Y-14104929D02*
X10669643Y-14490643D01*
X11312500Y-14119214D02*
X11341071Y-14119214D01*
X11369643Y-14133500D01*
X11383928Y-14147786D01*
X11398214Y-14176357D01*
X11412500Y-14233500D01*
X11412500Y-14304929D01*
X11398214Y-14362071D01*
X11383928Y-14390643D01*
X11369643Y-14404929D01*
X11341071Y-14419214D01*
X11312500Y-14419214D01*
X11283928Y-14404929D01*
X11269643Y-14390643D01*
X11255357Y-14362071D01*
X11241071Y-14304929D01*
X11241071Y-14233500D01*
X11255357Y-14176357D01*
X11269643Y-14147786D01*
X11283928Y-14133500D01*
X11312500Y-14119214D01*
X11541071Y-14390643D02*
X11555357Y-14404929D01*
X11541071Y-14419214D01*
X11526786Y-14404929D01*
X11541071Y-14390643D01*
X11541071Y-14419214D01*
X11741071Y-14119214D02*
X11769643Y-14119214D01*
X11798214Y-14133500D01*
X11812500Y-14147786D01*
X11826786Y-14176357D01*
X11841071Y-14233500D01*
X11841071Y-14304929D01*
X11826786Y-14362071D01*
X11812500Y-14390643D01*
X11798214Y-14404929D01*
X11769643Y-14419214D01*
X11741071Y-14419214D01*
X11712500Y-14404929D01*
X11698214Y-14390643D01*
X11683928Y-14362071D01*
X11669643Y-14304929D01*
X11669643Y-14233500D01*
X11683928Y-14176357D01*
X11698214Y-14147786D01*
X11712500Y-14133500D01*
X11741071Y-14119214D01*
X11941071Y-14119214D02*
X12126786Y-14119214D01*
X12026786Y-14233500D01*
X12069643Y-14233500D01*
X12098214Y-14247786D01*
X12112500Y-14262071D01*
X12126786Y-14290643D01*
X12126786Y-14362071D01*
X12112500Y-14390643D01*
X12098214Y-14404929D01*
X12069643Y-14419214D01*
X11983928Y-14419214D01*
X11955357Y-14404929D01*
X11941071Y-14390643D01*
X12412500Y-14419214D02*
X12241071Y-14419214D01*
X12326786Y-14419214D02*
X12326786Y-14119214D01*
X12298214Y-14162071D01*
X12269643Y-14190643D01*
X12241071Y-14204929D01*
X12526786Y-14119214D02*
X12526786Y-14176357D01*
X12641071Y-14119214D02*
X12641071Y-14176357D01*
X13083928Y-14533500D02*
X13069643Y-14519214D01*
X13041071Y-14476357D01*
X13026786Y-14447786D01*
X13012500Y-14404929D01*
X12998214Y-14333500D01*
X12998214Y-14276357D01*
X13012500Y-14204929D01*
X13026786Y-14162071D01*
X13041071Y-14133500D01*
X13069643Y-14090643D01*
X13083928Y-14076357D01*
X13355357Y-14419214D02*
X13183928Y-14419214D01*
X13269643Y-14419214D02*
X13269643Y-14119214D01*
X13241071Y-14162071D01*
X13212500Y-14190643D01*
X13183928Y-14204929D01*
X13612500Y-14119214D02*
X13555357Y-14119214D01*
X13526786Y-14133500D01*
X13512500Y-14147786D01*
X13483928Y-14190643D01*
X13469643Y-14247786D01*
X13469643Y-14362071D01*
X13483928Y-14390643D01*
X13498214Y-14404929D01*
X13526786Y-14419214D01*
X13583928Y-14419214D01*
X13612500Y-14404929D01*
X13626786Y-14390643D01*
X13641071Y-14362071D01*
X13641071Y-14290643D01*
X13626786Y-14262071D01*
X13612500Y-14247786D01*
X13583928Y-14233500D01*
X13526786Y-14233500D01*
X13498214Y-14247786D01*
X13483928Y-14262071D01*
X13469643Y-14290643D01*
X13826786Y-14119214D02*
X13855357Y-14119214D01*
X13883928Y-14133500D01*
X13898214Y-14147786D01*
X13912500Y-14176357D01*
X13926786Y-14233500D01*
X13926786Y-14304929D01*
X13912500Y-14362071D01*
X13898214Y-14390643D01*
X13883928Y-14404929D01*
X13855357Y-14419214D01*
X13826786Y-14419214D01*
X13798214Y-14404929D01*
X13783928Y-14390643D01*
X13769643Y-14362071D01*
X13755357Y-14304929D01*
X13755357Y-14233500D01*
X13769643Y-14176357D01*
X13783928Y-14147786D01*
X13798214Y-14133500D01*
X13826786Y-14119214D01*
X14283928Y-14419214D02*
X14283928Y-14119214D01*
X14412500Y-14419214D02*
X14412500Y-14262071D01*
X14398214Y-14233500D01*
X14369643Y-14219214D01*
X14326786Y-14219214D01*
X14298214Y-14233500D01*
X14283928Y-14247786D01*
X14598214Y-14419214D02*
X14569643Y-14404929D01*
X14555357Y-14390643D01*
X14541071Y-14362071D01*
X14541071Y-14276357D01*
X14555357Y-14247786D01*
X14569643Y-14233500D01*
X14598214Y-14219214D01*
X14641071Y-14219214D01*
X14669643Y-14233500D01*
X14683928Y-14247786D01*
X14698214Y-14276357D01*
X14698214Y-14362071D01*
X14683928Y-14390643D01*
X14669643Y-14404929D01*
X14641071Y-14419214D01*
X14598214Y-14419214D01*
X14869643Y-14419214D02*
X14841071Y-14404929D01*
X14826786Y-14376357D01*
X14826786Y-14119214D01*
X15098214Y-14404929D02*
X15069643Y-14419214D01*
X15012500Y-14419214D01*
X14983928Y-14404929D01*
X14969643Y-14376357D01*
X14969643Y-14262071D01*
X14983928Y-14233500D01*
X15012500Y-14219214D01*
X15069643Y-14219214D01*
X15098214Y-14233500D01*
X15112500Y-14262071D01*
X15112500Y-14290643D01*
X14969643Y-14319214D01*
X15226786Y-14404929D02*
X15255357Y-14419214D01*
X15312500Y-14419214D01*
X15341071Y-14404929D01*
X15355357Y-14376357D01*
X15355357Y-14362071D01*
X15341071Y-14333500D01*
X15312500Y-14319214D01*
X15269643Y-14319214D01*
X15241071Y-14304929D01*
X15226786Y-14276357D01*
X15226786Y-14262071D01*
X15241071Y-14233500D01*
X15269643Y-14219214D01*
X15312500Y-14219214D01*
X15341071Y-14233500D01*
X15455357Y-14533500D02*
X15469643Y-14519214D01*
X15498214Y-14476357D01*
X15512500Y-14447786D01*
X15526786Y-14404929D01*
X15541071Y-14333500D01*
X15541071Y-14276357D01*
X15526786Y-14204929D01*
X15512500Y-14162071D01*
X15498214Y-14133500D01*
X15469643Y-14090643D01*
X15455357Y-14076357D01*
X8347500Y-14629500D02*
X8347500Y-14729500D01*
X8297500Y-14679500D02*
X8397500Y-14679500D01*
X8841071Y-14815214D02*
X8669643Y-14815214D01*
X8755357Y-14815214D02*
X8755357Y-14515214D01*
X8726786Y-14558071D01*
X8698214Y-14586643D01*
X8669643Y-14600929D01*
X8969643Y-14786643D02*
X8983928Y-14800929D01*
X8969643Y-14815214D01*
X8955357Y-14800929D01*
X8969643Y-14786643D01*
X8969643Y-14815214D01*
X9169643Y-14515214D02*
X9198214Y-14515214D01*
X9226786Y-14529500D01*
X9241071Y-14543786D01*
X9255357Y-14572357D01*
X9269643Y-14629500D01*
X9269643Y-14700929D01*
X9255357Y-14758071D01*
X9241071Y-14786643D01*
X9226786Y-14800929D01*
X9198214Y-14815214D01*
X9169643Y-14815214D01*
X9141071Y-14800929D01*
X9126786Y-14786643D01*
X9112500Y-14758071D01*
X9098214Y-14700929D01*
X9098214Y-14629500D01*
X9112500Y-14572357D01*
X9126786Y-14543786D01*
X9141071Y-14529500D01*
X9169643Y-14515214D01*
X9455357Y-14515214D02*
X9483928Y-14515214D01*
X9512500Y-14529500D01*
X9526786Y-14543786D01*
X9541071Y-14572357D01*
X9555357Y-14629500D01*
X9555357Y-14700929D01*
X9541071Y-14758071D01*
X9526786Y-14786643D01*
X9512500Y-14800929D01*
X9483928Y-14815214D01*
X9455357Y-14815214D01*
X9426786Y-14800929D01*
X9412500Y-14786643D01*
X9398214Y-14758071D01*
X9383928Y-14700929D01*
X9383928Y-14629500D01*
X9398214Y-14572357D01*
X9412500Y-14543786D01*
X9426786Y-14529500D01*
X9455357Y-14515214D01*
X9683928Y-14815214D02*
X9683928Y-14615214D01*
X9683928Y-14643786D02*
X9698214Y-14629500D01*
X9726786Y-14615214D01*
X9769643Y-14615214D01*
X9798214Y-14629500D01*
X9812500Y-14658071D01*
X9812500Y-14815214D01*
X9812500Y-14658071D02*
X9826786Y-14629500D01*
X9855357Y-14615214D01*
X9898214Y-14615214D01*
X9926786Y-14629500D01*
X9941071Y-14658071D01*
X9941071Y-14815214D01*
X10083928Y-14815214D02*
X10083928Y-14615214D01*
X10083928Y-14643786D02*
X10098214Y-14629500D01*
X10126786Y-14615214D01*
X10169643Y-14615214D01*
X10198214Y-14629500D01*
X10212500Y-14658071D01*
X10212500Y-14815214D01*
X10212500Y-14658071D02*
X10226786Y-14629500D01*
X10255357Y-14615214D01*
X10298214Y-14615214D01*
X10326786Y-14629500D01*
X10341071Y-14658071D01*
X10341071Y-14815214D01*
X10926786Y-14500929D02*
X10669643Y-14886643D01*
X11312500Y-14515214D02*
X11341071Y-14515214D01*
X11369643Y-14529500D01*
X11383928Y-14543786D01*
X11398214Y-14572357D01*
X11412500Y-14629500D01*
X11412500Y-14700929D01*
X11398214Y-14758071D01*
X11383928Y-14786643D01*
X11369643Y-14800929D01*
X11341071Y-14815214D01*
X11312500Y-14815214D01*
X11283928Y-14800929D01*
X11269643Y-14786643D01*
X11255357Y-14758071D01*
X11241071Y-14700929D01*
X11241071Y-14629500D01*
X11255357Y-14572357D01*
X11269643Y-14543786D01*
X11283928Y-14529500D01*
X11312500Y-14515214D01*
X11541071Y-14786643D02*
X11555357Y-14800929D01*
X11541071Y-14815214D01*
X11526786Y-14800929D01*
X11541071Y-14786643D01*
X11541071Y-14815214D01*
X11741071Y-14515214D02*
X11769643Y-14515214D01*
X11798214Y-14529500D01*
X11812500Y-14543786D01*
X11826786Y-14572357D01*
X11841071Y-14629500D01*
X11841071Y-14700929D01*
X11826786Y-14758071D01*
X11812500Y-14786643D01*
X11798214Y-14800929D01*
X11769643Y-14815214D01*
X11741071Y-14815214D01*
X11712500Y-14800929D01*
X11698214Y-14786643D01*
X11683928Y-14758071D01*
X11669643Y-14700929D01*
X11669643Y-14629500D01*
X11683928Y-14572357D01*
X11698214Y-14543786D01*
X11712500Y-14529500D01*
X11741071Y-14515214D01*
X11941071Y-14515214D02*
X12126786Y-14515214D01*
X12026786Y-14629500D01*
X12069643Y-14629500D01*
X12098214Y-14643786D01*
X12112500Y-14658071D01*
X12126786Y-14686643D01*
X12126786Y-14758071D01*
X12112500Y-14786643D01*
X12098214Y-14800929D01*
X12069643Y-14815214D01*
X11983928Y-14815214D01*
X11955357Y-14800929D01*
X11941071Y-14786643D01*
X12269643Y-14815214D02*
X12326786Y-14815214D01*
X12355357Y-14800929D01*
X12369643Y-14786643D01*
X12398214Y-14743786D01*
X12412500Y-14686643D01*
X12412500Y-14572357D01*
X12398214Y-14543786D01*
X12383928Y-14529500D01*
X12355357Y-14515214D01*
X12298214Y-14515214D01*
X12269643Y-14529500D01*
X12255357Y-14543786D01*
X12241071Y-14572357D01*
X12241071Y-14643786D01*
X12255357Y-14672357D01*
X12269643Y-14686643D01*
X12298214Y-14700929D01*
X12355357Y-14700929D01*
X12383928Y-14686643D01*
X12398214Y-14672357D01*
X12412500Y-14643786D01*
X12526786Y-14515214D02*
X12526786Y-14572357D01*
X12641071Y-14515214D02*
X12641071Y-14572357D01*
X13083928Y-14929500D02*
X13069643Y-14915214D01*
X13041071Y-14872357D01*
X13026786Y-14843786D01*
X13012500Y-14800929D01*
X12998214Y-14729500D01*
X12998214Y-14672357D01*
X13012500Y-14600929D01*
X13026786Y-14558071D01*
X13041071Y-14529500D01*
X13069643Y-14486643D01*
X13083928Y-14472357D01*
X13183928Y-14543786D02*
X13198214Y-14529500D01*
X13226786Y-14515214D01*
X13298214Y-14515214D01*
X13326786Y-14529500D01*
X13341071Y-14543786D01*
X13355357Y-14572357D01*
X13355357Y-14600929D01*
X13341071Y-14643786D01*
X13169643Y-14815214D01*
X13355357Y-14815214D01*
X13712500Y-14815214D02*
X13712500Y-14515214D01*
X13841071Y-14815214D02*
X13841071Y-14658071D01*
X13826786Y-14629500D01*
X13798214Y-14615214D01*
X13755357Y-14615214D01*
X13726786Y-14629500D01*
X13712500Y-14643786D01*
X14026786Y-14815214D02*
X13998214Y-14800929D01*
X13983928Y-14786643D01*
X13969643Y-14758071D01*
X13969643Y-14672357D01*
X13983928Y-14643786D01*
X13998214Y-14629500D01*
X14026786Y-14615214D01*
X14069643Y-14615214D01*
X14098214Y-14629500D01*
X14112500Y-14643786D01*
X14126786Y-14672357D01*
X14126786Y-14758071D01*
X14112500Y-14786643D01*
X14098214Y-14800929D01*
X14069643Y-14815214D01*
X14026786Y-14815214D01*
X14298214Y-14815214D02*
X14269643Y-14800929D01*
X14255357Y-14772357D01*
X14255357Y-14515214D01*
X14526786Y-14800929D02*
X14498214Y-14815214D01*
X14441071Y-14815214D01*
X14412500Y-14800929D01*
X14398214Y-14772357D01*
X14398214Y-14658071D01*
X14412500Y-14629500D01*
X14441071Y-14615214D01*
X14498214Y-14615214D01*
X14526786Y-14629500D01*
X14541071Y-14658071D01*
X14541071Y-14686643D01*
X14398214Y-14715214D01*
X14655357Y-14800929D02*
X14683928Y-14815214D01*
X14741071Y-14815214D01*
X14769643Y-14800929D01*
X14783928Y-14772357D01*
X14783928Y-14758071D01*
X14769643Y-14729500D01*
X14741071Y-14715214D01*
X14698214Y-14715214D01*
X14669643Y-14700929D01*
X14655357Y-14672357D01*
X14655357Y-14658071D01*
X14669643Y-14629500D01*
X14698214Y-14615214D01*
X14741071Y-14615214D01*
X14769643Y-14629500D01*
X14883928Y-14929500D02*
X14898214Y-14915214D01*
X14926786Y-14872357D01*
X14941071Y-14843786D01*
X14955357Y-14800929D01*
X14969643Y-14729500D01*
X14969643Y-14672357D01*
X14955357Y-14600929D01*
X14941071Y-14558071D01*
X14926786Y-14529500D01*
X14898214Y-14486643D01*
X14883928Y-14472357D01*
X8382621Y-15111421D02*
X8382621Y-15039579D01*
X8310778Y-15039579D01*
X8310778Y-15111421D01*
X8382621Y-15111421D01*
X8841071Y-15211214D02*
X8669643Y-15211214D01*
X8755357Y-15211214D02*
X8755357Y-14911214D01*
X8726786Y-14954071D01*
X8698214Y-14982643D01*
X8669643Y-14996929D01*
X8969643Y-15182643D02*
X8983928Y-15196929D01*
X8969643Y-15211214D01*
X8955357Y-15196929D01*
X8969643Y-15182643D01*
X8969643Y-15211214D01*
X9169643Y-14911214D02*
X9198214Y-14911214D01*
X9226786Y-14925500D01*
X9241071Y-14939786D01*
X9255357Y-14968357D01*
X9269643Y-15025500D01*
X9269643Y-15096929D01*
X9255357Y-15154071D01*
X9241071Y-15182643D01*
X9226786Y-15196929D01*
X9198214Y-15211214D01*
X9169643Y-15211214D01*
X9141071Y-15196929D01*
X9126786Y-15182643D01*
X9112500Y-15154071D01*
X9098214Y-15096929D01*
X9098214Y-15025500D01*
X9112500Y-14968357D01*
X9126786Y-14939786D01*
X9141071Y-14925500D01*
X9169643Y-14911214D01*
X9383928Y-14939786D02*
X9398214Y-14925500D01*
X9426786Y-14911214D01*
X9498214Y-14911214D01*
X9526786Y-14925500D01*
X9541071Y-14939786D01*
X9555357Y-14968357D01*
X9555357Y-14996929D01*
X9541071Y-15039786D01*
X9369643Y-15211214D01*
X9555357Y-15211214D01*
X9683928Y-15211214D02*
X9683928Y-15011214D01*
X9683928Y-15039786D02*
X9698214Y-15025500D01*
X9726786Y-15011214D01*
X9769643Y-15011214D01*
X9798214Y-15025500D01*
X9812500Y-15054071D01*
X9812500Y-15211214D01*
X9812500Y-15054071D02*
X9826786Y-15025500D01*
X9855357Y-15011214D01*
X9898214Y-15011214D01*
X9926786Y-15025500D01*
X9941071Y-15054071D01*
X9941071Y-15211214D01*
X10083928Y-15211214D02*
X10083928Y-15011214D01*
X10083928Y-15039786D02*
X10098214Y-15025500D01*
X10126786Y-15011214D01*
X10169643Y-15011214D01*
X10198214Y-15025500D01*
X10212500Y-15054071D01*
X10212500Y-15211214D01*
X10212500Y-15054071D02*
X10226786Y-15025500D01*
X10255357Y-15011214D01*
X10298214Y-15011214D01*
X10326786Y-15025500D01*
X10341071Y-15054071D01*
X10341071Y-15211214D01*
X10926786Y-14896929D02*
X10669643Y-15282643D01*
X11312500Y-14911214D02*
X11341071Y-14911214D01*
X11369643Y-14925500D01*
X11383928Y-14939786D01*
X11398214Y-14968357D01*
X11412500Y-15025500D01*
X11412500Y-15096929D01*
X11398214Y-15154071D01*
X11383928Y-15182643D01*
X11369643Y-15196929D01*
X11341071Y-15211214D01*
X11312500Y-15211214D01*
X11283928Y-15196929D01*
X11269643Y-15182643D01*
X11255357Y-15154071D01*
X11241071Y-15096929D01*
X11241071Y-15025500D01*
X11255357Y-14968357D01*
X11269643Y-14939786D01*
X11283928Y-14925500D01*
X11312500Y-14911214D01*
X11541071Y-15182643D02*
X11555357Y-15196929D01*
X11541071Y-15211214D01*
X11526786Y-15196929D01*
X11541071Y-15182643D01*
X11541071Y-15211214D01*
X11741071Y-14911214D02*
X11769643Y-14911214D01*
X11798214Y-14925500D01*
X11812500Y-14939786D01*
X11826786Y-14968357D01*
X11841071Y-15025500D01*
X11841071Y-15096929D01*
X11826786Y-15154071D01*
X11812500Y-15182643D01*
X11798214Y-15196929D01*
X11769643Y-15211214D01*
X11741071Y-15211214D01*
X11712500Y-15196929D01*
X11698214Y-15182643D01*
X11683928Y-15154071D01*
X11669643Y-15096929D01*
X11669643Y-15025500D01*
X11683928Y-14968357D01*
X11698214Y-14939786D01*
X11712500Y-14925500D01*
X11741071Y-14911214D01*
X12098214Y-15011214D02*
X12098214Y-15211214D01*
X12026786Y-14896929D02*
X11955357Y-15111214D01*
X12141071Y-15111214D01*
X12312500Y-14911214D02*
X12341071Y-14911214D01*
X12369643Y-14925500D01*
X12383928Y-14939786D01*
X12398214Y-14968357D01*
X12412500Y-15025500D01*
X12412500Y-15096929D01*
X12398214Y-15154071D01*
X12383928Y-15182643D01*
X12369643Y-15196929D01*
X12341071Y-15211214D01*
X12312500Y-15211214D01*
X12283928Y-15196929D01*
X12269643Y-15182643D01*
X12255357Y-15154071D01*
X12241071Y-15096929D01*
X12241071Y-15025500D01*
X12255357Y-14968357D01*
X12269643Y-14939786D01*
X12283928Y-14925500D01*
X12312500Y-14911214D01*
X12526786Y-14911214D02*
X12526786Y-14968357D01*
X12641071Y-14911214D02*
X12641071Y-14968357D01*
X13083928Y-15325500D02*
X13069643Y-15311214D01*
X13041071Y-15268357D01*
X13026786Y-15239786D01*
X13012500Y-15196929D01*
X12998214Y-15125500D01*
X12998214Y-15068357D01*
X13012500Y-14996929D01*
X13026786Y-14954071D01*
X13041071Y-14925500D01*
X13069643Y-14882643D01*
X13083928Y-14868357D01*
X13169643Y-14911214D02*
X13355357Y-14911214D01*
X13255357Y-15025500D01*
X13298214Y-15025500D01*
X13326786Y-15039786D01*
X13341071Y-15054071D01*
X13355357Y-15082643D01*
X13355357Y-15154071D01*
X13341071Y-15182643D01*
X13326786Y-15196929D01*
X13298214Y-15211214D01*
X13212500Y-15211214D01*
X13183928Y-15196929D01*
X13169643Y-15182643D01*
X13612500Y-14911214D02*
X13555357Y-14911214D01*
X13526786Y-14925500D01*
X13512500Y-14939786D01*
X13483928Y-14982643D01*
X13469643Y-15039786D01*
X13469643Y-15154071D01*
X13483928Y-15182643D01*
X13498214Y-15196929D01*
X13526786Y-15211214D01*
X13583928Y-15211214D01*
X13612500Y-15196929D01*
X13626786Y-15182643D01*
X13641071Y-15154071D01*
X13641071Y-15082643D01*
X13626786Y-15054071D01*
X13612500Y-15039786D01*
X13583928Y-15025500D01*
X13526786Y-15025500D01*
X13498214Y-15039786D01*
X13483928Y-15054071D01*
X13469643Y-15082643D01*
X13998214Y-15211214D02*
X13998214Y-14911214D01*
X14126786Y-15211214D02*
X14126786Y-15054071D01*
X14112500Y-15025500D01*
X14083928Y-15011214D01*
X14041071Y-15011214D01*
X14012500Y-15025500D01*
X13998214Y-15039786D01*
X14312500Y-15211214D02*
X14283928Y-15196929D01*
X14269643Y-15182643D01*
X14255357Y-15154071D01*
X14255357Y-15068357D01*
X14269643Y-15039786D01*
X14283928Y-15025500D01*
X14312500Y-15011214D01*
X14355357Y-15011214D01*
X14383928Y-15025500D01*
X14398214Y-15039786D01*
X14412500Y-15068357D01*
X14412500Y-15154071D01*
X14398214Y-15182643D01*
X14383928Y-15196929D01*
X14355357Y-15211214D01*
X14312500Y-15211214D01*
X14583928Y-15211214D02*
X14555357Y-15196929D01*
X14541071Y-15168357D01*
X14541071Y-14911214D01*
X14812500Y-15196929D02*
X14783928Y-15211214D01*
X14726786Y-15211214D01*
X14698214Y-15196929D01*
X14683928Y-15168357D01*
X14683928Y-15054071D01*
X14698214Y-15025500D01*
X14726786Y-15011214D01*
X14783928Y-15011214D01*
X14812500Y-15025500D01*
X14826786Y-15054071D01*
X14826786Y-15082643D01*
X14683928Y-15111214D01*
X14941071Y-15196929D02*
X14969643Y-15211214D01*
X15026786Y-15211214D01*
X15055357Y-15196929D01*
X15069643Y-15168357D01*
X15069643Y-15154071D01*
X15055357Y-15125500D01*
X15026786Y-15111214D01*
X14983928Y-15111214D01*
X14955357Y-15096929D01*
X14941071Y-15068357D01*
X14941071Y-15054071D01*
X14955357Y-15025500D01*
X14983928Y-15011214D01*
X15026786Y-15011214D01*
X15055357Y-15025500D01*
X15169643Y-15325500D02*
X15183928Y-15311214D01*
X15212500Y-15268357D01*
X15226786Y-15239786D01*
X15241071Y-15196929D01*
X15255357Y-15125500D01*
X15255357Y-15068357D01*
X15241071Y-14996929D01*
X15226786Y-14954071D01*
X15212500Y-14925500D01*
X15183928Y-14882643D01*
X15169643Y-14868357D01*
X8321500Y-15547500D02*
X8397500Y-15471500D01*
X8321500Y-15395500D01*
X8245500Y-15471500D01*
X8321500Y-15547500D01*
X8841071Y-15607214D02*
X8669643Y-15607214D01*
X8755357Y-15607214D02*
X8755357Y-15307214D01*
X8726786Y-15350071D01*
X8698214Y-15378643D01*
X8669643Y-15392929D01*
X8969643Y-15578643D02*
X8983928Y-15592929D01*
X8969643Y-15607214D01*
X8955357Y-15592929D01*
X8969643Y-15578643D01*
X8969643Y-15607214D01*
X9255357Y-15307214D02*
X9112500Y-15307214D01*
X9098214Y-15450071D01*
X9112500Y-15435786D01*
X9141071Y-15421500D01*
X9212500Y-15421500D01*
X9241071Y-15435786D01*
X9255357Y-15450071D01*
X9269643Y-15478643D01*
X9269643Y-15550071D01*
X9255357Y-15578643D01*
X9241071Y-15592929D01*
X9212500Y-15607214D01*
X9141071Y-15607214D01*
X9112500Y-15592929D01*
X9098214Y-15578643D01*
X9383928Y-15335786D02*
X9398214Y-15321500D01*
X9426786Y-15307214D01*
X9498214Y-15307214D01*
X9526786Y-15321500D01*
X9541071Y-15335786D01*
X9555357Y-15364357D01*
X9555357Y-15392929D01*
X9541071Y-15435786D01*
X9369643Y-15607214D01*
X9555357Y-15607214D01*
X9683928Y-15607214D02*
X9683928Y-15407214D01*
X9683928Y-15435786D02*
X9698214Y-15421500D01*
X9726786Y-15407214D01*
X9769643Y-15407214D01*
X9798214Y-15421500D01*
X9812500Y-15450071D01*
X9812500Y-15607214D01*
X9812500Y-15450071D02*
X9826786Y-15421500D01*
X9855357Y-15407214D01*
X9898214Y-15407214D01*
X9926786Y-15421500D01*
X9941071Y-15450071D01*
X9941071Y-15607214D01*
X10083928Y-15607214D02*
X10083928Y-15407214D01*
X10083928Y-15435786D02*
X10098214Y-15421500D01*
X10126786Y-15407214D01*
X10169643Y-15407214D01*
X10198214Y-15421500D01*
X10212500Y-15450071D01*
X10212500Y-15607214D01*
X10212500Y-15450071D02*
X10226786Y-15421500D01*
X10255357Y-15407214D01*
X10298214Y-15407214D01*
X10326786Y-15421500D01*
X10341071Y-15450071D01*
X10341071Y-15607214D01*
X10926786Y-15292929D02*
X10669643Y-15678643D01*
X11312500Y-15307214D02*
X11341071Y-15307214D01*
X11369643Y-15321500D01*
X11383928Y-15335786D01*
X11398214Y-15364357D01*
X11412500Y-15421500D01*
X11412500Y-15492929D01*
X11398214Y-15550071D01*
X11383928Y-15578643D01*
X11369643Y-15592929D01*
X11341071Y-15607214D01*
X11312500Y-15607214D01*
X11283928Y-15592929D01*
X11269643Y-15578643D01*
X11255357Y-15550071D01*
X11241071Y-15492929D01*
X11241071Y-15421500D01*
X11255357Y-15364357D01*
X11269643Y-15335786D01*
X11283928Y-15321500D01*
X11312500Y-15307214D01*
X11541071Y-15578643D02*
X11555357Y-15592929D01*
X11541071Y-15607214D01*
X11526786Y-15592929D01*
X11541071Y-15578643D01*
X11541071Y-15607214D01*
X11741071Y-15307214D02*
X11769643Y-15307214D01*
X11798214Y-15321500D01*
X11812500Y-15335786D01*
X11826786Y-15364357D01*
X11841071Y-15421500D01*
X11841071Y-15492929D01*
X11826786Y-15550071D01*
X11812500Y-15578643D01*
X11798214Y-15592929D01*
X11769643Y-15607214D01*
X11741071Y-15607214D01*
X11712500Y-15592929D01*
X11698214Y-15578643D01*
X11683928Y-15550071D01*
X11669643Y-15492929D01*
X11669643Y-15421500D01*
X11683928Y-15364357D01*
X11698214Y-15335786D01*
X11712500Y-15321500D01*
X11741071Y-15307214D01*
X12098214Y-15307214D02*
X12041071Y-15307214D01*
X12012500Y-15321500D01*
X11998214Y-15335786D01*
X11969643Y-15378643D01*
X11955357Y-15435786D01*
X11955357Y-15550071D01*
X11969643Y-15578643D01*
X11983928Y-15592929D01*
X12012500Y-15607214D01*
X12069643Y-15607214D01*
X12098214Y-15592929D01*
X12112500Y-15578643D01*
X12126786Y-15550071D01*
X12126786Y-15478643D01*
X12112500Y-15450071D01*
X12098214Y-15435786D01*
X12069643Y-15421500D01*
X12012500Y-15421500D01*
X11983928Y-15435786D01*
X11969643Y-15450071D01*
X11955357Y-15478643D01*
X12312500Y-15307214D02*
X12341071Y-15307214D01*
X12369643Y-15321500D01*
X12383928Y-15335786D01*
X12398214Y-15364357D01*
X12412500Y-15421500D01*
X12412500Y-15492929D01*
X12398214Y-15550071D01*
X12383928Y-15578643D01*
X12369643Y-15592929D01*
X12341071Y-15607214D01*
X12312500Y-15607214D01*
X12283928Y-15592929D01*
X12269643Y-15578643D01*
X12255357Y-15550071D01*
X12241071Y-15492929D01*
X12241071Y-15421500D01*
X12255357Y-15364357D01*
X12269643Y-15335786D01*
X12283928Y-15321500D01*
X12312500Y-15307214D01*
X12526786Y-15307214D02*
X12526786Y-15364357D01*
X12641071Y-15307214D02*
X12641071Y-15364357D01*
X13083928Y-15721500D02*
X13069643Y-15707214D01*
X13041071Y-15664357D01*
X13026786Y-15635786D01*
X13012500Y-15592929D01*
X12998214Y-15521500D01*
X12998214Y-15464357D01*
X13012500Y-15392929D01*
X13026786Y-15350071D01*
X13041071Y-15321500D01*
X13069643Y-15278643D01*
X13083928Y-15264357D01*
X13183928Y-15335786D02*
X13198214Y-15321500D01*
X13226786Y-15307214D01*
X13298214Y-15307214D01*
X13326786Y-15321500D01*
X13341071Y-15335786D01*
X13355357Y-15364357D01*
X13355357Y-15392929D01*
X13341071Y-15435786D01*
X13169643Y-15607214D01*
X13355357Y-15607214D01*
X13712500Y-15607214D02*
X13712500Y-15307214D01*
X13841071Y-15607214D02*
X13841071Y-15450071D01*
X13826786Y-15421500D01*
X13798214Y-15407214D01*
X13755357Y-15407214D01*
X13726786Y-15421500D01*
X13712500Y-15435786D01*
X14026786Y-15607214D02*
X13998214Y-15592929D01*
X13983928Y-15578643D01*
X13969643Y-15550071D01*
X13969643Y-15464357D01*
X13983928Y-15435786D01*
X13998214Y-15421500D01*
X14026786Y-15407214D01*
X14069643Y-15407214D01*
X14098214Y-15421500D01*
X14112500Y-15435786D01*
X14126786Y-15464357D01*
X14126786Y-15550071D01*
X14112500Y-15578643D01*
X14098214Y-15592929D01*
X14069643Y-15607214D01*
X14026786Y-15607214D01*
X14298214Y-15607214D02*
X14269643Y-15592929D01*
X14255357Y-15564357D01*
X14255357Y-15307214D01*
X14526786Y-15592929D02*
X14498214Y-15607214D01*
X14441071Y-15607214D01*
X14412500Y-15592929D01*
X14398214Y-15564357D01*
X14398214Y-15450071D01*
X14412500Y-15421500D01*
X14441071Y-15407214D01*
X14498214Y-15407214D01*
X14526786Y-15421500D01*
X14541071Y-15450071D01*
X14541071Y-15478643D01*
X14398214Y-15507214D01*
X14655357Y-15592929D02*
X14683928Y-15607214D01*
X14741071Y-15607214D01*
X14769643Y-15592929D01*
X14783928Y-15564357D01*
X14783928Y-15550071D01*
X14769643Y-15521500D01*
X14741071Y-15507214D01*
X14698214Y-15507214D01*
X14669643Y-15492929D01*
X14655357Y-15464357D01*
X14655357Y-15450071D01*
X14669643Y-15421500D01*
X14698214Y-15407214D01*
X14741071Y-15407214D01*
X14769643Y-15421500D01*
X14883928Y-15721500D02*
X14898214Y-15707214D01*
X14926786Y-15664357D01*
X14941071Y-15635786D01*
X14955357Y-15592929D01*
X14969643Y-15521500D01*
X14969643Y-15464357D01*
X14955357Y-15392929D01*
X14941071Y-15350071D01*
X14926786Y-15321500D01*
X14898214Y-15278643D01*
X14883928Y-15264357D01*
M02*
