M48
; DRILL file {KiCad (5.1.0)-1} date 2022-03-22 21:10:53
; FORMAT={-:-/ absolute / metric / decimal}
; #@! TF.CreationDate,2022-03-22T21:10:53+01:00
; #@! TF.GenerationSoftware,Kicad,Pcbnew,(5.1.0)-1
; #@! TF.FileFunction,Plated,1,2,PTH
FMAT,2
METRIC
T1C0.400
T2C0.800
T3C1.000
T4C1.016
T5C1.520
%
G90
G05
T1
X87.6Y-87.7
X89.2Y-87.7
X89.5Y-65.1
X89.5Y-95.9
X89.7Y-81.1
X89.775Y-101.375
X89.775Y-103.675
X90.8Y-87.7
X91.6Y-48.7
X91.6Y-65.1
X92.4Y-87.7
X93.7Y-101.4
X94.9Y-87.7
X96.5Y-87.7
X97.3Y-112.35
X98.0Y-90.9
X99.8Y-102.7
X99.825Y-105.1
X100.4Y-65.1
X100.8Y-81.1
X101.7Y-87.7
X102.4Y-65.1
X102.5Y-48.7
X103.1Y-112.45
X103.3Y-87.7
X104.675Y-113.25
X105.7Y-87.7
X106.15Y-113.25
X107.3Y-87.7
X107.5Y-101.4
X108.6Y-111.35
X110.125Y-102.425
X110.125Y-104.0
X110.7Y-96.0
X111.05Y-64.8
X111.1Y-81.1
X111.7Y-101.4
X112.6Y-87.7
X113.2Y-48.7
X113.9Y-64.8
X114.2Y-87.7
X115.7Y-101.4
X116.5Y-87.7
X116.6Y-114.45
X118.1Y-87.7
X118.15Y-112.5
X119.8Y-90.9
X120.375Y-112.75
X121.8Y-81.1
X121.85Y-112.75
X122.1Y-64.8
X123.4Y-87.7
X123.7Y-111.45
X124.0Y-48.7
X124.2Y-65.0
X125.0Y-87.7
X127.3Y-87.7
X128.8Y-116.85
X128.9Y-87.7
X129.5Y-101.3
X129.65Y-106.575
X129.65Y-109.95
X131.425Y-102.15
X131.425Y-103.7
X132.575Y-110.175
X132.8Y-95.9
X132.9Y-65.0
X132.9Y-81.1
X133.0Y-101.4
X133.025Y-113.375
X134.1Y-87.7
X134.143Y-108.897
X134.15Y-105.85
X134.787Y-117.637
X134.9Y-48.7
X134.9Y-65.0
X135.7Y-87.7
X137.2Y-101.4
X138.1Y-87.7
X138.66Y-113.05
X139.7Y-87.7
X140.987Y-117.162
X141.2Y-113.85
X141.4Y-90.9
X141.587Y-111.837
X143.0Y-117.15
X143.4Y-81.1
X143.7Y-65.1
X144.1Y-112.95
X144.8Y-87.7
X145.6Y-48.7
X146.225Y-106.575
X146.4Y-87.7
X146.425Y-127.375
X146.45Y-65.0
X147.5Y-101.1
X147.85Y-106.5
X148.45Y-108.8
X149.25Y-105.125
X149.275Y-107.3
X149.3Y-102.0
X149.3Y-103.75
X149.7Y-111.75
X150.5Y-87.7
X150.725Y-105.125
X150.725Y-106.339
X151.0Y-107.3
X151.6Y-96.0
X152.0Y-87.7
X152.025Y-101.3
X153.6Y-87.7
X154.5Y-65.0
X154.6Y-81.1
X154.8Y-117.35
X155.2Y-87.7
X156.1Y-101.4
X156.4Y-48.8
X156.5Y-65.0
X156.7Y-87.7
X157.9Y-106.85
X158.075Y-108.25
X158.3Y-87.7
X159.8Y-87.7
X160.0Y-106.85
X160.1Y-112.0
X160.3Y-90.9
X160.9Y-108.45
X161.4Y-87.7
X164.324Y-110.876
X164.324Y-113.626
X165.2Y-101.5
X165.3Y-65.0
X165.4Y-81.1
X167.3Y-48.9
X167.3Y-65.0
X169.338Y-49.579
X170.225Y-109.875
X171.449Y-79.499
X172.5Y-66.1
X172.55Y-79.082
X173.35Y-54.0
X173.388Y-79.662
X173.4Y-68.6
X174.24Y-80.186
X174.3Y-55.85
X174.3Y-69.7
X175.1Y-73.6
X175.1Y-79.675
X175.15Y-57.2
X175.95Y-80.3
X176.0Y-58.4
X176.0Y-74.8
X176.2Y-105.8
X176.6Y-101.0
X176.6Y-101.9
X176.8Y-76.3
X176.8Y-79.65
X176.85Y-59.8
X177.5Y-101.0
X177.5Y-101.9
X177.7Y-60.9
X177.7Y-77.4
T2
X130.19Y-67.22
X130.19Y-69.76
X130.19Y-72.3
X130.19Y-74.84
X130.19Y-77.38
X137.81Y-67.22
X137.81Y-69.76
X137.81Y-72.3
X137.81Y-74.84
X137.81Y-77.38
X97.79Y-67.22
X97.79Y-69.76
X97.79Y-72.3
X97.79Y-74.84
X97.79Y-77.38
X105.41Y-67.22
X105.41Y-69.76
X105.41Y-72.3
X105.41Y-74.84
X105.41Y-77.38
X162.49Y-50.72
X162.49Y-53.26
X162.49Y-55.8
X162.49Y-58.34
X162.49Y-60.88
X170.11Y-50.72
X170.11Y-53.26
X170.11Y-55.8
X170.11Y-58.34
X170.11Y-60.88
X140.89Y-50.72
X140.89Y-53.26
X140.89Y-55.8
X140.89Y-58.34
X140.89Y-60.88
X148.51Y-50.72
X148.51Y-53.26
X148.51Y-55.8
X148.51Y-58.34
X148.51Y-60.88
X108.49Y-50.82
X108.49Y-53.36
X108.49Y-55.9
X108.49Y-58.44
X108.49Y-60.98
X116.11Y-50.82
X116.11Y-53.36
X116.11Y-55.9
X116.11Y-58.44
X116.11Y-60.98
X97.69Y-50.82
X97.69Y-53.36
X97.69Y-55.9
X97.69Y-58.44
X97.69Y-60.98
X105.31Y-50.82
X105.31Y-53.36
X105.31Y-55.9
X105.31Y-58.44
X105.31Y-60.98
X162.59Y-67.22
X162.59Y-69.76
X162.59Y-72.3
X162.59Y-74.84
X162.59Y-77.38
X170.21Y-67.22
X170.21Y-69.76
X170.21Y-72.3
X170.21Y-74.84
X170.21Y-77.38
X119.39Y-67.22
X119.39Y-69.76
X119.39Y-72.3
X119.39Y-74.84
X119.39Y-77.38
X127.01Y-67.22
X127.01Y-69.76
X127.01Y-72.3
X127.01Y-74.84
X127.01Y-77.38
X151.79Y-67.22
X151.79Y-69.76
X151.79Y-72.3
X151.79Y-74.84
X151.79Y-77.38
X159.41Y-67.22
X159.41Y-69.76
X159.41Y-72.3
X159.41Y-74.84
X159.41Y-77.38
X151.69Y-50.72
X151.69Y-53.26
X151.69Y-55.8
X151.69Y-58.34
X151.69Y-60.88
X159.31Y-50.72
X159.31Y-53.26
X159.31Y-55.8
X159.31Y-58.34
X159.31Y-60.88
X130.09Y-50.72
X130.09Y-53.26
X130.09Y-55.8
X130.09Y-58.34
X130.09Y-60.88
X137.71Y-50.72
X137.71Y-53.26
X137.71Y-55.8
X137.71Y-58.34
X137.71Y-60.88
X86.89Y-50.82
X86.89Y-53.36
X86.89Y-55.9
X86.89Y-58.44
X86.89Y-60.98
X94.51Y-50.82
X94.51Y-53.36
X94.51Y-55.9
X94.51Y-58.44
X94.51Y-60.98
X140.99Y-67.22
X140.99Y-69.76
X140.99Y-72.3
X140.99Y-74.84
X140.99Y-77.38
X148.61Y-67.22
X148.61Y-69.76
X148.61Y-72.3
X148.61Y-74.84
X148.61Y-77.38
X108.59Y-67.22
X108.59Y-69.76
X108.59Y-72.3
X108.59Y-74.84
X108.59Y-77.38
X116.21Y-67.22
X116.21Y-69.76
X116.21Y-72.3
X116.21Y-74.84
X116.21Y-77.38
X86.99Y-67.22
X86.99Y-69.76
X86.99Y-72.3
X86.99Y-74.84
X86.99Y-77.38
X94.61Y-67.22
X94.61Y-69.76
X94.61Y-72.3
X94.61Y-74.84
X94.61Y-77.38
X119.28Y-50.78
X119.28Y-53.32
X119.28Y-55.86
X119.28Y-58.4
X119.28Y-60.94
X126.9Y-50.78
X126.9Y-53.32
X126.9Y-55.86
X126.9Y-58.4
X126.9Y-60.94
T3
X94.21Y-116.4
X96.75Y-116.4
T4
X109.2Y-121.71
X109.2Y-124.25
X111.74Y-121.71
X111.74Y-124.25
X114.28Y-121.71
X114.28Y-124.25
X116.82Y-121.71
X116.82Y-124.25
X119.36Y-121.71
X119.36Y-124.25
X121.9Y-121.71
X121.9Y-124.25
X124.44Y-121.71
X124.44Y-124.25
X126.98Y-121.71
X126.98Y-124.25
X129.52Y-121.71
X129.52Y-124.25
X132.06Y-121.71
X132.06Y-124.25
X134.6Y-121.71
X134.6Y-124.25
X137.14Y-121.71
X137.14Y-124.25
X139.68Y-121.71
X139.68Y-124.25
X153.3Y-121.71
X153.3Y-124.25
X155.84Y-121.71
X155.84Y-124.25
X158.38Y-121.71
X158.38Y-124.25
X160.92Y-121.71
X160.92Y-124.25
X163.46Y-121.71
X163.46Y-124.25
T5
X94.2Y-123.95
X99.28Y-123.95
T0
M30
