G04 #@! TF.GenerationSoftware,KiCad,Pcbnew,(5.1.0)-1*
G04 #@! TF.CreationDate,2022-03-22T21:13:01+01:00*
G04 #@! TF.ProjectId,keyboard,6b657962-6f61-4726-942e-6b696361645f,rev?*
G04 #@! TF.SameCoordinates,Original*
G04 #@! TF.FileFunction,Legend,Bot*
G04 #@! TF.FilePolarity,Positive*
%FSLAX46Y46*%
G04 Gerber Fmt 4.6, Leading zero omitted, Abs format (unit mm)*
G04 Created by KiCad (PCBNEW (5.1.0)-1) date 2022-03-22 21:13:01*
%MOMM*%
%LPD*%
G04 APERTURE LIST*
%ADD10C,0.300000*%
%ADD11C,0.010000*%
%ADD12C,3.302000*%
%ADD13O,1.829200X1.829200*%
%ADD14R,1.829200X1.829200*%
%ADD15C,1.802000*%
%ADD16C,4.102000*%
%ADD17C,2.302000*%
%ADD18C,3.152000*%
G04 APERTURE END LIST*
D10*
X375271428Y-101128571D02*
X375985714Y-101128571D01*
X375985714Y-99628571D01*
X374771428Y-101128571D02*
X374771428Y-100128571D01*
X374771428Y-99628571D02*
X374842857Y-99700000D01*
X374771428Y-99771428D01*
X374700000Y-99700000D01*
X374771428Y-99628571D01*
X374771428Y-99771428D01*
X373414285Y-101057142D02*
X373557142Y-101128571D01*
X373842857Y-101128571D01*
X373985714Y-101057142D01*
X374057142Y-100985714D01*
X374128571Y-100842857D01*
X374128571Y-100414285D01*
X374057142Y-100271428D01*
X373985714Y-100200000D01*
X373842857Y-100128571D01*
X373557142Y-100128571D01*
X373414285Y-100200000D01*
X372200000Y-101057142D02*
X372342857Y-101128571D01*
X372628571Y-101128571D01*
X372771428Y-101057142D01*
X372842857Y-100914285D01*
X372842857Y-100342857D01*
X372771428Y-100200000D01*
X372628571Y-100128571D01*
X372342857Y-100128571D01*
X372200000Y-100200000D01*
X372128571Y-100342857D01*
X372128571Y-100485714D01*
X372842857Y-100628571D01*
X371485714Y-100128571D02*
X371485714Y-101128571D01*
X371485714Y-100271428D02*
X371414285Y-100200000D01*
X371271428Y-100128571D01*
X371057142Y-100128571D01*
X370914285Y-100200000D01*
X370842857Y-100342857D01*
X370842857Y-101128571D01*
X370200000Y-101057142D02*
X370057142Y-101128571D01*
X369771428Y-101128571D01*
X369628571Y-101057142D01*
X369557142Y-100914285D01*
X369557142Y-100842857D01*
X369628571Y-100700000D01*
X369771428Y-100628571D01*
X369985714Y-100628571D01*
X370128571Y-100557142D01*
X370200000Y-100414285D01*
X370200000Y-100342857D01*
X370128571Y-100200000D01*
X369985714Y-100128571D01*
X369771428Y-100128571D01*
X369628571Y-100200000D01*
X368342857Y-101057142D02*
X368485714Y-101128571D01*
X368771428Y-101128571D01*
X368914285Y-101057142D01*
X368985714Y-100914285D01*
X368985714Y-100342857D01*
X368914285Y-100200000D01*
X368771428Y-100128571D01*
X368485714Y-100128571D01*
X368342857Y-100200000D01*
X368271428Y-100342857D01*
X368271428Y-100485714D01*
X368985714Y-100628571D01*
X366985714Y-101128571D02*
X366985714Y-99628571D01*
X366985714Y-101057142D02*
X367128571Y-101128571D01*
X367414285Y-101128571D01*
X367557142Y-101057142D01*
X367628571Y-100985714D01*
X367700000Y-100842857D01*
X367700000Y-100414285D01*
X367628571Y-100271428D01*
X367557142Y-100200000D01*
X367414285Y-100128571D01*
X367128571Y-100128571D01*
X366985714Y-100200000D01*
X364485714Y-100128571D02*
X364485714Y-101128571D01*
X365128571Y-100128571D02*
X365128571Y-100914285D01*
X365057142Y-101057142D01*
X364914285Y-101128571D01*
X364700000Y-101128571D01*
X364557142Y-101057142D01*
X364485714Y-100985714D01*
X363771428Y-100128571D02*
X363771428Y-101128571D01*
X363771428Y-100271428D02*
X363700000Y-100200000D01*
X363557142Y-100128571D01*
X363342857Y-100128571D01*
X363200000Y-100200000D01*
X363128571Y-100342857D01*
X363128571Y-101128571D01*
X361771428Y-101128571D02*
X361771428Y-99628571D01*
X361771428Y-101057142D02*
X361914285Y-101128571D01*
X362200000Y-101128571D01*
X362342857Y-101057142D01*
X362414285Y-100985714D01*
X362485714Y-100842857D01*
X362485714Y-100414285D01*
X362414285Y-100271428D01*
X362342857Y-100200000D01*
X362200000Y-100128571D01*
X361914285Y-100128571D01*
X361771428Y-100200000D01*
X360485714Y-101057142D02*
X360628571Y-101128571D01*
X360914285Y-101128571D01*
X361057142Y-101057142D01*
X361128571Y-100914285D01*
X361128571Y-100342857D01*
X361057142Y-100200000D01*
X360914285Y-100128571D01*
X360628571Y-100128571D01*
X360485714Y-100200000D01*
X360414285Y-100342857D01*
X360414285Y-100485714D01*
X361128571Y-100628571D01*
X359771428Y-101128571D02*
X359771428Y-100128571D01*
X359771428Y-100414285D02*
X359700000Y-100271428D01*
X359628571Y-100200000D01*
X359485714Y-100128571D01*
X359342857Y-100128571D01*
X356842857Y-100985714D02*
X356914285Y-101057142D01*
X357128571Y-101128571D01*
X357271428Y-101128571D01*
X357485714Y-101057142D01*
X357628571Y-100914285D01*
X357700000Y-100771428D01*
X357771428Y-100485714D01*
X357771428Y-100271428D01*
X357700000Y-99985714D01*
X357628571Y-99842857D01*
X357485714Y-99700000D01*
X357271428Y-99628571D01*
X357128571Y-99628571D01*
X356914285Y-99700000D01*
X356842857Y-99771428D01*
X356200000Y-100342857D02*
X355700000Y-100342857D01*
X355485714Y-101128571D02*
X356200000Y-101128571D01*
X356200000Y-99628571D01*
X355485714Y-99628571D01*
X353985714Y-101128571D02*
X354485714Y-100414285D01*
X354842857Y-101128571D02*
X354842857Y-99628571D01*
X354271428Y-99628571D01*
X354128571Y-99700000D01*
X354057142Y-99771428D01*
X353985714Y-99914285D01*
X353985714Y-100128571D01*
X354057142Y-100271428D01*
X354128571Y-100342857D01*
X354271428Y-100414285D01*
X354842857Y-100414285D01*
X353342857Y-101128571D02*
X353342857Y-99628571D01*
X352485714Y-101128571D01*
X352485714Y-99628571D01*
X351771428Y-100557142D02*
X350628571Y-100557142D01*
X349628571Y-99628571D02*
X349342857Y-99628571D01*
X349200000Y-99700000D01*
X349057142Y-99842857D01*
X348985714Y-100128571D01*
X348985714Y-100628571D01*
X349057142Y-100914285D01*
X349200000Y-101057142D01*
X349342857Y-101128571D01*
X349628571Y-101128571D01*
X349771428Y-101057142D01*
X349914285Y-100914285D01*
X349985714Y-100628571D01*
X349985714Y-100128571D01*
X349914285Y-99842857D01*
X349771428Y-99700000D01*
X349628571Y-99628571D01*
X348342857Y-101128571D02*
X348342857Y-99628571D01*
X348342857Y-100342857D02*
X347485714Y-100342857D01*
X347485714Y-101128571D02*
X347485714Y-99628571D01*
X346057142Y-101128571D02*
X346771428Y-101128571D01*
X346771428Y-99628571D01*
X345557142Y-100557142D02*
X344414285Y-100557142D01*
X343700000Y-101128571D02*
X343700000Y-99628571D01*
X343128571Y-99628571D01*
X342985714Y-99700000D01*
X342914285Y-99771428D01*
X342842857Y-99914285D01*
X342842857Y-100128571D01*
X342914285Y-100271428D01*
X342985714Y-100342857D01*
X343128571Y-100414285D01*
X343700000Y-100414285D01*
X341200000Y-100128571D02*
X340842857Y-101128571D01*
X340485714Y-100128571D01*
X339985714Y-99771428D02*
X339914285Y-99700000D01*
X339771428Y-99628571D01*
X339414285Y-99628571D01*
X339271428Y-99700000D01*
X339200000Y-99771428D01*
X339128571Y-99914285D01*
X339128571Y-100057142D01*
X339200000Y-100271428D01*
X340057142Y-101128571D01*
X339128571Y-101128571D01*
X337128571Y-101128571D02*
X337271428Y-101057142D01*
X337342857Y-100985714D01*
X337414285Y-100842857D01*
X337414285Y-100414285D01*
X337342857Y-100271428D01*
X337271428Y-100200000D01*
X337128571Y-100128571D01*
X336914285Y-100128571D01*
X336771428Y-100200000D01*
X336700000Y-100271428D01*
X336628571Y-100414285D01*
X336628571Y-100842857D01*
X336700000Y-100985714D01*
X336771428Y-101057142D01*
X336914285Y-101128571D01*
X337128571Y-101128571D01*
X335985714Y-101128571D02*
X335985714Y-100128571D01*
X335985714Y-100414285D02*
X335914285Y-100271428D01*
X335842857Y-100200000D01*
X335700000Y-100128571D01*
X335557142Y-100128571D01*
X333700000Y-101128571D02*
X333842857Y-101057142D01*
X333914285Y-100914285D01*
X333914285Y-99628571D01*
X332485714Y-101128571D02*
X332485714Y-100342857D01*
X332557142Y-100200000D01*
X332700000Y-100128571D01*
X332985714Y-100128571D01*
X333128571Y-100200000D01*
X332485714Y-101057142D02*
X332628571Y-101128571D01*
X332985714Y-101128571D01*
X333128571Y-101057142D01*
X333200000Y-100914285D01*
X333200000Y-100771428D01*
X333128571Y-100628571D01*
X332985714Y-100557142D01*
X332628571Y-100557142D01*
X332485714Y-100485714D01*
X331985714Y-100128571D02*
X331414285Y-100128571D01*
X331771428Y-99628571D02*
X331771428Y-100914285D01*
X331700000Y-101057142D01*
X331557142Y-101128571D01*
X331414285Y-101128571D01*
X330342857Y-101057142D02*
X330485714Y-101128571D01*
X330771428Y-101128571D01*
X330914285Y-101057142D01*
X330985714Y-100914285D01*
X330985714Y-100342857D01*
X330914285Y-100200000D01*
X330771428Y-100128571D01*
X330485714Y-100128571D01*
X330342857Y-100200000D01*
X330271428Y-100342857D01*
X330271428Y-100485714D01*
X330985714Y-100628571D01*
X329628571Y-101128571D02*
X329628571Y-100128571D01*
X329628571Y-100414285D02*
X329557142Y-100271428D01*
X329485714Y-100200000D01*
X329342857Y-100128571D01*
X329200000Y-100128571D01*
X296385714Y-37321428D02*
X296314285Y-37250000D01*
X296171428Y-37178571D01*
X295814285Y-37178571D01*
X295671428Y-37250000D01*
X295600000Y-37321428D01*
X295528571Y-37464285D01*
X295528571Y-37607142D01*
X295600000Y-37821428D01*
X296457142Y-38678571D01*
X295528571Y-38678571D01*
X294600000Y-37178571D02*
X294457142Y-37178571D01*
X294314285Y-37250000D01*
X294242857Y-37321428D01*
X294171428Y-37464285D01*
X294100000Y-37750000D01*
X294100000Y-38107142D01*
X294171428Y-38392857D01*
X294242857Y-38535714D01*
X294314285Y-38607142D01*
X294457142Y-38678571D01*
X294600000Y-38678571D01*
X294742857Y-38607142D01*
X294814285Y-38535714D01*
X294885714Y-38392857D01*
X294957142Y-38107142D01*
X294957142Y-37750000D01*
X294885714Y-37464285D01*
X294814285Y-37321428D01*
X294742857Y-37250000D01*
X294600000Y-37178571D01*
X293528571Y-37321428D02*
X293457142Y-37250000D01*
X293314285Y-37178571D01*
X292957142Y-37178571D01*
X292814285Y-37250000D01*
X292742857Y-37321428D01*
X292671428Y-37464285D01*
X292671428Y-37607142D01*
X292742857Y-37821428D01*
X293600000Y-38678571D01*
X292671428Y-38678571D01*
X292100000Y-37321428D02*
X292028571Y-37250000D01*
X291885714Y-37178571D01*
X291528571Y-37178571D01*
X291385714Y-37250000D01*
X291314285Y-37321428D01*
X291242857Y-37464285D01*
X291242857Y-37607142D01*
X291314285Y-37821428D01*
X292171428Y-38678571D01*
X291242857Y-38678571D01*
X290600000Y-38107142D02*
X289457142Y-38107142D01*
X288457142Y-37178571D02*
X288314285Y-37178571D01*
X288171428Y-37250000D01*
X288100000Y-37321428D01*
X288028571Y-37464285D01*
X287957142Y-37750000D01*
X287957142Y-38107142D01*
X288028571Y-38392857D01*
X288100000Y-38535714D01*
X288171428Y-38607142D01*
X288314285Y-38678571D01*
X288457142Y-38678571D01*
X288600000Y-38607142D01*
X288671428Y-38535714D01*
X288742857Y-38392857D01*
X288814285Y-38107142D01*
X288814285Y-37750000D01*
X288742857Y-37464285D01*
X288671428Y-37321428D01*
X288600000Y-37250000D01*
X288457142Y-37178571D01*
X287457142Y-37178571D02*
X286528571Y-37178571D01*
X287028571Y-37750000D01*
X286814285Y-37750000D01*
X286671428Y-37821428D01*
X286600000Y-37892857D01*
X286528571Y-38035714D01*
X286528571Y-38392857D01*
X286600000Y-38535714D01*
X286671428Y-38607142D01*
X286814285Y-38678571D01*
X287242857Y-38678571D01*
X287385714Y-38607142D01*
X287457142Y-38535714D01*
X285885714Y-38107142D02*
X284742857Y-38107142D01*
X284100000Y-37321428D02*
X284028571Y-37250000D01*
X283885714Y-37178571D01*
X283528571Y-37178571D01*
X283385714Y-37250000D01*
X283314285Y-37321428D01*
X283242857Y-37464285D01*
X283242857Y-37607142D01*
X283314285Y-37821428D01*
X284171428Y-38678571D01*
X283242857Y-38678571D01*
X282671428Y-37321428D02*
X282600000Y-37250000D01*
X282457142Y-37178571D01*
X282100000Y-37178571D01*
X281957142Y-37250000D01*
X281885714Y-37321428D01*
X281814285Y-37464285D01*
X281814285Y-37607142D01*
X281885714Y-37821428D01*
X282742857Y-38678571D01*
X281814285Y-38678571D01*
X369185714Y-103328571D02*
X369185714Y-104542857D01*
X369257142Y-104685714D01*
X369328571Y-104757142D01*
X369471428Y-104828571D01*
X369685714Y-104828571D01*
X369828571Y-104757142D01*
X369185714Y-104257142D02*
X369328571Y-104328571D01*
X369614285Y-104328571D01*
X369757142Y-104257142D01*
X369828571Y-104185714D01*
X369900000Y-104042857D01*
X369900000Y-103614285D01*
X369828571Y-103471428D01*
X369757142Y-103400000D01*
X369614285Y-103328571D01*
X369328571Y-103328571D01*
X369185714Y-103400000D01*
X368471428Y-104328571D02*
X368471428Y-103328571D01*
X368471428Y-102828571D02*
X368542857Y-102900000D01*
X368471428Y-102971428D01*
X368400000Y-102900000D01*
X368471428Y-102828571D01*
X368471428Y-102971428D01*
X367971428Y-103328571D02*
X367400000Y-103328571D01*
X367757142Y-102828571D02*
X367757142Y-104114285D01*
X367685714Y-104257142D01*
X367542857Y-104328571D01*
X367400000Y-104328571D01*
X366900000Y-104328571D02*
X366900000Y-102828571D01*
X366257142Y-104328571D02*
X366257142Y-103542857D01*
X366328571Y-103400000D01*
X366471428Y-103328571D01*
X366685714Y-103328571D01*
X366828571Y-103400000D01*
X366900000Y-103471428D01*
X364900000Y-103328571D02*
X364900000Y-104328571D01*
X365542857Y-103328571D02*
X365542857Y-104114285D01*
X365471428Y-104257142D01*
X365328571Y-104328571D01*
X365114285Y-104328571D01*
X364971428Y-104257142D01*
X364900000Y-104185714D01*
X364185714Y-104328571D02*
X364185714Y-102828571D01*
X364185714Y-103400000D02*
X364042857Y-103328571D01*
X363757142Y-103328571D01*
X363614285Y-103400000D01*
X363542857Y-103471428D01*
X363471428Y-103614285D01*
X363471428Y-104042857D01*
X363542857Y-104185714D01*
X363614285Y-104257142D01*
X363757142Y-104328571D01*
X364042857Y-104328571D01*
X364185714Y-104257142D01*
X362828571Y-104185714D02*
X362757142Y-104257142D01*
X362828571Y-104328571D01*
X362900000Y-104257142D01*
X362828571Y-104185714D01*
X362828571Y-104328571D01*
X361471428Y-104257142D02*
X361614285Y-104328571D01*
X361900000Y-104328571D01*
X362042857Y-104257142D01*
X362114285Y-104185714D01*
X362185714Y-104042857D01*
X362185714Y-103614285D01*
X362114285Y-103471428D01*
X362042857Y-103400000D01*
X361900000Y-103328571D01*
X361614285Y-103328571D01*
X361471428Y-103400000D01*
X360614285Y-104328571D02*
X360757142Y-104257142D01*
X360828571Y-104185714D01*
X360900000Y-104042857D01*
X360900000Y-103614285D01*
X360828571Y-103471428D01*
X360757142Y-103400000D01*
X360614285Y-103328571D01*
X360400000Y-103328571D01*
X360257142Y-103400000D01*
X360185714Y-103471428D01*
X360114285Y-103614285D01*
X360114285Y-104042857D01*
X360185714Y-104185714D01*
X360257142Y-104257142D01*
X360400000Y-104328571D01*
X360614285Y-104328571D01*
X359471428Y-104328571D02*
X359471428Y-103328571D01*
X359471428Y-103471428D02*
X359400000Y-103400000D01*
X359257142Y-103328571D01*
X359042857Y-103328571D01*
X358900000Y-103400000D01*
X358828571Y-103542857D01*
X358828571Y-104328571D01*
X358828571Y-103542857D02*
X358757142Y-103400000D01*
X358614285Y-103328571D01*
X358400000Y-103328571D01*
X358257142Y-103400000D01*
X358185714Y-103542857D01*
X358185714Y-104328571D01*
X356400000Y-102757142D02*
X357685714Y-104685714D01*
X355971428Y-103900000D02*
X355257142Y-103900000D01*
X356114285Y-104328571D02*
X355614285Y-102828571D01*
X355114285Y-104328571D01*
X354614285Y-104328571D02*
X354614285Y-103328571D01*
X354614285Y-102828571D02*
X354685714Y-102900000D01*
X354614285Y-102971428D01*
X354542857Y-102900000D01*
X354614285Y-102828571D01*
X354614285Y-102971428D01*
X354114285Y-103328571D02*
X353542857Y-103328571D01*
X353900000Y-104328571D02*
X353900000Y-103042857D01*
X353828571Y-102900000D01*
X353685714Y-102828571D01*
X353542857Y-102828571D01*
X353042857Y-104328571D02*
X353042857Y-103328571D01*
X353042857Y-103614285D02*
X352971428Y-103471428D01*
X352900000Y-103400000D01*
X352757142Y-103328571D01*
X352614285Y-103328571D01*
X352257142Y-103328571D02*
X351900000Y-104328571D01*
X351542857Y-103328571D02*
X351900000Y-104328571D01*
X352042857Y-104685714D01*
X352114285Y-104757142D01*
X352257142Y-104828571D01*
X351114285Y-103328571D02*
X350328571Y-103328571D01*
X351114285Y-104328571D01*
X350328571Y-104328571D01*
X348685714Y-102757142D02*
X349971428Y-104685714D01*
X348257142Y-104257142D02*
X348114285Y-104328571D01*
X347828571Y-104328571D01*
X347685714Y-104257142D01*
X347614285Y-104114285D01*
X347614285Y-104042857D01*
X347685714Y-103900000D01*
X347828571Y-103828571D01*
X348042857Y-103828571D01*
X348185714Y-103757142D01*
X348257142Y-103614285D01*
X348257142Y-103542857D01*
X348185714Y-103400000D01*
X348042857Y-103328571D01*
X347828571Y-103328571D01*
X347685714Y-103400000D01*
X346757142Y-104328571D02*
X346900000Y-104257142D01*
X346971428Y-104185714D01*
X347042857Y-104042857D01*
X347042857Y-103614285D01*
X346971428Y-103471428D01*
X346900000Y-103400000D01*
X346757142Y-103328571D01*
X346542857Y-103328571D01*
X346400000Y-103400000D01*
X346328571Y-103471428D01*
X346257142Y-103614285D01*
X346257142Y-104042857D01*
X346328571Y-104185714D01*
X346400000Y-104257142D01*
X346542857Y-104328571D01*
X346757142Y-104328571D01*
X345828571Y-103328571D02*
X345257142Y-103328571D01*
X345614285Y-104328571D02*
X345614285Y-103042857D01*
X345542857Y-102900000D01*
X345400000Y-102828571D01*
X345257142Y-102828571D01*
X344971428Y-103328571D02*
X344400000Y-103328571D01*
X344757142Y-102828571D02*
X344757142Y-104114285D01*
X344685714Y-104257142D01*
X344542857Y-104328571D01*
X344400000Y-104328571D01*
X344042857Y-103328571D02*
X343757142Y-104328571D01*
X343471428Y-103614285D01*
X343185714Y-104328571D01*
X342900000Y-103328571D01*
X341685714Y-104328571D02*
X341685714Y-103542857D01*
X341757142Y-103400000D01*
X341900000Y-103328571D01*
X342185714Y-103328571D01*
X342328571Y-103400000D01*
X341685714Y-104257142D02*
X341828571Y-104328571D01*
X342185714Y-104328571D01*
X342328571Y-104257142D01*
X342400000Y-104114285D01*
X342400000Y-103971428D01*
X342328571Y-103828571D01*
X342185714Y-103757142D01*
X341828571Y-103757142D01*
X341685714Y-103685714D01*
X340971428Y-104328571D02*
X340971428Y-103328571D01*
X340971428Y-103614285D02*
X340900000Y-103471428D01*
X340828571Y-103400000D01*
X340685714Y-103328571D01*
X340542857Y-103328571D01*
X339471428Y-104257142D02*
X339614285Y-104328571D01*
X339900000Y-104328571D01*
X340042857Y-104257142D01*
X340114285Y-104114285D01*
X340114285Y-103542857D01*
X340042857Y-103400000D01*
X339900000Y-103328571D01*
X339614285Y-103328571D01*
X339471428Y-103400000D01*
X339400000Y-103542857D01*
X339400000Y-103685714D01*
X340114285Y-103828571D01*
X338542857Y-104328571D02*
X338685714Y-104257142D01*
X338757142Y-104114285D01*
X338757142Y-102828571D01*
X337400000Y-104257142D02*
X337542857Y-104328571D01*
X337828571Y-104328571D01*
X337971428Y-104257142D01*
X338042857Y-104114285D01*
X338042857Y-103542857D01*
X337971428Y-103400000D01*
X337828571Y-103328571D01*
X337542857Y-103328571D01*
X337400000Y-103400000D01*
X337328571Y-103542857D01*
X337328571Y-103685714D01*
X338042857Y-103828571D01*
X336757142Y-104257142D02*
X336614285Y-104328571D01*
X336328571Y-104328571D01*
X336185714Y-104257142D01*
X336114285Y-104114285D01*
X336114285Y-104042857D01*
X336185714Y-103900000D01*
X336328571Y-103828571D01*
X336542857Y-103828571D01*
X336685714Y-103757142D01*
X336757142Y-103614285D01*
X336757142Y-103542857D01*
X336685714Y-103400000D01*
X336542857Y-103328571D01*
X336328571Y-103328571D01*
X336185714Y-103400000D01*
X335542857Y-104257142D02*
X335400000Y-104328571D01*
X335114285Y-104328571D01*
X334971428Y-104257142D01*
X334900000Y-104114285D01*
X334900000Y-104042857D01*
X334971428Y-103900000D01*
X335114285Y-103828571D01*
X335328571Y-103828571D01*
X335471428Y-103757142D01*
X335542857Y-103614285D01*
X335542857Y-103542857D01*
X335471428Y-103400000D01*
X335328571Y-103328571D01*
X335114285Y-103328571D01*
X334971428Y-103400000D01*
D11*
G36*
X364221177Y-112724533D02*
G01*
X364189798Y-112746776D01*
X364162089Y-112774485D01*
X364162089Y-113083920D01*
X364162162Y-113175799D01*
X364162505Y-113247840D01*
X364163308Y-113302780D01*
X364164759Y-113343360D01*
X364167048Y-113372317D01*
X364170364Y-113392391D01*
X364174895Y-113406321D01*
X364180831Y-113416845D01*
X364185486Y-113423100D01*
X364216217Y-113447673D01*
X364251504Y-113450341D01*
X364283755Y-113435271D01*
X364294412Y-113426374D01*
X364301536Y-113414557D01*
X364305833Y-113395526D01*
X364308009Y-113364992D01*
X364308772Y-113318662D01*
X364308845Y-113282871D01*
X364308845Y-113148045D01*
X364805556Y-113148045D01*
X364805556Y-113270700D01*
X364806069Y-113326787D01*
X364808124Y-113365333D01*
X364812492Y-113391361D01*
X364819944Y-113409897D01*
X364828953Y-113423100D01*
X364859856Y-113447604D01*
X364894804Y-113450506D01*
X364928262Y-113433089D01*
X364937396Y-113423959D01*
X364943848Y-113411855D01*
X364948103Y-113393001D01*
X364950648Y-113363620D01*
X364951971Y-113319937D01*
X364952557Y-113258175D01*
X364952625Y-113244000D01*
X364953109Y-113127631D01*
X364953359Y-113031727D01*
X364953277Y-112954177D01*
X364952769Y-112892869D01*
X364951738Y-112845690D01*
X364950087Y-112810530D01*
X364947721Y-112785276D01*
X364944543Y-112767817D01*
X364940456Y-112756041D01*
X364935366Y-112747835D01*
X364929734Y-112741645D01*
X364897872Y-112721844D01*
X364864643Y-112724533D01*
X364833265Y-112746776D01*
X364820567Y-112761126D01*
X364812474Y-112776978D01*
X364807958Y-112799554D01*
X364805994Y-112834078D01*
X364805556Y-112885776D01*
X364805556Y-113001289D01*
X364308845Y-113001289D01*
X364308845Y-112882756D01*
X364308338Y-112828148D01*
X364306302Y-112791275D01*
X364301965Y-112767307D01*
X364294553Y-112751415D01*
X364286267Y-112741645D01*
X364254406Y-112721844D01*
X364221177Y-112724533D01*
X364221177Y-112724533D01*
G37*
X364221177Y-112724533D02*
X364189798Y-112746776D01*
X364162089Y-112774485D01*
X364162089Y-113083920D01*
X364162162Y-113175799D01*
X364162505Y-113247840D01*
X364163308Y-113302780D01*
X364164759Y-113343360D01*
X364167048Y-113372317D01*
X364170364Y-113392391D01*
X364174895Y-113406321D01*
X364180831Y-113416845D01*
X364185486Y-113423100D01*
X364216217Y-113447673D01*
X364251504Y-113450341D01*
X364283755Y-113435271D01*
X364294412Y-113426374D01*
X364301536Y-113414557D01*
X364305833Y-113395526D01*
X364308009Y-113364992D01*
X364308772Y-113318662D01*
X364308845Y-113282871D01*
X364308845Y-113148045D01*
X364805556Y-113148045D01*
X364805556Y-113270700D01*
X364806069Y-113326787D01*
X364808124Y-113365333D01*
X364812492Y-113391361D01*
X364819944Y-113409897D01*
X364828953Y-113423100D01*
X364859856Y-113447604D01*
X364894804Y-113450506D01*
X364928262Y-113433089D01*
X364937396Y-113423959D01*
X364943848Y-113411855D01*
X364948103Y-113393001D01*
X364950648Y-113363620D01*
X364951971Y-113319937D01*
X364952557Y-113258175D01*
X364952625Y-113244000D01*
X364953109Y-113127631D01*
X364953359Y-113031727D01*
X364953277Y-112954177D01*
X364952769Y-112892869D01*
X364951738Y-112845690D01*
X364950087Y-112810530D01*
X364947721Y-112785276D01*
X364944543Y-112767817D01*
X364940456Y-112756041D01*
X364935366Y-112747835D01*
X364929734Y-112741645D01*
X364897872Y-112721844D01*
X364864643Y-112724533D01*
X364833265Y-112746776D01*
X364820567Y-112761126D01*
X364812474Y-112776978D01*
X364807958Y-112799554D01*
X364805994Y-112834078D01*
X364805556Y-112885776D01*
X364805556Y-113001289D01*
X364308845Y-113001289D01*
X364308845Y-112882756D01*
X364308338Y-112828148D01*
X364306302Y-112791275D01*
X364301965Y-112767307D01*
X364294553Y-112751415D01*
X364286267Y-112741645D01*
X364254406Y-112721844D01*
X364221177Y-112724533D01*
G36*
X365486935Y-112719163D02*
G01*
X365408228Y-112719542D01*
X365347137Y-112720333D01*
X365301183Y-112721670D01*
X365267886Y-112723683D01*
X365244764Y-112726506D01*
X365229338Y-112730269D01*
X365219129Y-112735105D01*
X365214187Y-112738822D01*
X365188543Y-112771358D01*
X365185441Y-112805138D01*
X365201289Y-112835826D01*
X365211652Y-112848089D01*
X365222804Y-112856450D01*
X365238965Y-112861657D01*
X365264358Y-112864457D01*
X365303202Y-112865596D01*
X365359720Y-112865821D01*
X365370820Y-112865822D01*
X365516756Y-112865822D01*
X365516756Y-113136756D01*
X365516852Y-113222154D01*
X365517289Y-113287864D01*
X365518288Y-113336774D01*
X365520072Y-113371773D01*
X365522863Y-113395749D01*
X365526883Y-113411593D01*
X365532355Y-113422191D01*
X365539334Y-113430267D01*
X365572266Y-113450112D01*
X365606646Y-113448548D01*
X365637824Y-113425906D01*
X365640114Y-113423100D01*
X365647571Y-113412492D01*
X365653253Y-113400081D01*
X365657399Y-113382850D01*
X365660250Y-113357784D01*
X365662046Y-113321867D01*
X365663028Y-113272083D01*
X365663436Y-113205417D01*
X365663511Y-113129589D01*
X365663511Y-112865822D01*
X365802873Y-112865822D01*
X365862678Y-112865418D01*
X365904082Y-112863840D01*
X365931252Y-112860547D01*
X365948354Y-112854992D01*
X365959557Y-112846631D01*
X365960917Y-112845178D01*
X365977275Y-112811939D01*
X365975828Y-112774362D01*
X365957022Y-112741645D01*
X365949750Y-112735298D01*
X365940373Y-112730266D01*
X365926391Y-112726396D01*
X365905304Y-112723537D01*
X365874611Y-112721535D01*
X365831811Y-112720239D01*
X365774405Y-112719498D01*
X365699890Y-112719158D01*
X365605767Y-112719068D01*
X365585740Y-112719067D01*
X365486935Y-112719163D01*
X365486935Y-112719163D01*
G37*
X365486935Y-112719163D02*
X365408228Y-112719542D01*
X365347137Y-112720333D01*
X365301183Y-112721670D01*
X365267886Y-112723683D01*
X365244764Y-112726506D01*
X365229338Y-112730269D01*
X365219129Y-112735105D01*
X365214187Y-112738822D01*
X365188543Y-112771358D01*
X365185441Y-112805138D01*
X365201289Y-112835826D01*
X365211652Y-112848089D01*
X365222804Y-112856450D01*
X365238965Y-112861657D01*
X365264358Y-112864457D01*
X365303202Y-112865596D01*
X365359720Y-112865821D01*
X365370820Y-112865822D01*
X365516756Y-112865822D01*
X365516756Y-113136756D01*
X365516852Y-113222154D01*
X365517289Y-113287864D01*
X365518288Y-113336774D01*
X365520072Y-113371773D01*
X365522863Y-113395749D01*
X365526883Y-113411593D01*
X365532355Y-113422191D01*
X365539334Y-113430267D01*
X365572266Y-113450112D01*
X365606646Y-113448548D01*
X365637824Y-113425906D01*
X365640114Y-113423100D01*
X365647571Y-113412492D01*
X365653253Y-113400081D01*
X365657399Y-113382850D01*
X365660250Y-113357784D01*
X365662046Y-113321867D01*
X365663028Y-113272083D01*
X365663436Y-113205417D01*
X365663511Y-113129589D01*
X365663511Y-112865822D01*
X365802873Y-112865822D01*
X365862678Y-112865418D01*
X365904082Y-112863840D01*
X365931252Y-112860547D01*
X365948354Y-112854992D01*
X365959557Y-112846631D01*
X365960917Y-112845178D01*
X365977275Y-112811939D01*
X365975828Y-112774362D01*
X365957022Y-112741645D01*
X365949750Y-112735298D01*
X365940373Y-112730266D01*
X365926391Y-112726396D01*
X365905304Y-112723537D01*
X365874611Y-112721535D01*
X365831811Y-112720239D01*
X365774405Y-112719498D01*
X365699890Y-112719158D01*
X365605767Y-112719068D01*
X365585740Y-112719067D01*
X365486935Y-112719163D01*
G36*
X366261386Y-112725877D02*
G01*
X366237673Y-112740647D01*
X366211022Y-112762227D01*
X366211022Y-113083773D01*
X366211107Y-113177830D01*
X366211471Y-113251932D01*
X366212276Y-113308704D01*
X366213687Y-113350768D01*
X366215867Y-113380748D01*
X366218979Y-113401267D01*
X366223186Y-113414949D01*
X366228652Y-113424416D01*
X366232528Y-113429082D01*
X366263966Y-113449575D01*
X366299767Y-113448739D01*
X366331127Y-113431264D01*
X366357778Y-113409684D01*
X366357778Y-112762227D01*
X366331127Y-112740647D01*
X366305406Y-112724949D01*
X366284400Y-112719067D01*
X366261386Y-112725877D01*
X366261386Y-112725877D01*
G37*
X366261386Y-112725877D02*
X366237673Y-112740647D01*
X366211022Y-112762227D01*
X366211022Y-113083773D01*
X366211107Y-113177830D01*
X366211471Y-113251932D01*
X366212276Y-113308704D01*
X366213687Y-113350768D01*
X366215867Y-113380748D01*
X366218979Y-113401267D01*
X366223186Y-113414949D01*
X366228652Y-113424416D01*
X366232528Y-113429082D01*
X366263966Y-113449575D01*
X366299767Y-113448739D01*
X366331127Y-113431264D01*
X366357778Y-113409684D01*
X366357778Y-112762227D01*
X366331127Y-112740647D01*
X366305406Y-112724949D01*
X366284400Y-112719067D01*
X366261386Y-112725877D01*
G36*
X366705335Y-112721034D02*
G01*
X366685745Y-112728035D01*
X366684990Y-112728377D01*
X366658387Y-112748678D01*
X366643730Y-112769561D01*
X366640862Y-112779352D01*
X366641004Y-112792361D01*
X366645039Y-112810895D01*
X366653854Y-112837257D01*
X366668331Y-112873752D01*
X366689355Y-112922687D01*
X366717812Y-112986365D01*
X366754585Y-113067093D01*
X366774825Y-113111216D01*
X366811375Y-113189985D01*
X366845685Y-113262423D01*
X366876448Y-113325880D01*
X366902352Y-113377708D01*
X366922090Y-113415259D01*
X366934350Y-113435884D01*
X366936776Y-113438733D01*
X366967817Y-113451302D01*
X367002879Y-113449619D01*
X367031000Y-113434332D01*
X367032146Y-113433089D01*
X367043332Y-113416154D01*
X367062096Y-113383170D01*
X367086125Y-113338380D01*
X367113103Y-113286032D01*
X367122799Y-113266742D01*
X367195986Y-113120150D01*
X367275760Y-113279393D01*
X367304233Y-113334415D01*
X367330650Y-113382132D01*
X367352852Y-113418893D01*
X367368681Y-113441044D01*
X367374046Y-113445741D01*
X367415743Y-113452102D01*
X367450151Y-113438733D01*
X367460272Y-113424446D01*
X367477786Y-113392692D01*
X367501265Y-113346597D01*
X367529280Y-113289285D01*
X367560401Y-113223880D01*
X367593201Y-113153507D01*
X367626250Y-113081291D01*
X367658119Y-113010355D01*
X367687381Y-112943825D01*
X367712605Y-112884826D01*
X367732364Y-112836481D01*
X367745228Y-112801915D01*
X367749769Y-112784253D01*
X367749723Y-112783613D01*
X367738674Y-112761388D01*
X367716590Y-112738753D01*
X367715290Y-112737768D01*
X367688147Y-112722425D01*
X367663042Y-112722574D01*
X367653632Y-112725466D01*
X367642166Y-112731718D01*
X367629990Y-112744014D01*
X367615643Y-112764908D01*
X367597664Y-112796949D01*
X367574593Y-112842688D01*
X367544970Y-112904677D01*
X367518255Y-112961898D01*
X367487520Y-113028226D01*
X367459979Y-113087874D01*
X367437062Y-113137725D01*
X367420202Y-113174664D01*
X367410827Y-113195573D01*
X367409460Y-113198845D01*
X367403311Y-113193497D01*
X367389178Y-113171109D01*
X367368943Y-113134946D01*
X367344485Y-113088277D01*
X367334752Y-113069022D01*
X367301783Y-113004004D01*
X367276357Y-112956654D01*
X367256388Y-112924219D01*
X367239790Y-112903946D01*
X367224476Y-112893082D01*
X367208360Y-112888875D01*
X367197857Y-112888400D01*
X367179330Y-112890042D01*
X367163096Y-112896831D01*
X367146965Y-112911566D01*
X367128749Y-112937044D01*
X367106261Y-112976061D01*
X367077311Y-113031414D01*
X367061338Y-113062903D01*
X367035430Y-113113087D01*
X367012833Y-113154704D01*
X366995542Y-113184242D01*
X366985550Y-113198189D01*
X366984191Y-113198770D01*
X366977739Y-113187793D01*
X366963292Y-113159290D01*
X366942297Y-113116244D01*
X366916203Y-113061638D01*
X366886454Y-112998454D01*
X366871820Y-112967071D01*
X366833750Y-112886078D01*
X366803095Y-112823756D01*
X366778263Y-112778071D01*
X366757663Y-112746989D01*
X366739702Y-112728478D01*
X366722790Y-112720504D01*
X366705335Y-112721034D01*
X366705335Y-112721034D01*
G37*
X366705335Y-112721034D02*
X366685745Y-112728035D01*
X366684990Y-112728377D01*
X366658387Y-112748678D01*
X366643730Y-112769561D01*
X366640862Y-112779352D01*
X366641004Y-112792361D01*
X366645039Y-112810895D01*
X366653854Y-112837257D01*
X366668331Y-112873752D01*
X366689355Y-112922687D01*
X366717812Y-112986365D01*
X366754585Y-113067093D01*
X366774825Y-113111216D01*
X366811375Y-113189985D01*
X366845685Y-113262423D01*
X366876448Y-113325880D01*
X366902352Y-113377708D01*
X366922090Y-113415259D01*
X366934350Y-113435884D01*
X366936776Y-113438733D01*
X366967817Y-113451302D01*
X367002879Y-113449619D01*
X367031000Y-113434332D01*
X367032146Y-113433089D01*
X367043332Y-113416154D01*
X367062096Y-113383170D01*
X367086125Y-113338380D01*
X367113103Y-113286032D01*
X367122799Y-113266742D01*
X367195986Y-113120150D01*
X367275760Y-113279393D01*
X367304233Y-113334415D01*
X367330650Y-113382132D01*
X367352852Y-113418893D01*
X367368681Y-113441044D01*
X367374046Y-113445741D01*
X367415743Y-113452102D01*
X367450151Y-113438733D01*
X367460272Y-113424446D01*
X367477786Y-113392692D01*
X367501265Y-113346597D01*
X367529280Y-113289285D01*
X367560401Y-113223880D01*
X367593201Y-113153507D01*
X367626250Y-113081291D01*
X367658119Y-113010355D01*
X367687381Y-112943825D01*
X367712605Y-112884826D01*
X367732364Y-112836481D01*
X367745228Y-112801915D01*
X367749769Y-112784253D01*
X367749723Y-112783613D01*
X367738674Y-112761388D01*
X367716590Y-112738753D01*
X367715290Y-112737768D01*
X367688147Y-112722425D01*
X367663042Y-112722574D01*
X367653632Y-112725466D01*
X367642166Y-112731718D01*
X367629990Y-112744014D01*
X367615643Y-112764908D01*
X367597664Y-112796949D01*
X367574593Y-112842688D01*
X367544970Y-112904677D01*
X367518255Y-112961898D01*
X367487520Y-113028226D01*
X367459979Y-113087874D01*
X367437062Y-113137725D01*
X367420202Y-113174664D01*
X367410827Y-113195573D01*
X367409460Y-113198845D01*
X367403311Y-113193497D01*
X367389178Y-113171109D01*
X367368943Y-113134946D01*
X367344485Y-113088277D01*
X367334752Y-113069022D01*
X367301783Y-113004004D01*
X367276357Y-112956654D01*
X367256388Y-112924219D01*
X367239790Y-112903946D01*
X367224476Y-112893082D01*
X367208360Y-112888875D01*
X367197857Y-112888400D01*
X367179330Y-112890042D01*
X367163096Y-112896831D01*
X367146965Y-112911566D01*
X367128749Y-112937044D01*
X367106261Y-112976061D01*
X367077311Y-113031414D01*
X367061338Y-113062903D01*
X367035430Y-113113087D01*
X367012833Y-113154704D01*
X366995542Y-113184242D01*
X366985550Y-113198189D01*
X366984191Y-113198770D01*
X366977739Y-113187793D01*
X366963292Y-113159290D01*
X366942297Y-113116244D01*
X366916203Y-113061638D01*
X366886454Y-112998454D01*
X366871820Y-112967071D01*
X366833750Y-112886078D01*
X366803095Y-112823756D01*
X366778263Y-112778071D01*
X366757663Y-112746989D01*
X366739702Y-112728478D01*
X366722790Y-112720504D01*
X366705335Y-112721034D01*
G36*
X369431691Y-112719275D02*
G01*
X369302712Y-112723636D01*
X369193009Y-112736861D01*
X369100774Y-112759741D01*
X369024198Y-112793070D01*
X368961473Y-112837638D01*
X368910788Y-112894236D01*
X368870337Y-112963658D01*
X368869541Y-112965351D01*
X368845399Y-113027483D01*
X368836797Y-113082509D01*
X368843769Y-113137887D01*
X368866346Y-113201073D01*
X368870628Y-113210689D01*
X368899828Y-113266966D01*
X368932644Y-113310451D01*
X368974998Y-113347417D01*
X369032810Y-113384135D01*
X369036169Y-113386052D01*
X369086496Y-113410227D01*
X369143379Y-113428282D01*
X369210473Y-113440839D01*
X369291435Y-113448522D01*
X369389918Y-113451953D01*
X369424714Y-113452251D01*
X369590406Y-113452845D01*
X369613803Y-113423100D01*
X369620743Y-113413319D01*
X369626158Y-113401897D01*
X369630235Y-113386095D01*
X369633163Y-113363175D01*
X369635133Y-113330396D01*
X369635775Y-113306089D01*
X369479156Y-113306089D01*
X369385274Y-113306089D01*
X369330336Y-113304483D01*
X369273940Y-113300255D01*
X369227655Y-113294292D01*
X369224861Y-113293790D01*
X369142652Y-113271736D01*
X369078886Y-113238600D01*
X369031548Y-113192847D01*
X368998618Y-113132939D01*
X368992892Y-113117061D01*
X368987279Y-113092333D01*
X368989709Y-113067902D01*
X369001533Y-113035400D01*
X369008660Y-113019434D01*
X369032000Y-112977006D01*
X369060120Y-112947240D01*
X369091060Y-112926511D01*
X369153034Y-112899537D01*
X369232349Y-112879998D01*
X369324747Y-112868746D01*
X369391667Y-112866270D01*
X369479156Y-112865822D01*
X369479156Y-113306089D01*
X369635775Y-113306089D01*
X369636332Y-113285021D01*
X369636950Y-113224311D01*
X369637175Y-113145526D01*
X369637200Y-113083920D01*
X369637200Y-112774485D01*
X369609491Y-112746776D01*
X369597194Y-112735544D01*
X369583897Y-112727853D01*
X369565328Y-112723040D01*
X369537214Y-112720446D01*
X369495283Y-112719410D01*
X369435263Y-112719270D01*
X369431691Y-112719275D01*
X369431691Y-112719275D01*
G37*
X369431691Y-112719275D02*
X369302712Y-112723636D01*
X369193009Y-112736861D01*
X369100774Y-112759741D01*
X369024198Y-112793070D01*
X368961473Y-112837638D01*
X368910788Y-112894236D01*
X368870337Y-112963658D01*
X368869541Y-112965351D01*
X368845399Y-113027483D01*
X368836797Y-113082509D01*
X368843769Y-113137887D01*
X368866346Y-113201073D01*
X368870628Y-113210689D01*
X368899828Y-113266966D01*
X368932644Y-113310451D01*
X368974998Y-113347417D01*
X369032810Y-113384135D01*
X369036169Y-113386052D01*
X369086496Y-113410227D01*
X369143379Y-113428282D01*
X369210473Y-113440839D01*
X369291435Y-113448522D01*
X369389918Y-113451953D01*
X369424714Y-113452251D01*
X369590406Y-113452845D01*
X369613803Y-113423100D01*
X369620743Y-113413319D01*
X369626158Y-113401897D01*
X369630235Y-113386095D01*
X369633163Y-113363175D01*
X369635133Y-113330396D01*
X369635775Y-113306089D01*
X369479156Y-113306089D01*
X369385274Y-113306089D01*
X369330336Y-113304483D01*
X369273940Y-113300255D01*
X369227655Y-113294292D01*
X369224861Y-113293790D01*
X369142652Y-113271736D01*
X369078886Y-113238600D01*
X369031548Y-113192847D01*
X368998618Y-113132939D01*
X368992892Y-113117061D01*
X368987279Y-113092333D01*
X368989709Y-113067902D01*
X369001533Y-113035400D01*
X369008660Y-113019434D01*
X369032000Y-112977006D01*
X369060120Y-112947240D01*
X369091060Y-112926511D01*
X369153034Y-112899537D01*
X369232349Y-112879998D01*
X369324747Y-112868746D01*
X369391667Y-112866270D01*
X369479156Y-112865822D01*
X369479156Y-113306089D01*
X369635775Y-113306089D01*
X369636332Y-113285021D01*
X369636950Y-113224311D01*
X369637175Y-113145526D01*
X369637200Y-113083920D01*
X369637200Y-112774485D01*
X369609491Y-112746776D01*
X369597194Y-112735544D01*
X369583897Y-112727853D01*
X369565328Y-112723040D01*
X369537214Y-112720446D01*
X369495283Y-112719410D01*
X369435263Y-112719270D01*
X369431691Y-112719275D01*
G36*
X370219657Y-112719260D02*
G01*
X370143299Y-112720174D01*
X370084783Y-112722311D01*
X370041745Y-112726175D01*
X370011817Y-112732267D01*
X369992632Y-112741090D01*
X369981824Y-112753146D01*
X369977027Y-112768939D01*
X369975873Y-112788970D01*
X369975867Y-112791335D01*
X369976869Y-112813992D01*
X369981604Y-112831503D01*
X369992667Y-112844574D01*
X370012652Y-112853913D01*
X370044154Y-112860227D01*
X370089768Y-112864222D01*
X370152087Y-112866606D01*
X370233707Y-112868086D01*
X370258723Y-112868414D01*
X370500800Y-112871467D01*
X370504186Y-112936378D01*
X370507571Y-113001289D01*
X370339424Y-113001289D01*
X370273734Y-113001531D01*
X370226828Y-113002556D01*
X370194917Y-113004811D01*
X370174209Y-113008742D01*
X370160916Y-113014798D01*
X370151245Y-113023424D01*
X370151183Y-113023493D01*
X370133644Y-113057112D01*
X370134278Y-113093448D01*
X370152686Y-113124423D01*
X370156329Y-113127607D01*
X370169259Y-113135812D01*
X370186976Y-113141521D01*
X370213430Y-113145162D01*
X370252568Y-113147167D01*
X370308338Y-113147964D01*
X370344006Y-113148045D01*
X370506445Y-113148045D01*
X370506445Y-113306089D01*
X370259839Y-113306089D01*
X370178420Y-113306231D01*
X370116590Y-113306814D01*
X370071363Y-113308068D01*
X370039752Y-113310227D01*
X370018769Y-113313523D01*
X370005427Y-113318189D01*
X369996739Y-113324457D01*
X369994550Y-113326733D01*
X369978386Y-113358280D01*
X369977203Y-113394168D01*
X369990464Y-113425285D01*
X370000957Y-113435271D01*
X370011871Y-113440769D01*
X370028783Y-113445022D01*
X370054367Y-113448180D01*
X370091299Y-113450392D01*
X370142254Y-113451806D01*
X370209906Y-113452572D01*
X370296931Y-113452838D01*
X370316606Y-113452845D01*
X370405089Y-113452787D01*
X370473773Y-113452467D01*
X370525436Y-113451667D01*
X370562855Y-113450167D01*
X370588810Y-113447749D01*
X370606078Y-113444194D01*
X370617438Y-113439282D01*
X370625668Y-113432795D01*
X370630183Y-113428138D01*
X370636979Y-113419889D01*
X370642288Y-113409669D01*
X370646294Y-113394800D01*
X370649179Y-113372602D01*
X370651126Y-113340393D01*
X370652319Y-113295496D01*
X370652939Y-113235228D01*
X370653171Y-113156911D01*
X370653200Y-113090994D01*
X370653129Y-112998628D01*
X370652792Y-112926117D01*
X370652002Y-112870737D01*
X370650574Y-112829765D01*
X370648321Y-112800478D01*
X370645057Y-112780153D01*
X370640596Y-112766066D01*
X370634752Y-112755495D01*
X370629803Y-112748811D01*
X370606406Y-112719067D01*
X370316226Y-112719067D01*
X370219657Y-112719260D01*
X370219657Y-112719260D01*
G37*
X370219657Y-112719260D02*
X370143299Y-112720174D01*
X370084783Y-112722311D01*
X370041745Y-112726175D01*
X370011817Y-112732267D01*
X369992632Y-112741090D01*
X369981824Y-112753146D01*
X369977027Y-112768939D01*
X369975873Y-112788970D01*
X369975867Y-112791335D01*
X369976869Y-112813992D01*
X369981604Y-112831503D01*
X369992667Y-112844574D01*
X370012652Y-112853913D01*
X370044154Y-112860227D01*
X370089768Y-112864222D01*
X370152087Y-112866606D01*
X370233707Y-112868086D01*
X370258723Y-112868414D01*
X370500800Y-112871467D01*
X370504186Y-112936378D01*
X370507571Y-113001289D01*
X370339424Y-113001289D01*
X370273734Y-113001531D01*
X370226828Y-113002556D01*
X370194917Y-113004811D01*
X370174209Y-113008742D01*
X370160916Y-113014798D01*
X370151245Y-113023424D01*
X370151183Y-113023493D01*
X370133644Y-113057112D01*
X370134278Y-113093448D01*
X370152686Y-113124423D01*
X370156329Y-113127607D01*
X370169259Y-113135812D01*
X370186976Y-113141521D01*
X370213430Y-113145162D01*
X370252568Y-113147167D01*
X370308338Y-113147964D01*
X370344006Y-113148045D01*
X370506445Y-113148045D01*
X370506445Y-113306089D01*
X370259839Y-113306089D01*
X370178420Y-113306231D01*
X370116590Y-113306814D01*
X370071363Y-113308068D01*
X370039752Y-113310227D01*
X370018769Y-113313523D01*
X370005427Y-113318189D01*
X369996739Y-113324457D01*
X369994550Y-113326733D01*
X369978386Y-113358280D01*
X369977203Y-113394168D01*
X369990464Y-113425285D01*
X370000957Y-113435271D01*
X370011871Y-113440769D01*
X370028783Y-113445022D01*
X370054367Y-113448180D01*
X370091299Y-113450392D01*
X370142254Y-113451806D01*
X370209906Y-113452572D01*
X370296931Y-113452838D01*
X370316606Y-113452845D01*
X370405089Y-113452787D01*
X370473773Y-113452467D01*
X370525436Y-113451667D01*
X370562855Y-113450167D01*
X370588810Y-113447749D01*
X370606078Y-113444194D01*
X370617438Y-113439282D01*
X370625668Y-113432795D01*
X370630183Y-113428138D01*
X370636979Y-113419889D01*
X370642288Y-113409669D01*
X370646294Y-113394800D01*
X370649179Y-113372602D01*
X370651126Y-113340393D01*
X370652319Y-113295496D01*
X370652939Y-113235228D01*
X370653171Y-113156911D01*
X370653200Y-113090994D01*
X370653129Y-112998628D01*
X370652792Y-112926117D01*
X370652002Y-112870737D01*
X370650574Y-112829765D01*
X370648321Y-112800478D01*
X370645057Y-112780153D01*
X370640596Y-112766066D01*
X370634752Y-112755495D01*
X370629803Y-112748811D01*
X370606406Y-112719067D01*
X370316226Y-112719067D01*
X370219657Y-112719260D01*
G36*
X371750114Y-112723448D02*
G01*
X371726548Y-112737273D01*
X371695735Y-112759881D01*
X371656078Y-112792338D01*
X371605980Y-112835708D01*
X371543843Y-112891058D01*
X371468072Y-112959451D01*
X371381334Y-113038084D01*
X371200711Y-113201878D01*
X371195067Y-112982029D01*
X371193029Y-112906351D01*
X371191063Y-112849994D01*
X371188734Y-112809706D01*
X371185606Y-112782235D01*
X371181245Y-112764329D01*
X371175216Y-112752737D01*
X371167084Y-112744208D01*
X371162772Y-112740623D01*
X371128241Y-112721670D01*
X371095383Y-112724441D01*
X371069318Y-112740633D01*
X371042667Y-112762199D01*
X371039352Y-113077151D01*
X371038435Y-113169779D01*
X371037968Y-113242544D01*
X371038113Y-113298161D01*
X371039032Y-113339342D01*
X371040887Y-113368803D01*
X371043839Y-113389255D01*
X371048050Y-113403413D01*
X371053682Y-113413991D01*
X371059927Y-113422474D01*
X371073439Y-113438207D01*
X371086883Y-113448636D01*
X371102124Y-113452639D01*
X371121026Y-113449094D01*
X371145455Y-113436879D01*
X371177273Y-113414871D01*
X371218348Y-113381949D01*
X371270542Y-113336991D01*
X371335722Y-113278875D01*
X371409556Y-113212099D01*
X371674845Y-112971458D01*
X371680489Y-113190589D01*
X371682531Y-113266128D01*
X371684502Y-113322354D01*
X371686839Y-113362524D01*
X371689981Y-113389896D01*
X371694364Y-113407728D01*
X371700424Y-113419279D01*
X371708600Y-113427807D01*
X371712784Y-113431282D01*
X371749765Y-113450372D01*
X371784708Y-113447493D01*
X371815136Y-113423100D01*
X371822097Y-113413286D01*
X371827523Y-113401826D01*
X371831603Y-113385968D01*
X371834529Y-113362963D01*
X371836492Y-113330062D01*
X371837683Y-113284516D01*
X371838292Y-113223573D01*
X371838511Y-113144486D01*
X371838534Y-113085956D01*
X371838460Y-112994407D01*
X371838113Y-112922687D01*
X371837301Y-112868045D01*
X371835833Y-112827732D01*
X371833519Y-112798998D01*
X371830167Y-112779093D01*
X371825588Y-112765268D01*
X371819589Y-112754772D01*
X371815136Y-112748811D01*
X371803850Y-112734691D01*
X371793301Y-112724029D01*
X371781893Y-112717892D01*
X371768030Y-112717343D01*
X371750114Y-112723448D01*
X371750114Y-112723448D01*
G37*
X371750114Y-112723448D02*
X371726548Y-112737273D01*
X371695735Y-112759881D01*
X371656078Y-112792338D01*
X371605980Y-112835708D01*
X371543843Y-112891058D01*
X371468072Y-112959451D01*
X371381334Y-113038084D01*
X371200711Y-113201878D01*
X371195067Y-112982029D01*
X371193029Y-112906351D01*
X371191063Y-112849994D01*
X371188734Y-112809706D01*
X371185606Y-112782235D01*
X371181245Y-112764329D01*
X371175216Y-112752737D01*
X371167084Y-112744208D01*
X371162772Y-112740623D01*
X371128241Y-112721670D01*
X371095383Y-112724441D01*
X371069318Y-112740633D01*
X371042667Y-112762199D01*
X371039352Y-113077151D01*
X371038435Y-113169779D01*
X371037968Y-113242544D01*
X371038113Y-113298161D01*
X371039032Y-113339342D01*
X371040887Y-113368803D01*
X371043839Y-113389255D01*
X371048050Y-113403413D01*
X371053682Y-113413991D01*
X371059927Y-113422474D01*
X371073439Y-113438207D01*
X371086883Y-113448636D01*
X371102124Y-113452639D01*
X371121026Y-113449094D01*
X371145455Y-113436879D01*
X371177273Y-113414871D01*
X371218348Y-113381949D01*
X371270542Y-113336991D01*
X371335722Y-113278875D01*
X371409556Y-113212099D01*
X371674845Y-112971458D01*
X371680489Y-113190589D01*
X371682531Y-113266128D01*
X371684502Y-113322354D01*
X371686839Y-113362524D01*
X371689981Y-113389896D01*
X371694364Y-113407728D01*
X371700424Y-113419279D01*
X371708600Y-113427807D01*
X371712784Y-113431282D01*
X371749765Y-113450372D01*
X371784708Y-113447493D01*
X371815136Y-113423100D01*
X371822097Y-113413286D01*
X371827523Y-113401826D01*
X371831603Y-113385968D01*
X371834529Y-113362963D01*
X371836492Y-113330062D01*
X371837683Y-113284516D01*
X371838292Y-113223573D01*
X371838511Y-113144486D01*
X371838534Y-113085956D01*
X371838460Y-112994407D01*
X371838113Y-112922687D01*
X371837301Y-112868045D01*
X371835833Y-112827732D01*
X371833519Y-112798998D01*
X371830167Y-112779093D01*
X371825588Y-112765268D01*
X371819589Y-112754772D01*
X371815136Y-112748811D01*
X371803850Y-112734691D01*
X371793301Y-112724029D01*
X371781893Y-112717892D01*
X371768030Y-112717343D01*
X371750114Y-112723448D01*
G36*
X372400081Y-112724599D02*
G01*
X372331565Y-112736095D01*
X372278943Y-112753967D01*
X372244708Y-112777499D01*
X372235379Y-112790924D01*
X372225893Y-112822148D01*
X372232277Y-112850395D01*
X372252430Y-112877182D01*
X372283745Y-112889713D01*
X372329183Y-112888696D01*
X372364326Y-112881906D01*
X372442419Y-112868971D01*
X372522226Y-112867742D01*
X372611555Y-112878241D01*
X372636229Y-112882690D01*
X372719291Y-112906108D01*
X372784273Y-112940945D01*
X372830461Y-112986604D01*
X372857145Y-113042494D01*
X372862663Y-113071388D01*
X372859051Y-113130012D01*
X372835729Y-113181879D01*
X372794824Y-113225978D01*
X372738459Y-113261299D01*
X372668760Y-113286829D01*
X372587852Y-113301559D01*
X372497860Y-113304478D01*
X372400910Y-113294575D01*
X372395436Y-113293641D01*
X372356875Y-113286459D01*
X372335494Y-113279521D01*
X372326227Y-113269227D01*
X372324006Y-113251976D01*
X372323956Y-113242841D01*
X372323956Y-113204489D01*
X372392431Y-113204489D01*
X372452900Y-113200347D01*
X372494165Y-113187147D01*
X372518175Y-113163730D01*
X372526877Y-113128936D01*
X372526983Y-113124394D01*
X372521892Y-113094654D01*
X372504433Y-113073419D01*
X372471939Y-113059366D01*
X372421743Y-113051173D01*
X372373123Y-113048161D01*
X372302456Y-113046433D01*
X372251198Y-113049070D01*
X372216239Y-113058800D01*
X372194470Y-113078353D01*
X372182780Y-113110456D01*
X372178060Y-113157838D01*
X372177200Y-113220071D01*
X372178609Y-113289535D01*
X372182848Y-113336786D01*
X372189936Y-113362012D01*
X372191311Y-113363988D01*
X372230228Y-113395508D01*
X372287286Y-113420470D01*
X372358869Y-113438340D01*
X372441358Y-113448586D01*
X372531139Y-113450673D01*
X372624592Y-113444068D01*
X372679556Y-113435956D01*
X372765766Y-113411554D01*
X372845892Y-113371662D01*
X372912977Y-113319887D01*
X372923173Y-113309539D01*
X372956302Y-113266035D01*
X372986194Y-113212118D01*
X373009357Y-113155592D01*
X373022298Y-113104259D01*
X373023858Y-113084544D01*
X373017218Y-113043419D01*
X372999568Y-112992252D01*
X372974297Y-112938394D01*
X372944789Y-112889195D01*
X372918719Y-112856334D01*
X372857765Y-112807452D01*
X372778969Y-112768545D01*
X372685157Y-112740494D01*
X372579150Y-112724179D01*
X372482000Y-112720192D01*
X372400081Y-112724599D01*
X372400081Y-112724599D01*
G37*
X372400081Y-112724599D02*
X372331565Y-112736095D01*
X372278943Y-112753967D01*
X372244708Y-112777499D01*
X372235379Y-112790924D01*
X372225893Y-112822148D01*
X372232277Y-112850395D01*
X372252430Y-112877182D01*
X372283745Y-112889713D01*
X372329183Y-112888696D01*
X372364326Y-112881906D01*
X372442419Y-112868971D01*
X372522226Y-112867742D01*
X372611555Y-112878241D01*
X372636229Y-112882690D01*
X372719291Y-112906108D01*
X372784273Y-112940945D01*
X372830461Y-112986604D01*
X372857145Y-113042494D01*
X372862663Y-113071388D01*
X372859051Y-113130012D01*
X372835729Y-113181879D01*
X372794824Y-113225978D01*
X372738459Y-113261299D01*
X372668760Y-113286829D01*
X372587852Y-113301559D01*
X372497860Y-113304478D01*
X372400910Y-113294575D01*
X372395436Y-113293641D01*
X372356875Y-113286459D01*
X372335494Y-113279521D01*
X372326227Y-113269227D01*
X372324006Y-113251976D01*
X372323956Y-113242841D01*
X372323956Y-113204489D01*
X372392431Y-113204489D01*
X372452900Y-113200347D01*
X372494165Y-113187147D01*
X372518175Y-113163730D01*
X372526877Y-113128936D01*
X372526983Y-113124394D01*
X372521892Y-113094654D01*
X372504433Y-113073419D01*
X372471939Y-113059366D01*
X372421743Y-113051173D01*
X372373123Y-113048161D01*
X372302456Y-113046433D01*
X372251198Y-113049070D01*
X372216239Y-113058800D01*
X372194470Y-113078353D01*
X372182780Y-113110456D01*
X372178060Y-113157838D01*
X372177200Y-113220071D01*
X372178609Y-113289535D01*
X372182848Y-113336786D01*
X372189936Y-113362012D01*
X372191311Y-113363988D01*
X372230228Y-113395508D01*
X372287286Y-113420470D01*
X372358869Y-113438340D01*
X372441358Y-113448586D01*
X372531139Y-113450673D01*
X372624592Y-113444068D01*
X372679556Y-113435956D01*
X372765766Y-113411554D01*
X372845892Y-113371662D01*
X372912977Y-113319887D01*
X372923173Y-113309539D01*
X372956302Y-113266035D01*
X372986194Y-113212118D01*
X373009357Y-113155592D01*
X373022298Y-113104259D01*
X373023858Y-113084544D01*
X373017218Y-113043419D01*
X372999568Y-112992252D01*
X372974297Y-112938394D01*
X372944789Y-112889195D01*
X372918719Y-112856334D01*
X372857765Y-112807452D01*
X372778969Y-112768545D01*
X372685157Y-112740494D01*
X372579150Y-112724179D01*
X372482000Y-112720192D01*
X372400081Y-112724599D01*
G36*
X373373822Y-112741645D02*
G01*
X373367242Y-112749218D01*
X373362079Y-112758987D01*
X373358164Y-112773571D01*
X373355324Y-112795585D01*
X373353387Y-112827648D01*
X373352183Y-112872375D01*
X373351539Y-112932385D01*
X373351284Y-113010294D01*
X373351245Y-113085956D01*
X373351314Y-113179802D01*
X373351638Y-113253689D01*
X373352386Y-113310232D01*
X373353732Y-113352049D01*
X373355846Y-113381757D01*
X373358900Y-113401973D01*
X373363066Y-113415314D01*
X373368516Y-113424398D01*
X373373822Y-113430267D01*
X373406826Y-113449947D01*
X373441991Y-113448181D01*
X373473455Y-113426717D01*
X373480684Y-113418337D01*
X373486334Y-113408614D01*
X373490599Y-113394861D01*
X373493673Y-113374389D01*
X373495752Y-113344512D01*
X373497030Y-113302541D01*
X373497701Y-113245789D01*
X373497959Y-113171567D01*
X373498000Y-113087537D01*
X373498000Y-112774485D01*
X373470291Y-112746776D01*
X373436137Y-112723463D01*
X373403006Y-112722623D01*
X373373822Y-112741645D01*
X373373822Y-112741645D01*
G37*
X373373822Y-112741645D02*
X373367242Y-112749218D01*
X373362079Y-112758987D01*
X373358164Y-112773571D01*
X373355324Y-112795585D01*
X373353387Y-112827648D01*
X373352183Y-112872375D01*
X373351539Y-112932385D01*
X373351284Y-113010294D01*
X373351245Y-113085956D01*
X373351314Y-113179802D01*
X373351638Y-113253689D01*
X373352386Y-113310232D01*
X373353732Y-113352049D01*
X373355846Y-113381757D01*
X373358900Y-113401973D01*
X373363066Y-113415314D01*
X373368516Y-113424398D01*
X373373822Y-113430267D01*
X373406826Y-113449947D01*
X373441991Y-113448181D01*
X373473455Y-113426717D01*
X373480684Y-113418337D01*
X373486334Y-113408614D01*
X373490599Y-113394861D01*
X373493673Y-113374389D01*
X373495752Y-113344512D01*
X373497030Y-113302541D01*
X373497701Y-113245789D01*
X373497959Y-113171567D01*
X373498000Y-113087537D01*
X373498000Y-112774485D01*
X373470291Y-112746776D01*
X373436137Y-112723463D01*
X373403006Y-112722623D01*
X373373822Y-112741645D01*
G36*
X374141703Y-112720351D02*
G01*
X374066888Y-112725581D01*
X373997306Y-112733750D01*
X373937002Y-112744550D01*
X373890020Y-112757673D01*
X373860406Y-112772813D01*
X373855860Y-112777269D01*
X373840054Y-112811850D01*
X373844847Y-112847351D01*
X373869364Y-112877725D01*
X373870534Y-112878596D01*
X373884954Y-112887954D01*
X373900008Y-112892876D01*
X373921005Y-112893473D01*
X373953257Y-112889861D01*
X374002073Y-112882154D01*
X374006000Y-112881505D01*
X374078739Y-112872569D01*
X374157217Y-112868161D01*
X374235927Y-112868119D01*
X374309361Y-112872279D01*
X374372011Y-112880479D01*
X374418370Y-112892557D01*
X374421416Y-112893771D01*
X374455048Y-112912615D01*
X374466864Y-112931685D01*
X374457614Y-112950439D01*
X374428047Y-112968337D01*
X374378911Y-112984837D01*
X374310957Y-112999396D01*
X374265645Y-113006406D01*
X374171456Y-113019889D01*
X374096544Y-113032214D01*
X374037717Y-113044449D01*
X373991785Y-113057661D01*
X373955555Y-113072917D01*
X373925838Y-113091285D01*
X373899442Y-113113831D01*
X373878230Y-113135971D01*
X373853065Y-113166819D01*
X373840681Y-113193345D01*
X373836808Y-113226026D01*
X373836667Y-113237995D01*
X373839576Y-113277712D01*
X373851202Y-113307259D01*
X373871323Y-113333486D01*
X373912216Y-113373576D01*
X373957817Y-113404149D01*
X374011513Y-113426203D01*
X374076692Y-113440735D01*
X374156744Y-113448741D01*
X374255057Y-113451218D01*
X374271289Y-113451177D01*
X374336849Y-113449818D01*
X374401866Y-113446730D01*
X374459252Y-113442356D01*
X374501922Y-113437140D01*
X374505372Y-113436541D01*
X374547796Y-113426491D01*
X374583780Y-113413796D01*
X374604150Y-113402190D01*
X374623107Y-113371572D01*
X374624427Y-113335918D01*
X374608085Y-113304144D01*
X374604429Y-113300551D01*
X374589315Y-113289876D01*
X374570415Y-113285276D01*
X374541162Y-113286059D01*
X374505651Y-113290127D01*
X374465970Y-113293762D01*
X374410345Y-113296828D01*
X374345406Y-113299053D01*
X374277785Y-113300164D01*
X374260000Y-113300237D01*
X374192128Y-113299964D01*
X374142454Y-113298646D01*
X374106610Y-113295827D01*
X374080224Y-113291050D01*
X374058926Y-113283857D01*
X374046126Y-113277867D01*
X374018000Y-113261233D01*
X374000068Y-113246168D01*
X373997447Y-113241897D01*
X374002976Y-113224263D01*
X374029260Y-113207192D01*
X374074478Y-113191458D01*
X374136808Y-113177838D01*
X374155171Y-113174804D01*
X374251090Y-113159738D01*
X374327641Y-113147146D01*
X374387780Y-113136111D01*
X374434460Y-113125720D01*
X374470637Y-113115056D01*
X374499265Y-113103205D01*
X374523298Y-113089251D01*
X374545692Y-113072281D01*
X374569402Y-113051378D01*
X374577380Y-113044049D01*
X374605353Y-113016699D01*
X374620160Y-112995029D01*
X374625952Y-112970232D01*
X374626889Y-112938983D01*
X374616575Y-112877705D01*
X374585752Y-112825640D01*
X374534595Y-112782958D01*
X374463283Y-112749825D01*
X374412400Y-112734964D01*
X374357100Y-112725366D01*
X374290853Y-112719936D01*
X374217706Y-112718367D01*
X374141703Y-112720351D01*
X374141703Y-112720351D01*
G37*
X374141703Y-112720351D02*
X374066888Y-112725581D01*
X373997306Y-112733750D01*
X373937002Y-112744550D01*
X373890020Y-112757673D01*
X373860406Y-112772813D01*
X373855860Y-112777269D01*
X373840054Y-112811850D01*
X373844847Y-112847351D01*
X373869364Y-112877725D01*
X373870534Y-112878596D01*
X373884954Y-112887954D01*
X373900008Y-112892876D01*
X373921005Y-112893473D01*
X373953257Y-112889861D01*
X374002073Y-112882154D01*
X374006000Y-112881505D01*
X374078739Y-112872569D01*
X374157217Y-112868161D01*
X374235927Y-112868119D01*
X374309361Y-112872279D01*
X374372011Y-112880479D01*
X374418370Y-112892557D01*
X374421416Y-112893771D01*
X374455048Y-112912615D01*
X374466864Y-112931685D01*
X374457614Y-112950439D01*
X374428047Y-112968337D01*
X374378911Y-112984837D01*
X374310957Y-112999396D01*
X374265645Y-113006406D01*
X374171456Y-113019889D01*
X374096544Y-113032214D01*
X374037717Y-113044449D01*
X373991785Y-113057661D01*
X373955555Y-113072917D01*
X373925838Y-113091285D01*
X373899442Y-113113831D01*
X373878230Y-113135971D01*
X373853065Y-113166819D01*
X373840681Y-113193345D01*
X373836808Y-113226026D01*
X373836667Y-113237995D01*
X373839576Y-113277712D01*
X373851202Y-113307259D01*
X373871323Y-113333486D01*
X373912216Y-113373576D01*
X373957817Y-113404149D01*
X374011513Y-113426203D01*
X374076692Y-113440735D01*
X374156744Y-113448741D01*
X374255057Y-113451218D01*
X374271289Y-113451177D01*
X374336849Y-113449818D01*
X374401866Y-113446730D01*
X374459252Y-113442356D01*
X374501922Y-113437140D01*
X374505372Y-113436541D01*
X374547796Y-113426491D01*
X374583780Y-113413796D01*
X374604150Y-113402190D01*
X374623107Y-113371572D01*
X374624427Y-113335918D01*
X374608085Y-113304144D01*
X374604429Y-113300551D01*
X374589315Y-113289876D01*
X374570415Y-113285276D01*
X374541162Y-113286059D01*
X374505651Y-113290127D01*
X374465970Y-113293762D01*
X374410345Y-113296828D01*
X374345406Y-113299053D01*
X374277785Y-113300164D01*
X374260000Y-113300237D01*
X374192128Y-113299964D01*
X374142454Y-113298646D01*
X374106610Y-113295827D01*
X374080224Y-113291050D01*
X374058926Y-113283857D01*
X374046126Y-113277867D01*
X374018000Y-113261233D01*
X374000068Y-113246168D01*
X373997447Y-113241897D01*
X374002976Y-113224263D01*
X374029260Y-113207192D01*
X374074478Y-113191458D01*
X374136808Y-113177838D01*
X374155171Y-113174804D01*
X374251090Y-113159738D01*
X374327641Y-113147146D01*
X374387780Y-113136111D01*
X374434460Y-113125720D01*
X374470637Y-113115056D01*
X374499265Y-113103205D01*
X374523298Y-113089251D01*
X374545692Y-113072281D01*
X374569402Y-113051378D01*
X374577380Y-113044049D01*
X374605353Y-113016699D01*
X374620160Y-112995029D01*
X374625952Y-112970232D01*
X374626889Y-112938983D01*
X374616575Y-112877705D01*
X374585752Y-112825640D01*
X374534595Y-112782958D01*
X374463283Y-112749825D01*
X374412400Y-112734964D01*
X374357100Y-112725366D01*
X374290853Y-112719936D01*
X374217706Y-112718367D01*
X374141703Y-112720351D01*
G36*
X375162794Y-112719146D02*
G01*
X375093386Y-112719518D01*
X375040997Y-112720385D01*
X375002847Y-112721946D01*
X374976159Y-112724403D01*
X374958153Y-112727957D01*
X374946049Y-112732810D01*
X374937069Y-112739161D01*
X374933818Y-112742084D01*
X374914043Y-112773142D01*
X374910482Y-112808828D01*
X374923491Y-112840510D01*
X374929506Y-112846913D01*
X374939235Y-112853121D01*
X374954901Y-112857910D01*
X374979408Y-112861514D01*
X375015661Y-112864164D01*
X375066565Y-112866095D01*
X375135026Y-112867539D01*
X375197617Y-112868418D01*
X375445334Y-112871467D01*
X375448719Y-112936378D01*
X375452105Y-113001289D01*
X375283958Y-113001289D01*
X375210959Y-113001919D01*
X375157517Y-113004553D01*
X375120628Y-113010309D01*
X375097288Y-113020304D01*
X375084494Y-113035656D01*
X375079242Y-113057482D01*
X375078445Y-113077738D01*
X375080923Y-113102592D01*
X375090277Y-113120906D01*
X375109383Y-113133637D01*
X375141118Y-113141741D01*
X375188359Y-113146176D01*
X375253983Y-113147899D01*
X375289801Y-113148045D01*
X375450978Y-113148045D01*
X375450978Y-113306089D01*
X375202622Y-113306089D01*
X375121213Y-113306202D01*
X375059342Y-113306712D01*
X375013968Y-113307870D01*
X374982054Y-113309930D01*
X374960559Y-113313146D01*
X374946443Y-113317772D01*
X374936668Y-113324059D01*
X374931689Y-113328667D01*
X374914610Y-113355560D01*
X374909111Y-113379467D01*
X374916963Y-113408667D01*
X374931689Y-113430267D01*
X374939546Y-113437066D01*
X374949688Y-113442346D01*
X374964844Y-113446298D01*
X374987741Y-113449113D01*
X375021109Y-113450982D01*
X375067675Y-113452098D01*
X375130167Y-113452651D01*
X375211314Y-113452833D01*
X375253422Y-113452845D01*
X375343598Y-113452765D01*
X375413924Y-113452398D01*
X375467129Y-113451552D01*
X375505940Y-113450036D01*
X375533087Y-113447659D01*
X375551298Y-113444229D01*
X375563300Y-113439554D01*
X375571822Y-113433444D01*
X375575156Y-113430267D01*
X375581755Y-113422670D01*
X375586927Y-113412870D01*
X375590846Y-113398239D01*
X375593684Y-113376152D01*
X375595615Y-113343982D01*
X375596812Y-113299103D01*
X375597448Y-113238889D01*
X375597697Y-113160713D01*
X375597734Y-113087923D01*
X375597700Y-112994707D01*
X375597465Y-112921431D01*
X375596830Y-112865458D01*
X375595594Y-112824151D01*
X375593556Y-112794872D01*
X375590517Y-112774984D01*
X375586277Y-112761850D01*
X375580635Y-112752832D01*
X375573391Y-112745293D01*
X375571606Y-112743612D01*
X375562945Y-112736172D01*
X375552882Y-112730409D01*
X375538625Y-112726112D01*
X375517383Y-112723064D01*
X375486364Y-112721051D01*
X375442777Y-112719860D01*
X375383831Y-112719275D01*
X375306734Y-112719083D01*
X375252001Y-112719067D01*
X375162794Y-112719146D01*
X375162794Y-112719146D01*
G37*
X375162794Y-112719146D02*
X375093386Y-112719518D01*
X375040997Y-112720385D01*
X375002847Y-112721946D01*
X374976159Y-112724403D01*
X374958153Y-112727957D01*
X374946049Y-112732810D01*
X374937069Y-112739161D01*
X374933818Y-112742084D01*
X374914043Y-112773142D01*
X374910482Y-112808828D01*
X374923491Y-112840510D01*
X374929506Y-112846913D01*
X374939235Y-112853121D01*
X374954901Y-112857910D01*
X374979408Y-112861514D01*
X375015661Y-112864164D01*
X375066565Y-112866095D01*
X375135026Y-112867539D01*
X375197617Y-112868418D01*
X375445334Y-112871467D01*
X375448719Y-112936378D01*
X375452105Y-113001289D01*
X375283958Y-113001289D01*
X375210959Y-113001919D01*
X375157517Y-113004553D01*
X375120628Y-113010309D01*
X375097288Y-113020304D01*
X375084494Y-113035656D01*
X375079242Y-113057482D01*
X375078445Y-113077738D01*
X375080923Y-113102592D01*
X375090277Y-113120906D01*
X375109383Y-113133637D01*
X375141118Y-113141741D01*
X375188359Y-113146176D01*
X375253983Y-113147899D01*
X375289801Y-113148045D01*
X375450978Y-113148045D01*
X375450978Y-113306089D01*
X375202622Y-113306089D01*
X375121213Y-113306202D01*
X375059342Y-113306712D01*
X375013968Y-113307870D01*
X374982054Y-113309930D01*
X374960559Y-113313146D01*
X374946443Y-113317772D01*
X374936668Y-113324059D01*
X374931689Y-113328667D01*
X374914610Y-113355560D01*
X374909111Y-113379467D01*
X374916963Y-113408667D01*
X374931689Y-113430267D01*
X374939546Y-113437066D01*
X374949688Y-113442346D01*
X374964844Y-113446298D01*
X374987741Y-113449113D01*
X375021109Y-113450982D01*
X375067675Y-113452098D01*
X375130167Y-113452651D01*
X375211314Y-113452833D01*
X375253422Y-113452845D01*
X375343598Y-113452765D01*
X375413924Y-113452398D01*
X375467129Y-113451552D01*
X375505940Y-113450036D01*
X375533087Y-113447659D01*
X375551298Y-113444229D01*
X375563300Y-113439554D01*
X375571822Y-113433444D01*
X375575156Y-113430267D01*
X375581755Y-113422670D01*
X375586927Y-113412870D01*
X375590846Y-113398239D01*
X375593684Y-113376152D01*
X375595615Y-113343982D01*
X375596812Y-113299103D01*
X375597448Y-113238889D01*
X375597697Y-113160713D01*
X375597734Y-113087923D01*
X375597700Y-112994707D01*
X375597465Y-112921431D01*
X375596830Y-112865458D01*
X375595594Y-112824151D01*
X375593556Y-112794872D01*
X375590517Y-112774984D01*
X375586277Y-112761850D01*
X375580635Y-112752832D01*
X375573391Y-112745293D01*
X375571606Y-112743612D01*
X375562945Y-112736172D01*
X375552882Y-112730409D01*
X375538625Y-112726112D01*
X375517383Y-112723064D01*
X375486364Y-112721051D01*
X375442777Y-112719860D01*
X375383831Y-112719275D01*
X375306734Y-112719083D01*
X375252001Y-112719067D01*
X375162794Y-112719146D01*
G36*
X376571371Y-112719066D02*
G01*
X376531889Y-112719467D01*
X376416200Y-112722259D01*
X376319311Y-112730550D01*
X376237919Y-112745232D01*
X376168723Y-112767193D01*
X376108420Y-112797322D01*
X376053708Y-112836510D01*
X376034167Y-112853532D01*
X376001750Y-112893363D01*
X375972520Y-112947413D01*
X375949991Y-113007323D01*
X375937679Y-113064739D01*
X375936400Y-113085956D01*
X375944417Y-113144769D01*
X375965899Y-113209013D01*
X375996999Y-113269821D01*
X376033866Y-113318330D01*
X376039854Y-113324182D01*
X376090579Y-113365321D01*
X376146125Y-113397435D01*
X376209696Y-113421365D01*
X376284494Y-113437953D01*
X376373722Y-113448041D01*
X376480582Y-113452469D01*
X376529528Y-113452845D01*
X376591762Y-113452545D01*
X376635528Y-113451292D01*
X376664931Y-113448554D01*
X376684079Y-113443801D01*
X376697077Y-113436501D01*
X376704045Y-113430267D01*
X376710626Y-113422694D01*
X376715788Y-113412924D01*
X376719703Y-113398340D01*
X376722543Y-113376326D01*
X376724480Y-113344264D01*
X376725684Y-113299536D01*
X376726328Y-113239526D01*
X376726583Y-113161617D01*
X376726622Y-113085956D01*
X376726870Y-112985041D01*
X376726817Y-112904427D01*
X376725857Y-112865822D01*
X376579867Y-112865822D01*
X376579867Y-113306089D01*
X376486734Y-113306004D01*
X376430693Y-113304396D01*
X376371999Y-113300256D01*
X376323028Y-113294464D01*
X376321538Y-113294226D01*
X376242392Y-113275090D01*
X376181002Y-113245287D01*
X376134305Y-113202878D01*
X376104635Y-113156961D01*
X376086353Y-113106026D01*
X376087771Y-113058200D01*
X376108988Y-113006933D01*
X376150489Y-112953899D01*
X376207998Y-112914600D01*
X376282750Y-112888331D01*
X376332708Y-112879035D01*
X376389416Y-112872507D01*
X376449519Y-112867782D01*
X376500639Y-112865817D01*
X376503667Y-112865808D01*
X376579867Y-112865822D01*
X376725857Y-112865822D01*
X376725260Y-112841851D01*
X376720998Y-112795055D01*
X376712830Y-112761778D01*
X376699556Y-112739759D01*
X376679974Y-112726739D01*
X376652883Y-112720457D01*
X376617082Y-112718653D01*
X376571371Y-112719066D01*
X376571371Y-112719066D01*
G37*
X376571371Y-112719066D02*
X376531889Y-112719467D01*
X376416200Y-112722259D01*
X376319311Y-112730550D01*
X376237919Y-112745232D01*
X376168723Y-112767193D01*
X376108420Y-112797322D01*
X376053708Y-112836510D01*
X376034167Y-112853532D01*
X376001750Y-112893363D01*
X375972520Y-112947413D01*
X375949991Y-113007323D01*
X375937679Y-113064739D01*
X375936400Y-113085956D01*
X375944417Y-113144769D01*
X375965899Y-113209013D01*
X375996999Y-113269821D01*
X376033866Y-113318330D01*
X376039854Y-113324182D01*
X376090579Y-113365321D01*
X376146125Y-113397435D01*
X376209696Y-113421365D01*
X376284494Y-113437953D01*
X376373722Y-113448041D01*
X376480582Y-113452469D01*
X376529528Y-113452845D01*
X376591762Y-113452545D01*
X376635528Y-113451292D01*
X376664931Y-113448554D01*
X376684079Y-113443801D01*
X376697077Y-113436501D01*
X376704045Y-113430267D01*
X376710626Y-113422694D01*
X376715788Y-113412924D01*
X376719703Y-113398340D01*
X376722543Y-113376326D01*
X376724480Y-113344264D01*
X376725684Y-113299536D01*
X376726328Y-113239526D01*
X376726583Y-113161617D01*
X376726622Y-113085956D01*
X376726870Y-112985041D01*
X376726817Y-112904427D01*
X376725857Y-112865822D01*
X376579867Y-112865822D01*
X376579867Y-113306089D01*
X376486734Y-113306004D01*
X376430693Y-113304396D01*
X376371999Y-113300256D01*
X376323028Y-113294464D01*
X376321538Y-113294226D01*
X376242392Y-113275090D01*
X376181002Y-113245287D01*
X376134305Y-113202878D01*
X376104635Y-113156961D01*
X376086353Y-113106026D01*
X376087771Y-113058200D01*
X376108988Y-113006933D01*
X376150489Y-112953899D01*
X376207998Y-112914600D01*
X376282750Y-112888331D01*
X376332708Y-112879035D01*
X376389416Y-112872507D01*
X376449519Y-112867782D01*
X376500639Y-112865817D01*
X376503667Y-112865808D01*
X376579867Y-112865822D01*
X376725857Y-112865822D01*
X376725260Y-112841851D01*
X376720998Y-112795055D01*
X376712830Y-112761778D01*
X376699556Y-112739759D01*
X376679974Y-112726739D01*
X376652883Y-112720457D01*
X376617082Y-112718653D01*
X376571371Y-112719066D01*
G36*
X372723043Y-107476571D02*
G01*
X372626768Y-107500809D01*
X372540184Y-107543641D01*
X372465373Y-107603419D01*
X372404418Y-107678494D01*
X372359399Y-107767220D01*
X372333136Y-107863530D01*
X372327286Y-107960795D01*
X372342140Y-108054654D01*
X372375840Y-108142511D01*
X372426528Y-108221770D01*
X372492345Y-108289836D01*
X372571434Y-108344112D01*
X372661934Y-108382002D01*
X372713200Y-108394426D01*
X372757698Y-108401947D01*
X372791999Y-108404919D01*
X372824960Y-108403094D01*
X372865434Y-108396225D01*
X372898531Y-108389250D01*
X372991947Y-108357741D01*
X373075619Y-108306617D01*
X373147665Y-108237429D01*
X373206200Y-108151728D01*
X373220148Y-108124489D01*
X373236586Y-108088122D01*
X373246894Y-108057582D01*
X373252460Y-108025450D01*
X373254669Y-107984307D01*
X373254948Y-107938222D01*
X373250861Y-107853865D01*
X373237446Y-107784586D01*
X373212256Y-107723961D01*
X373172846Y-107665567D01*
X373134298Y-107621302D01*
X373062406Y-107555484D01*
X372987313Y-107510053D01*
X372904562Y-107482850D01*
X372826928Y-107472576D01*
X372723043Y-107476571D01*
X372723043Y-107476571D01*
G37*
X372723043Y-107476571D02*
X372626768Y-107500809D01*
X372540184Y-107543641D01*
X372465373Y-107603419D01*
X372404418Y-107678494D01*
X372359399Y-107767220D01*
X372333136Y-107863530D01*
X372327286Y-107960795D01*
X372342140Y-108054654D01*
X372375840Y-108142511D01*
X372426528Y-108221770D01*
X372492345Y-108289836D01*
X372571434Y-108344112D01*
X372661934Y-108382002D01*
X372713200Y-108394426D01*
X372757698Y-108401947D01*
X372791999Y-108404919D01*
X372824960Y-108403094D01*
X372865434Y-108396225D01*
X372898531Y-108389250D01*
X372991947Y-108357741D01*
X373075619Y-108306617D01*
X373147665Y-108237429D01*
X373206200Y-108151728D01*
X373220148Y-108124489D01*
X373236586Y-108088122D01*
X373246894Y-108057582D01*
X373252460Y-108025450D01*
X373254669Y-107984307D01*
X373254948Y-107938222D01*
X373250861Y-107853865D01*
X373237446Y-107784586D01*
X373212256Y-107723961D01*
X373172846Y-107665567D01*
X373134298Y-107621302D01*
X373062406Y-107555484D01*
X372987313Y-107510053D01*
X372904562Y-107482850D01*
X372826928Y-107472576D01*
X372723043Y-107476571D01*
G36*
X364263493Y-109922245D02*
G01*
X364263474Y-110156662D01*
X364263448Y-110369603D01*
X364263375Y-110562168D01*
X364263218Y-110735459D01*
X364262936Y-110890576D01*
X364262491Y-111028620D01*
X364261844Y-111150692D01*
X364260955Y-111257894D01*
X364259787Y-111351326D01*
X364258299Y-111432090D01*
X364256454Y-111501286D01*
X364254211Y-111560015D01*
X364251531Y-111609379D01*
X364248377Y-111650478D01*
X364244708Y-111684413D01*
X364240487Y-111712286D01*
X364235673Y-111735198D01*
X364230227Y-111754249D01*
X364224112Y-111770540D01*
X364217288Y-111785173D01*
X364209715Y-111799249D01*
X364201355Y-111813868D01*
X364196161Y-111822974D01*
X364161896Y-111883689D01*
X365020045Y-111883689D01*
X365020045Y-111787733D01*
X365020776Y-111744370D01*
X365022728Y-111711205D01*
X365025537Y-111693424D01*
X365026779Y-111691778D01*
X365038201Y-111698662D01*
X365060916Y-111716505D01*
X365083615Y-111735879D01*
X365138200Y-111776614D01*
X365207679Y-111817617D01*
X365284730Y-111855123D01*
X365362035Y-111885364D01*
X365392887Y-111895012D01*
X365461384Y-111909578D01*
X365544236Y-111919539D01*
X365633629Y-111924583D01*
X365721752Y-111924396D01*
X365800793Y-111918666D01*
X365838489Y-111912858D01*
X365976586Y-111874797D01*
X366103887Y-111817073D01*
X366219708Y-111740211D01*
X366323363Y-111644739D01*
X366414167Y-111531179D01*
X366480969Y-111420381D01*
X366535836Y-111303625D01*
X366577837Y-111184276D01*
X366607833Y-111058283D01*
X366626689Y-110921594D01*
X366635268Y-110770158D01*
X366635994Y-110692711D01*
X366633900Y-110635934D01*
X365804783Y-110635934D01*
X365804576Y-110729002D01*
X365801663Y-110816692D01*
X365796000Y-110893772D01*
X365787545Y-110955009D01*
X365784962Y-110967350D01*
X365753160Y-111074633D01*
X365711502Y-111161658D01*
X365659637Y-111228642D01*
X365597219Y-111275805D01*
X365523900Y-111303365D01*
X365439331Y-111311541D01*
X365343165Y-111300551D01*
X365279689Y-111284829D01*
X365230546Y-111266639D01*
X365176417Y-111240791D01*
X365135756Y-111217089D01*
X365065200Y-111170721D01*
X365065200Y-110020530D01*
X365132608Y-109976962D01*
X365211133Y-109936040D01*
X365295319Y-109909389D01*
X365380443Y-109897465D01*
X365461784Y-109900722D01*
X365534620Y-109919615D01*
X365566574Y-109935184D01*
X365624499Y-109978181D01*
X365673456Y-110034953D01*
X365714610Y-110107575D01*
X365749126Y-110198121D01*
X365778167Y-110308666D01*
X365779448Y-110314533D01*
X365789619Y-110376788D01*
X365797261Y-110454594D01*
X365802330Y-110542720D01*
X365804783Y-110635934D01*
X366633900Y-110635934D01*
X366628143Y-110479895D01*
X366606198Y-110284059D01*
X366570214Y-110105332D01*
X366520241Y-109943845D01*
X366456332Y-109799726D01*
X366378538Y-109673106D01*
X366286911Y-109564115D01*
X366181503Y-109472883D01*
X366136338Y-109441932D01*
X366035389Y-109385785D01*
X365932099Y-109346174D01*
X365822011Y-109322014D01*
X365700670Y-109312219D01*
X365608164Y-109313265D01*
X365478510Y-109324231D01*
X365365916Y-109346046D01*
X365267125Y-109379714D01*
X365178879Y-109426236D01*
X365130014Y-109460448D01*
X365100647Y-109482362D01*
X365078957Y-109497333D01*
X365070747Y-109501733D01*
X365069132Y-109490904D01*
X365067841Y-109460251D01*
X365066862Y-109412526D01*
X365066183Y-109350479D01*
X365065790Y-109276862D01*
X365065670Y-109194427D01*
X365065812Y-109105925D01*
X365066203Y-109014107D01*
X365066829Y-108921724D01*
X365067680Y-108831528D01*
X365068740Y-108746271D01*
X365069999Y-108668703D01*
X365071444Y-108601576D01*
X365073062Y-108547641D01*
X365074839Y-108509650D01*
X365075331Y-108502667D01*
X365082908Y-108432251D01*
X365094469Y-108377102D01*
X365112208Y-108329981D01*
X365138318Y-108283647D01*
X365144585Y-108274067D01*
X365169017Y-108237378D01*
X364263689Y-108237378D01*
X364263493Y-109922245D01*
X364263493Y-109922245D01*
G37*
X364263493Y-109922245D02*
X364263474Y-110156662D01*
X364263448Y-110369603D01*
X364263375Y-110562168D01*
X364263218Y-110735459D01*
X364262936Y-110890576D01*
X364262491Y-111028620D01*
X364261844Y-111150692D01*
X364260955Y-111257894D01*
X364259787Y-111351326D01*
X364258299Y-111432090D01*
X364256454Y-111501286D01*
X364254211Y-111560015D01*
X364251531Y-111609379D01*
X364248377Y-111650478D01*
X364244708Y-111684413D01*
X364240487Y-111712286D01*
X364235673Y-111735198D01*
X364230227Y-111754249D01*
X364224112Y-111770540D01*
X364217288Y-111785173D01*
X364209715Y-111799249D01*
X364201355Y-111813868D01*
X364196161Y-111822974D01*
X364161896Y-111883689D01*
X365020045Y-111883689D01*
X365020045Y-111787733D01*
X365020776Y-111744370D01*
X365022728Y-111711205D01*
X365025537Y-111693424D01*
X365026779Y-111691778D01*
X365038201Y-111698662D01*
X365060916Y-111716505D01*
X365083615Y-111735879D01*
X365138200Y-111776614D01*
X365207679Y-111817617D01*
X365284730Y-111855123D01*
X365362035Y-111885364D01*
X365392887Y-111895012D01*
X365461384Y-111909578D01*
X365544236Y-111919539D01*
X365633629Y-111924583D01*
X365721752Y-111924396D01*
X365800793Y-111918666D01*
X365838489Y-111912858D01*
X365976586Y-111874797D01*
X366103887Y-111817073D01*
X366219708Y-111740211D01*
X366323363Y-111644739D01*
X366414167Y-111531179D01*
X366480969Y-111420381D01*
X366535836Y-111303625D01*
X366577837Y-111184276D01*
X366607833Y-111058283D01*
X366626689Y-110921594D01*
X366635268Y-110770158D01*
X366635994Y-110692711D01*
X366633900Y-110635934D01*
X365804783Y-110635934D01*
X365804576Y-110729002D01*
X365801663Y-110816692D01*
X365796000Y-110893772D01*
X365787545Y-110955009D01*
X365784962Y-110967350D01*
X365753160Y-111074633D01*
X365711502Y-111161658D01*
X365659637Y-111228642D01*
X365597219Y-111275805D01*
X365523900Y-111303365D01*
X365439331Y-111311541D01*
X365343165Y-111300551D01*
X365279689Y-111284829D01*
X365230546Y-111266639D01*
X365176417Y-111240791D01*
X365135756Y-111217089D01*
X365065200Y-111170721D01*
X365065200Y-110020530D01*
X365132608Y-109976962D01*
X365211133Y-109936040D01*
X365295319Y-109909389D01*
X365380443Y-109897465D01*
X365461784Y-109900722D01*
X365534620Y-109919615D01*
X365566574Y-109935184D01*
X365624499Y-109978181D01*
X365673456Y-110034953D01*
X365714610Y-110107575D01*
X365749126Y-110198121D01*
X365778167Y-110308666D01*
X365779448Y-110314533D01*
X365789619Y-110376788D01*
X365797261Y-110454594D01*
X365802330Y-110542720D01*
X365804783Y-110635934D01*
X366633900Y-110635934D01*
X366628143Y-110479895D01*
X366606198Y-110284059D01*
X366570214Y-110105332D01*
X366520241Y-109943845D01*
X366456332Y-109799726D01*
X366378538Y-109673106D01*
X366286911Y-109564115D01*
X366181503Y-109472883D01*
X366136338Y-109441932D01*
X366035389Y-109385785D01*
X365932099Y-109346174D01*
X365822011Y-109322014D01*
X365700670Y-109312219D01*
X365608164Y-109313265D01*
X365478510Y-109324231D01*
X365365916Y-109346046D01*
X365267125Y-109379714D01*
X365178879Y-109426236D01*
X365130014Y-109460448D01*
X365100647Y-109482362D01*
X365078957Y-109497333D01*
X365070747Y-109501733D01*
X365069132Y-109490904D01*
X365067841Y-109460251D01*
X365066862Y-109412526D01*
X365066183Y-109350479D01*
X365065790Y-109276862D01*
X365065670Y-109194427D01*
X365065812Y-109105925D01*
X365066203Y-109014107D01*
X365066829Y-108921724D01*
X365067680Y-108831528D01*
X365068740Y-108746271D01*
X365069999Y-108668703D01*
X365071444Y-108601576D01*
X365073062Y-108547641D01*
X365074839Y-108509650D01*
X365075331Y-108502667D01*
X365082908Y-108432251D01*
X365094469Y-108377102D01*
X365112208Y-108329981D01*
X365138318Y-108283647D01*
X365144585Y-108274067D01*
X365169017Y-108237378D01*
X364263689Y-108237378D01*
X364263493Y-109922245D01*
G36*
X367776426Y-109316552D02*
G01*
X367624508Y-109336567D01*
X367489244Y-109370202D01*
X367369761Y-109417725D01*
X367265185Y-109479405D01*
X367187576Y-109542965D01*
X367118735Y-109617099D01*
X367064994Y-109696871D01*
X367022090Y-109789091D01*
X367006616Y-109832161D01*
X366993756Y-109871142D01*
X366982554Y-109907289D01*
X366972880Y-109942434D01*
X366964604Y-109978410D01*
X366957597Y-110017050D01*
X366951728Y-110060185D01*
X366946869Y-110109649D01*
X366942890Y-110167273D01*
X366939660Y-110234891D01*
X366937051Y-110314334D01*
X366934933Y-110407436D01*
X366933176Y-110516027D01*
X366931651Y-110641942D01*
X366930228Y-110787012D01*
X366928975Y-110929778D01*
X366927649Y-111085968D01*
X366926444Y-111221239D01*
X366925234Y-111337246D01*
X366923894Y-111435645D01*
X366922300Y-111518093D01*
X366920325Y-111586246D01*
X366917844Y-111641760D01*
X366914731Y-111686292D01*
X366910862Y-111721498D01*
X366906111Y-111749034D01*
X366900352Y-111770556D01*
X366893461Y-111787722D01*
X366885311Y-111802186D01*
X366875777Y-111815606D01*
X366864734Y-111829638D01*
X366860434Y-111835071D01*
X366844614Y-111857910D01*
X366837578Y-111873463D01*
X366837556Y-111873922D01*
X366848433Y-111876121D01*
X366879418Y-111878147D01*
X366928043Y-111879942D01*
X366991837Y-111881451D01*
X367068331Y-111882616D01*
X367155056Y-111883380D01*
X367249543Y-111883686D01*
X367260450Y-111883689D01*
X367683343Y-111883689D01*
X367686605Y-111787622D01*
X367689867Y-111691556D01*
X367751956Y-111742543D01*
X367849286Y-111810057D01*
X367959187Y-111864749D01*
X368045651Y-111894978D01*
X368114722Y-111909666D01*
X368198075Y-111919659D01*
X368287841Y-111924646D01*
X368376155Y-111924313D01*
X368455149Y-111918351D01*
X368491378Y-111912638D01*
X368631397Y-111874776D01*
X368757822Y-111819932D01*
X368869740Y-111748924D01*
X368966238Y-111662568D01*
X369046400Y-111561679D01*
X369109313Y-111447076D01*
X369153688Y-111320984D01*
X369166022Y-111264401D01*
X369173632Y-111202202D01*
X369177261Y-111127363D01*
X369177755Y-111093467D01*
X369177690Y-111090282D01*
X368417752Y-111090282D01*
X368408459Y-111165333D01*
X368380272Y-111229160D01*
X368331803Y-111284798D01*
X368326746Y-111289211D01*
X368278452Y-111324037D01*
X368226743Y-111346620D01*
X368166011Y-111358540D01*
X368090648Y-111361383D01*
X368072541Y-111360978D01*
X368018722Y-111358325D01*
X367978692Y-111352909D01*
X367943676Y-111342745D01*
X367904897Y-111325850D01*
X367894255Y-111320672D01*
X367833604Y-111284844D01*
X367786785Y-111242212D01*
X367774048Y-111226973D01*
X367729378Y-111170462D01*
X367729378Y-110974586D01*
X367729914Y-110895939D01*
X367731604Y-110837988D01*
X367734572Y-110798875D01*
X367738943Y-110776741D01*
X367743028Y-110770274D01*
X367758953Y-110767111D01*
X367792736Y-110764488D01*
X367839660Y-110762655D01*
X367895007Y-110761857D01*
X367903894Y-110761842D01*
X368024670Y-110767096D01*
X368127340Y-110783263D01*
X368213894Y-110810961D01*
X368286319Y-110850808D01*
X368341249Y-110897758D01*
X368385796Y-110955645D01*
X368410520Y-111018693D01*
X368417752Y-111090282D01*
X369177690Y-111090282D01*
X369175822Y-110999712D01*
X369167478Y-110920812D01*
X369151232Y-110849590D01*
X369125595Y-110778864D01*
X369101599Y-110726493D01*
X369042980Y-110631196D01*
X368964883Y-110543170D01*
X368869685Y-110464017D01*
X368759762Y-110395340D01*
X368637490Y-110338741D01*
X368505245Y-110295821D01*
X368440578Y-110280882D01*
X368304396Y-110258777D01*
X368155951Y-110244194D01*
X368004495Y-110237813D01*
X367877936Y-110239445D01*
X367716050Y-110246224D01*
X367723470Y-110187245D01*
X367742762Y-110088092D01*
X367773896Y-110007372D01*
X367817731Y-109944466D01*
X367875129Y-109898756D01*
X367946952Y-109869622D01*
X368034059Y-109856447D01*
X368137314Y-109858611D01*
X368175289Y-109862612D01*
X368316480Y-109887780D01*
X368453293Y-109928814D01*
X368547822Y-109966815D01*
X368592982Y-109986190D01*
X368631415Y-110001760D01*
X368657766Y-110011405D01*
X368665454Y-110013452D01*
X368675198Y-110004374D01*
X368691917Y-109975405D01*
X368715768Y-109926217D01*
X368746907Y-109856484D01*
X368785493Y-109765879D01*
X368792090Y-109750089D01*
X368822147Y-109677772D01*
X368849126Y-109612425D01*
X368871864Y-109556906D01*
X368889194Y-109514072D01*
X368899952Y-109486781D01*
X368903059Y-109477942D01*
X368893060Y-109473187D01*
X368866783Y-109467910D01*
X368838511Y-109464231D01*
X368808354Y-109459474D01*
X368760567Y-109450028D01*
X368699388Y-109436820D01*
X368629054Y-109420776D01*
X368553806Y-109402820D01*
X368525245Y-109395797D01*
X368420184Y-109370209D01*
X368332520Y-109350147D01*
X368257932Y-109334969D01*
X368192097Y-109324035D01*
X368130693Y-109316704D01*
X368069398Y-109312335D01*
X368003890Y-109310287D01*
X367945872Y-109309889D01*
X367776426Y-109316552D01*
X367776426Y-109316552D01*
G37*
X367776426Y-109316552D02*
X367624508Y-109336567D01*
X367489244Y-109370202D01*
X367369761Y-109417725D01*
X367265185Y-109479405D01*
X367187576Y-109542965D01*
X367118735Y-109617099D01*
X367064994Y-109696871D01*
X367022090Y-109789091D01*
X367006616Y-109832161D01*
X366993756Y-109871142D01*
X366982554Y-109907289D01*
X366972880Y-109942434D01*
X366964604Y-109978410D01*
X366957597Y-110017050D01*
X366951728Y-110060185D01*
X366946869Y-110109649D01*
X366942890Y-110167273D01*
X366939660Y-110234891D01*
X366937051Y-110314334D01*
X366934933Y-110407436D01*
X366933176Y-110516027D01*
X366931651Y-110641942D01*
X366930228Y-110787012D01*
X366928975Y-110929778D01*
X366927649Y-111085968D01*
X366926444Y-111221239D01*
X366925234Y-111337246D01*
X366923894Y-111435645D01*
X366922300Y-111518093D01*
X366920325Y-111586246D01*
X366917844Y-111641760D01*
X366914731Y-111686292D01*
X366910862Y-111721498D01*
X366906111Y-111749034D01*
X366900352Y-111770556D01*
X366893461Y-111787722D01*
X366885311Y-111802186D01*
X366875777Y-111815606D01*
X366864734Y-111829638D01*
X366860434Y-111835071D01*
X366844614Y-111857910D01*
X366837578Y-111873463D01*
X366837556Y-111873922D01*
X366848433Y-111876121D01*
X366879418Y-111878147D01*
X366928043Y-111879942D01*
X366991837Y-111881451D01*
X367068331Y-111882616D01*
X367155056Y-111883380D01*
X367249543Y-111883686D01*
X367260450Y-111883689D01*
X367683343Y-111883689D01*
X367686605Y-111787622D01*
X367689867Y-111691556D01*
X367751956Y-111742543D01*
X367849286Y-111810057D01*
X367959187Y-111864749D01*
X368045651Y-111894978D01*
X368114722Y-111909666D01*
X368198075Y-111919659D01*
X368287841Y-111924646D01*
X368376155Y-111924313D01*
X368455149Y-111918351D01*
X368491378Y-111912638D01*
X368631397Y-111874776D01*
X368757822Y-111819932D01*
X368869740Y-111748924D01*
X368966238Y-111662568D01*
X369046400Y-111561679D01*
X369109313Y-111447076D01*
X369153688Y-111320984D01*
X369166022Y-111264401D01*
X369173632Y-111202202D01*
X369177261Y-111127363D01*
X369177755Y-111093467D01*
X369177690Y-111090282D01*
X368417752Y-111090282D01*
X368408459Y-111165333D01*
X368380272Y-111229160D01*
X368331803Y-111284798D01*
X368326746Y-111289211D01*
X368278452Y-111324037D01*
X368226743Y-111346620D01*
X368166011Y-111358540D01*
X368090648Y-111361383D01*
X368072541Y-111360978D01*
X368018722Y-111358325D01*
X367978692Y-111352909D01*
X367943676Y-111342745D01*
X367904897Y-111325850D01*
X367894255Y-111320672D01*
X367833604Y-111284844D01*
X367786785Y-111242212D01*
X367774048Y-111226973D01*
X367729378Y-111170462D01*
X367729378Y-110974586D01*
X367729914Y-110895939D01*
X367731604Y-110837988D01*
X367734572Y-110798875D01*
X367738943Y-110776741D01*
X367743028Y-110770274D01*
X367758953Y-110767111D01*
X367792736Y-110764488D01*
X367839660Y-110762655D01*
X367895007Y-110761857D01*
X367903894Y-110761842D01*
X368024670Y-110767096D01*
X368127340Y-110783263D01*
X368213894Y-110810961D01*
X368286319Y-110850808D01*
X368341249Y-110897758D01*
X368385796Y-110955645D01*
X368410520Y-111018693D01*
X368417752Y-111090282D01*
X369177690Y-111090282D01*
X369175822Y-110999712D01*
X369167478Y-110920812D01*
X369151232Y-110849590D01*
X369125595Y-110778864D01*
X369101599Y-110726493D01*
X369042980Y-110631196D01*
X368964883Y-110543170D01*
X368869685Y-110464017D01*
X368759762Y-110395340D01*
X368637490Y-110338741D01*
X368505245Y-110295821D01*
X368440578Y-110280882D01*
X368304396Y-110258777D01*
X368155951Y-110244194D01*
X368004495Y-110237813D01*
X367877936Y-110239445D01*
X367716050Y-110246224D01*
X367723470Y-110187245D01*
X367742762Y-110088092D01*
X367773896Y-110007372D01*
X367817731Y-109944466D01*
X367875129Y-109898756D01*
X367946952Y-109869622D01*
X368034059Y-109856447D01*
X368137314Y-109858611D01*
X368175289Y-109862612D01*
X368316480Y-109887780D01*
X368453293Y-109928814D01*
X368547822Y-109966815D01*
X368592982Y-109986190D01*
X368631415Y-110001760D01*
X368657766Y-110011405D01*
X368665454Y-110013452D01*
X368675198Y-110004374D01*
X368691917Y-109975405D01*
X368715768Y-109926217D01*
X368746907Y-109856484D01*
X368785493Y-109765879D01*
X368792090Y-109750089D01*
X368822147Y-109677772D01*
X368849126Y-109612425D01*
X368871864Y-109556906D01*
X368889194Y-109514072D01*
X368899952Y-109486781D01*
X368903059Y-109477942D01*
X368893060Y-109473187D01*
X368866783Y-109467910D01*
X368838511Y-109464231D01*
X368808354Y-109459474D01*
X368760567Y-109450028D01*
X368699388Y-109436820D01*
X368629054Y-109420776D01*
X368553806Y-109402820D01*
X368525245Y-109395797D01*
X368420184Y-109370209D01*
X368332520Y-109350147D01*
X368257932Y-109334969D01*
X368192097Y-109324035D01*
X368130693Y-109316704D01*
X368069398Y-109312335D01*
X368003890Y-109310287D01*
X367945872Y-109309889D01*
X367776426Y-109316552D01*
G36*
X370121571Y-108399071D02*
G01*
X369961430Y-108420245D01*
X369797490Y-108460385D01*
X369627687Y-108519889D01*
X369449957Y-108599154D01*
X369438690Y-108604699D01*
X369380995Y-108632725D01*
X369329448Y-108656802D01*
X369287809Y-108675249D01*
X369259838Y-108686386D01*
X369250267Y-108688933D01*
X369231050Y-108693941D01*
X369226439Y-108698147D01*
X369231542Y-108708580D01*
X369247582Y-108734868D01*
X369272712Y-108774257D01*
X369305086Y-108823991D01*
X369342857Y-108881315D01*
X369384178Y-108943476D01*
X369427202Y-109007718D01*
X369470083Y-109071285D01*
X369510974Y-109131425D01*
X369548029Y-109185380D01*
X369579400Y-109230397D01*
X369603241Y-109263721D01*
X369617706Y-109282597D01*
X369619691Y-109284787D01*
X369629809Y-109280138D01*
X369652150Y-109262962D01*
X369682720Y-109236440D01*
X369698464Y-109221964D01*
X369794953Y-109146682D01*
X369901664Y-109091241D01*
X370017168Y-109056141D01*
X370140038Y-109041880D01*
X370209439Y-109043051D01*
X370330577Y-109060212D01*
X370439795Y-109096094D01*
X370537418Y-109150959D01*
X370623772Y-109225070D01*
X370699185Y-109318688D01*
X370763982Y-109432076D01*
X370801399Y-109518667D01*
X370845252Y-109654366D01*
X370877572Y-109801850D01*
X370898443Y-109957314D01*
X370907949Y-110116956D01*
X370906173Y-110276973D01*
X370893197Y-110433561D01*
X370869106Y-110582918D01*
X370833982Y-110721240D01*
X370787908Y-110844724D01*
X370771627Y-110878978D01*
X370703380Y-110993064D01*
X370622921Y-111089557D01*
X370531430Y-111167670D01*
X370430089Y-111226617D01*
X370320080Y-111265612D01*
X370202585Y-111283868D01*
X370161117Y-111285211D01*
X370039559Y-111274290D01*
X369919122Y-111241474D01*
X369801334Y-111187439D01*
X369687723Y-111112865D01*
X369596315Y-111034539D01*
X369549785Y-110990008D01*
X369368517Y-111287271D01*
X369323420Y-111361433D01*
X369282181Y-111429646D01*
X369246265Y-111489459D01*
X369217134Y-111538420D01*
X369196250Y-111574079D01*
X369185076Y-111593984D01*
X369183625Y-111597079D01*
X369191854Y-111606718D01*
X369217433Y-111623999D01*
X369257127Y-111647283D01*
X369307703Y-111674934D01*
X369365926Y-111705315D01*
X369428563Y-111736790D01*
X369492379Y-111767722D01*
X369554140Y-111796473D01*
X369610612Y-111821408D01*
X369658562Y-111840889D01*
X369682014Y-111849318D01*
X369815779Y-111887133D01*
X369953673Y-111912136D01*
X370101378Y-111925140D01*
X370228167Y-111927468D01*
X370296122Y-111926373D01*
X370361723Y-111924275D01*
X370419153Y-111921434D01*
X370462597Y-111918106D01*
X370476702Y-111916422D01*
X370615716Y-111887587D01*
X370757243Y-111842468D01*
X370894725Y-111783750D01*
X371021606Y-111714120D01*
X371099111Y-111661441D01*
X371226519Y-111553239D01*
X371344822Y-111426671D01*
X371451828Y-111284866D01*
X371545348Y-111130951D01*
X371623190Y-110968053D01*
X371667044Y-110850756D01*
X371717292Y-110667128D01*
X371750791Y-110472581D01*
X371767551Y-110271325D01*
X371767584Y-110067568D01*
X371750899Y-109865521D01*
X371717507Y-109669392D01*
X371667420Y-109483391D01*
X371663603Y-109471803D01*
X371600719Y-109309750D01*
X371523972Y-109161832D01*
X371430758Y-109023865D01*
X371318473Y-108891661D01*
X371274608Y-108846399D01*
X371138466Y-108722457D01*
X370998509Y-108619915D01*
X370852589Y-108537656D01*
X370698558Y-108474564D01*
X370534268Y-108429523D01*
X370438711Y-108412033D01*
X370279977Y-108396466D01*
X370121571Y-108399071D01*
X370121571Y-108399071D01*
G37*
X370121571Y-108399071D02*
X369961430Y-108420245D01*
X369797490Y-108460385D01*
X369627687Y-108519889D01*
X369449957Y-108599154D01*
X369438690Y-108604699D01*
X369380995Y-108632725D01*
X369329448Y-108656802D01*
X369287809Y-108675249D01*
X369259838Y-108686386D01*
X369250267Y-108688933D01*
X369231050Y-108693941D01*
X369226439Y-108698147D01*
X369231542Y-108708580D01*
X369247582Y-108734868D01*
X369272712Y-108774257D01*
X369305086Y-108823991D01*
X369342857Y-108881315D01*
X369384178Y-108943476D01*
X369427202Y-109007718D01*
X369470083Y-109071285D01*
X369510974Y-109131425D01*
X369548029Y-109185380D01*
X369579400Y-109230397D01*
X369603241Y-109263721D01*
X369617706Y-109282597D01*
X369619691Y-109284787D01*
X369629809Y-109280138D01*
X369652150Y-109262962D01*
X369682720Y-109236440D01*
X369698464Y-109221964D01*
X369794953Y-109146682D01*
X369901664Y-109091241D01*
X370017168Y-109056141D01*
X370140038Y-109041880D01*
X370209439Y-109043051D01*
X370330577Y-109060212D01*
X370439795Y-109096094D01*
X370537418Y-109150959D01*
X370623772Y-109225070D01*
X370699185Y-109318688D01*
X370763982Y-109432076D01*
X370801399Y-109518667D01*
X370845252Y-109654366D01*
X370877572Y-109801850D01*
X370898443Y-109957314D01*
X370907949Y-110116956D01*
X370906173Y-110276973D01*
X370893197Y-110433561D01*
X370869106Y-110582918D01*
X370833982Y-110721240D01*
X370787908Y-110844724D01*
X370771627Y-110878978D01*
X370703380Y-110993064D01*
X370622921Y-111089557D01*
X370531430Y-111167670D01*
X370430089Y-111226617D01*
X370320080Y-111265612D01*
X370202585Y-111283868D01*
X370161117Y-111285211D01*
X370039559Y-111274290D01*
X369919122Y-111241474D01*
X369801334Y-111187439D01*
X369687723Y-111112865D01*
X369596315Y-111034539D01*
X369549785Y-110990008D01*
X369368517Y-111287271D01*
X369323420Y-111361433D01*
X369282181Y-111429646D01*
X369246265Y-111489459D01*
X369217134Y-111538420D01*
X369196250Y-111574079D01*
X369185076Y-111593984D01*
X369183625Y-111597079D01*
X369191854Y-111606718D01*
X369217433Y-111623999D01*
X369257127Y-111647283D01*
X369307703Y-111674934D01*
X369365926Y-111705315D01*
X369428563Y-111736790D01*
X369492379Y-111767722D01*
X369554140Y-111796473D01*
X369610612Y-111821408D01*
X369658562Y-111840889D01*
X369682014Y-111849318D01*
X369815779Y-111887133D01*
X369953673Y-111912136D01*
X370101378Y-111925140D01*
X370228167Y-111927468D01*
X370296122Y-111926373D01*
X370361723Y-111924275D01*
X370419153Y-111921434D01*
X370462597Y-111918106D01*
X370476702Y-111916422D01*
X370615716Y-111887587D01*
X370757243Y-111842468D01*
X370894725Y-111783750D01*
X371021606Y-111714120D01*
X371099111Y-111661441D01*
X371226519Y-111553239D01*
X371344822Y-111426671D01*
X371451828Y-111284866D01*
X371545348Y-111130951D01*
X371623190Y-110968053D01*
X371667044Y-110850756D01*
X371717292Y-110667128D01*
X371750791Y-110472581D01*
X371767551Y-110271325D01*
X371767584Y-110067568D01*
X371750899Y-109865521D01*
X371717507Y-109669392D01*
X371667420Y-109483391D01*
X371663603Y-109471803D01*
X371600719Y-109309750D01*
X371523972Y-109161832D01*
X371430758Y-109023865D01*
X371318473Y-108891661D01*
X371274608Y-108846399D01*
X371138466Y-108722457D01*
X370998509Y-108619915D01*
X370852589Y-108537656D01*
X370698558Y-108474564D01*
X370534268Y-108429523D01*
X370438711Y-108412033D01*
X370279977Y-108396466D01*
X370121571Y-108399071D01*
G36*
X373396400Y-107939054D02*
G01*
X373385535Y-108052993D01*
X373353918Y-108160616D01*
X373303015Y-108259615D01*
X373234293Y-108347684D01*
X373149219Y-108422516D01*
X373052232Y-108480384D01*
X372945964Y-108520005D01*
X372838950Y-108538573D01*
X372733300Y-108537434D01*
X372631125Y-108517930D01*
X372534534Y-108481406D01*
X372445638Y-108429205D01*
X372366546Y-108362673D01*
X372299369Y-108283152D01*
X372246217Y-108191987D01*
X372209199Y-108090523D01*
X372190427Y-107980102D01*
X372188489Y-107930206D01*
X372188489Y-107842267D01*
X372136560Y-107842267D01*
X372100253Y-107845111D01*
X372073355Y-107856911D01*
X372046249Y-107880649D01*
X372007867Y-107919031D01*
X372007867Y-110110602D01*
X372007876Y-110372739D01*
X372007908Y-110613241D01*
X372007972Y-110833048D01*
X372008076Y-111033101D01*
X372008227Y-111214344D01*
X372008434Y-111377716D01*
X372008706Y-111524160D01*
X372009050Y-111654617D01*
X372009474Y-111770029D01*
X372009987Y-111871338D01*
X372010597Y-111959484D01*
X372011312Y-112035410D01*
X372012140Y-112100057D01*
X372013089Y-112154367D01*
X372014167Y-112199280D01*
X372015383Y-112235740D01*
X372016745Y-112264687D01*
X372018261Y-112287063D01*
X372019938Y-112303809D01*
X372021786Y-112315868D01*
X372023813Y-112324180D01*
X372026025Y-112329687D01*
X372027108Y-112331537D01*
X372031271Y-112338549D01*
X372034805Y-112344996D01*
X372038635Y-112350900D01*
X372043682Y-112356286D01*
X372050871Y-112361178D01*
X372061123Y-112365598D01*
X372075364Y-112369572D01*
X372094514Y-112373121D01*
X372119499Y-112376270D01*
X372151240Y-112379042D01*
X372190662Y-112381461D01*
X372238686Y-112383551D01*
X372296237Y-112385335D01*
X372364237Y-112386837D01*
X372443610Y-112388080D01*
X372535279Y-112389089D01*
X372640166Y-112389885D01*
X372759196Y-112390494D01*
X372893290Y-112390939D01*
X373043373Y-112391243D01*
X373210367Y-112391430D01*
X373395196Y-112391524D01*
X373598783Y-112391548D01*
X373822050Y-112391525D01*
X374065922Y-112391480D01*
X374331321Y-112391437D01*
X374369704Y-112391432D01*
X374636682Y-112391389D01*
X374882002Y-112391318D01*
X375106583Y-112391213D01*
X375311345Y-112391066D01*
X375497206Y-112390869D01*
X375665088Y-112390616D01*
X375815908Y-112390300D01*
X375950587Y-112389913D01*
X376070044Y-112389447D01*
X376175199Y-112388897D01*
X376266971Y-112388253D01*
X376346279Y-112387511D01*
X376414043Y-112386661D01*
X376471182Y-112385697D01*
X376518617Y-112384611D01*
X376557266Y-112383397D01*
X376588049Y-112382047D01*
X376611885Y-112380555D01*
X376629694Y-112378911D01*
X376642395Y-112377111D01*
X376650908Y-112375145D01*
X376655266Y-112373477D01*
X376663728Y-112369906D01*
X376671497Y-112367270D01*
X376678602Y-112364634D01*
X376685073Y-112361062D01*
X376690939Y-112355621D01*
X376696229Y-112347375D01*
X376700974Y-112335390D01*
X376705202Y-112318731D01*
X376708943Y-112296463D01*
X376712227Y-112267652D01*
X376715083Y-112231363D01*
X376717540Y-112186661D01*
X376719629Y-112132611D01*
X376721378Y-112068279D01*
X376722817Y-111992730D01*
X376723976Y-111905030D01*
X376724883Y-111804243D01*
X376725569Y-111689434D01*
X376726063Y-111559670D01*
X376726395Y-111414015D01*
X376726593Y-111251535D01*
X376726687Y-111071295D01*
X376726708Y-110872360D01*
X376726685Y-110653796D01*
X376726646Y-110414668D01*
X376726622Y-110154040D01*
X376726622Y-110111889D01*
X376726636Y-109848992D01*
X376726661Y-109607732D01*
X376726671Y-109387165D01*
X376726642Y-109186352D01*
X376726548Y-109004349D01*
X376726362Y-108840216D01*
X376726059Y-108693011D01*
X376725614Y-108561792D01*
X376725034Y-108451867D01*
X376422197Y-108451867D01*
X376382407Y-108509711D01*
X376371236Y-108525479D01*
X376361166Y-108539441D01*
X376352138Y-108552784D01*
X376344097Y-108566693D01*
X376336986Y-108582356D01*
X376330747Y-108600958D01*
X376325325Y-108623686D01*
X376320662Y-108651727D01*
X376316701Y-108686267D01*
X376313385Y-108728492D01*
X376310659Y-108779589D01*
X376308464Y-108840744D01*
X376306745Y-108913144D01*
X376305444Y-108997975D01*
X376304505Y-109096422D01*
X376303870Y-109209674D01*
X376303484Y-109338916D01*
X376303288Y-109485334D01*
X376303227Y-109650116D01*
X376303243Y-109834447D01*
X376303280Y-110039513D01*
X376303289Y-110162133D01*
X376303265Y-110379082D01*
X376303231Y-110574642D01*
X376303243Y-110749999D01*
X376303358Y-110906341D01*
X376303630Y-111044857D01*
X376304118Y-111166734D01*
X376304876Y-111273160D01*
X376305962Y-111365322D01*
X376307431Y-111444409D01*
X376309340Y-111511608D01*
X376311744Y-111568107D01*
X376314701Y-111615093D01*
X376318266Y-111653755D01*
X376322495Y-111685280D01*
X376327446Y-111710855D01*
X376333173Y-111731670D01*
X376339733Y-111748911D01*
X376347183Y-111763765D01*
X376355579Y-111777422D01*
X376364976Y-111791069D01*
X376375432Y-111805893D01*
X376381523Y-111814783D01*
X376420296Y-111872400D01*
X375888732Y-111872400D01*
X375765483Y-111872365D01*
X375662987Y-111872215D01*
X375579420Y-111871878D01*
X375512956Y-111871286D01*
X375461771Y-111870367D01*
X375424041Y-111869051D01*
X375397940Y-111867269D01*
X375381644Y-111864951D01*
X375373328Y-111862026D01*
X375371168Y-111858424D01*
X375373339Y-111854075D01*
X375374535Y-111852645D01*
X375399685Y-111815573D01*
X375425583Y-111762772D01*
X375449192Y-111700770D01*
X375457461Y-111674357D01*
X375462078Y-111656416D01*
X375465979Y-111635355D01*
X375469248Y-111609089D01*
X375471966Y-111575532D01*
X375474215Y-111532599D01*
X375476077Y-111478204D01*
X375477636Y-111410262D01*
X375478972Y-111326688D01*
X375480169Y-111225395D01*
X375481308Y-111104300D01*
X375481685Y-111059600D01*
X375482702Y-110934449D01*
X375483460Y-110830082D01*
X375483903Y-110744707D01*
X375483970Y-110676533D01*
X375483605Y-110623765D01*
X375482748Y-110584614D01*
X375481341Y-110557285D01*
X375479325Y-110539986D01*
X375476643Y-110530926D01*
X375473236Y-110528312D01*
X375469044Y-110530351D01*
X375464571Y-110534667D01*
X375454216Y-110547602D01*
X375432158Y-110576676D01*
X375399957Y-110619759D01*
X375359174Y-110674718D01*
X375311370Y-110739423D01*
X375258105Y-110811742D01*
X375200940Y-110889544D01*
X375141437Y-110970698D01*
X375081155Y-111053072D01*
X375021655Y-111134536D01*
X374964498Y-111212957D01*
X374911245Y-111286204D01*
X374863457Y-111352147D01*
X374822693Y-111408654D01*
X374790516Y-111453593D01*
X374768485Y-111484834D01*
X374763917Y-111491466D01*
X374740996Y-111528369D01*
X374714188Y-111576359D01*
X374688789Y-111625897D01*
X374685568Y-111632577D01*
X374663890Y-111680772D01*
X374651304Y-111718334D01*
X374645574Y-111754160D01*
X374644456Y-111796200D01*
X374645090Y-111872400D01*
X373490651Y-111872400D01*
X373581815Y-111778669D01*
X373628612Y-111728775D01*
X373678899Y-111672295D01*
X373724944Y-111618026D01*
X373745369Y-111592673D01*
X373775807Y-111553128D01*
X373815862Y-111499916D01*
X373864361Y-111434667D01*
X373920135Y-111359011D01*
X373982011Y-111274577D01*
X374048819Y-111182994D01*
X374119387Y-111085892D01*
X374192545Y-110984901D01*
X374267121Y-110881650D01*
X374341944Y-110777768D01*
X374415843Y-110674885D01*
X374487646Y-110574631D01*
X374556184Y-110478636D01*
X374620284Y-110388527D01*
X374678775Y-110305936D01*
X374730486Y-110232492D01*
X374774247Y-110169824D01*
X374808885Y-110119561D01*
X374833230Y-110083334D01*
X374846111Y-110062771D01*
X374847869Y-110058668D01*
X374839910Y-110047342D01*
X374819115Y-110020162D01*
X374786847Y-109978829D01*
X374744470Y-109925044D01*
X374693347Y-109860506D01*
X374634841Y-109786918D01*
X374570314Y-109705978D01*
X374501131Y-109619388D01*
X374428653Y-109528848D01*
X374354246Y-109436060D01*
X374294517Y-109361702D01*
X373283511Y-109361702D01*
X373277602Y-109374659D01*
X373263272Y-109396908D01*
X373262225Y-109398391D01*
X373243438Y-109428544D01*
X373223791Y-109465375D01*
X373219892Y-109473511D01*
X373216356Y-109481940D01*
X373213230Y-109492059D01*
X373210486Y-109505260D01*
X373208092Y-109522938D01*
X373206019Y-109546484D01*
X373204235Y-109577293D01*
X373202712Y-109616757D01*
X373201419Y-109666269D01*
X373200326Y-109727223D01*
X373199403Y-109801011D01*
X373198619Y-109889028D01*
X373197945Y-109992665D01*
X373197350Y-110113316D01*
X373196805Y-110252374D01*
X373196279Y-110411232D01*
X373195745Y-110590089D01*
X373195206Y-110775207D01*
X373194772Y-110939145D01*
X373194509Y-111083303D01*
X373194484Y-111209079D01*
X373194765Y-111317871D01*
X373195419Y-111411077D01*
X373196514Y-111490097D01*
X373198118Y-111556328D01*
X373200297Y-111611170D01*
X373203119Y-111656021D01*
X373206651Y-111692278D01*
X373210961Y-111721341D01*
X373216117Y-111744609D01*
X373222185Y-111763479D01*
X373229233Y-111779351D01*
X373237329Y-111793622D01*
X373246540Y-111807691D01*
X373255040Y-111820158D01*
X373272176Y-111846452D01*
X373282322Y-111864037D01*
X373283511Y-111867257D01*
X373272604Y-111868334D01*
X373241411Y-111869335D01*
X373192223Y-111870235D01*
X373127333Y-111871010D01*
X373049030Y-111871637D01*
X372959607Y-111872091D01*
X372861356Y-111872349D01*
X372792445Y-111872400D01*
X372687452Y-111872180D01*
X372590610Y-111871548D01*
X372504107Y-111870549D01*
X372430132Y-111869227D01*
X372370874Y-111867626D01*
X372328520Y-111865791D01*
X372305260Y-111863765D01*
X372301378Y-111862493D01*
X372309076Y-111847591D01*
X372317074Y-111839560D01*
X372330246Y-111822434D01*
X372347485Y-111792183D01*
X372359407Y-111767622D01*
X372386045Y-111708711D01*
X372389120Y-110531845D01*
X372392195Y-109354978D01*
X372837853Y-109354978D01*
X372935670Y-109355142D01*
X373026064Y-109355611D01*
X373106630Y-109356347D01*
X373174962Y-109357316D01*
X373228656Y-109358480D01*
X373265305Y-109359803D01*
X373282504Y-109361249D01*
X373283511Y-109361702D01*
X374294517Y-109361702D01*
X374279270Y-109342722D01*
X374205090Y-109250537D01*
X374133069Y-109161204D01*
X374064569Y-109076424D01*
X374000955Y-108997898D01*
X373943588Y-108927326D01*
X373893833Y-108866409D01*
X373853052Y-108816847D01*
X373835888Y-108796178D01*
X373749596Y-108695516D01*
X373672997Y-108612259D01*
X373604183Y-108544438D01*
X373541248Y-108490089D01*
X373531867Y-108482722D01*
X373492356Y-108452117D01*
X374624116Y-108451867D01*
X374618827Y-108499844D01*
X374622130Y-108557188D01*
X374643661Y-108625463D01*
X374683635Y-108705212D01*
X374728943Y-108777495D01*
X374745161Y-108800140D01*
X374773214Y-108837696D01*
X374811430Y-108888021D01*
X374858137Y-108948973D01*
X374911661Y-109018411D01*
X374970331Y-109094194D01*
X375032475Y-109174180D01*
X375096421Y-109256228D01*
X375160495Y-109338196D01*
X375223027Y-109417943D01*
X375282343Y-109493327D01*
X375336771Y-109562207D01*
X375384639Y-109622442D01*
X375424275Y-109671889D01*
X375454006Y-109708408D01*
X375472161Y-109729858D01*
X375475220Y-109733156D01*
X375478079Y-109725149D01*
X375480293Y-109694855D01*
X375481857Y-109642556D01*
X375482767Y-109568531D01*
X375483020Y-109473063D01*
X375482613Y-109356434D01*
X375481704Y-109236445D01*
X375480382Y-109104333D01*
X375478857Y-108992594D01*
X375476881Y-108899025D01*
X375474206Y-108821419D01*
X375470582Y-108757574D01*
X375465761Y-108705283D01*
X375459494Y-108662344D01*
X375451532Y-108626551D01*
X375441627Y-108595700D01*
X375429531Y-108567586D01*
X375414993Y-108540005D01*
X375400311Y-108514966D01*
X375362314Y-108451867D01*
X376422197Y-108451867D01*
X376725034Y-108451867D01*
X376725001Y-108445617D01*
X376724195Y-108343544D01*
X376723170Y-108254633D01*
X376721900Y-108177941D01*
X376720360Y-108112527D01*
X376718524Y-108057449D01*
X376716367Y-108011765D01*
X376713863Y-107974534D01*
X376710987Y-107944813D01*
X376707713Y-107921662D01*
X376704015Y-107904139D01*
X376699869Y-107891301D01*
X376695247Y-107882208D01*
X376690126Y-107875918D01*
X376684478Y-107871488D01*
X376678279Y-107867978D01*
X376671504Y-107864445D01*
X376665508Y-107860876D01*
X376660275Y-107858300D01*
X376652099Y-107855972D01*
X376639886Y-107853878D01*
X376622541Y-107852007D01*
X376598969Y-107850347D01*
X376568077Y-107848884D01*
X376528768Y-107847608D01*
X376479950Y-107846504D01*
X376420527Y-107845561D01*
X376349404Y-107844767D01*
X376265488Y-107844109D01*
X376167683Y-107843575D01*
X376054894Y-107843153D01*
X375926029Y-107842829D01*
X375779991Y-107842592D01*
X375615686Y-107842430D01*
X375432020Y-107842330D01*
X375227897Y-107842280D01*
X375016753Y-107842267D01*
X373396400Y-107842267D01*
X373396400Y-107939054D01*
X373396400Y-107939054D01*
G37*
X373396400Y-107939054D02*
X373385535Y-108052993D01*
X373353918Y-108160616D01*
X373303015Y-108259615D01*
X373234293Y-108347684D01*
X373149219Y-108422516D01*
X373052232Y-108480384D01*
X372945964Y-108520005D01*
X372838950Y-108538573D01*
X372733300Y-108537434D01*
X372631125Y-108517930D01*
X372534534Y-108481406D01*
X372445638Y-108429205D01*
X372366546Y-108362673D01*
X372299369Y-108283152D01*
X372246217Y-108191987D01*
X372209199Y-108090523D01*
X372190427Y-107980102D01*
X372188489Y-107930206D01*
X372188489Y-107842267D01*
X372136560Y-107842267D01*
X372100253Y-107845111D01*
X372073355Y-107856911D01*
X372046249Y-107880649D01*
X372007867Y-107919031D01*
X372007867Y-110110602D01*
X372007876Y-110372739D01*
X372007908Y-110613241D01*
X372007972Y-110833048D01*
X372008076Y-111033101D01*
X372008227Y-111214344D01*
X372008434Y-111377716D01*
X372008706Y-111524160D01*
X372009050Y-111654617D01*
X372009474Y-111770029D01*
X372009987Y-111871338D01*
X372010597Y-111959484D01*
X372011312Y-112035410D01*
X372012140Y-112100057D01*
X372013089Y-112154367D01*
X372014167Y-112199280D01*
X372015383Y-112235740D01*
X372016745Y-112264687D01*
X372018261Y-112287063D01*
X372019938Y-112303809D01*
X372021786Y-112315868D01*
X372023813Y-112324180D01*
X372026025Y-112329687D01*
X372027108Y-112331537D01*
X372031271Y-112338549D01*
X372034805Y-112344996D01*
X372038635Y-112350900D01*
X372043682Y-112356286D01*
X372050871Y-112361178D01*
X372061123Y-112365598D01*
X372075364Y-112369572D01*
X372094514Y-112373121D01*
X372119499Y-112376270D01*
X372151240Y-112379042D01*
X372190662Y-112381461D01*
X372238686Y-112383551D01*
X372296237Y-112385335D01*
X372364237Y-112386837D01*
X372443610Y-112388080D01*
X372535279Y-112389089D01*
X372640166Y-112389885D01*
X372759196Y-112390494D01*
X372893290Y-112390939D01*
X373043373Y-112391243D01*
X373210367Y-112391430D01*
X373395196Y-112391524D01*
X373598783Y-112391548D01*
X373822050Y-112391525D01*
X374065922Y-112391480D01*
X374331321Y-112391437D01*
X374369704Y-112391432D01*
X374636682Y-112391389D01*
X374882002Y-112391318D01*
X375106583Y-112391213D01*
X375311345Y-112391066D01*
X375497206Y-112390869D01*
X375665088Y-112390616D01*
X375815908Y-112390300D01*
X375950587Y-112389913D01*
X376070044Y-112389447D01*
X376175199Y-112388897D01*
X376266971Y-112388253D01*
X376346279Y-112387511D01*
X376414043Y-112386661D01*
X376471182Y-112385697D01*
X376518617Y-112384611D01*
X376557266Y-112383397D01*
X376588049Y-112382047D01*
X376611885Y-112380555D01*
X376629694Y-112378911D01*
X376642395Y-112377111D01*
X376650908Y-112375145D01*
X376655266Y-112373477D01*
X376663728Y-112369906D01*
X376671497Y-112367270D01*
X376678602Y-112364634D01*
X376685073Y-112361062D01*
X376690939Y-112355621D01*
X376696229Y-112347375D01*
X376700974Y-112335390D01*
X376705202Y-112318731D01*
X376708943Y-112296463D01*
X376712227Y-112267652D01*
X376715083Y-112231363D01*
X376717540Y-112186661D01*
X376719629Y-112132611D01*
X376721378Y-112068279D01*
X376722817Y-111992730D01*
X376723976Y-111905030D01*
X376724883Y-111804243D01*
X376725569Y-111689434D01*
X376726063Y-111559670D01*
X376726395Y-111414015D01*
X376726593Y-111251535D01*
X376726687Y-111071295D01*
X376726708Y-110872360D01*
X376726685Y-110653796D01*
X376726646Y-110414668D01*
X376726622Y-110154040D01*
X376726622Y-110111889D01*
X376726636Y-109848992D01*
X376726661Y-109607732D01*
X376726671Y-109387165D01*
X376726642Y-109186352D01*
X376726548Y-109004349D01*
X376726362Y-108840216D01*
X376726059Y-108693011D01*
X376725614Y-108561792D01*
X376725034Y-108451867D01*
X376422197Y-108451867D01*
X376382407Y-108509711D01*
X376371236Y-108525479D01*
X376361166Y-108539441D01*
X376352138Y-108552784D01*
X376344097Y-108566693D01*
X376336986Y-108582356D01*
X376330747Y-108600958D01*
X376325325Y-108623686D01*
X376320662Y-108651727D01*
X376316701Y-108686267D01*
X376313385Y-108728492D01*
X376310659Y-108779589D01*
X376308464Y-108840744D01*
X376306745Y-108913144D01*
X376305444Y-108997975D01*
X376304505Y-109096422D01*
X376303870Y-109209674D01*
X376303484Y-109338916D01*
X376303288Y-109485334D01*
X376303227Y-109650116D01*
X376303243Y-109834447D01*
X376303280Y-110039513D01*
X376303289Y-110162133D01*
X376303265Y-110379082D01*
X376303231Y-110574642D01*
X376303243Y-110749999D01*
X376303358Y-110906341D01*
X376303630Y-111044857D01*
X376304118Y-111166734D01*
X376304876Y-111273160D01*
X376305962Y-111365322D01*
X376307431Y-111444409D01*
X376309340Y-111511608D01*
X376311744Y-111568107D01*
X376314701Y-111615093D01*
X376318266Y-111653755D01*
X376322495Y-111685280D01*
X376327446Y-111710855D01*
X376333173Y-111731670D01*
X376339733Y-111748911D01*
X376347183Y-111763765D01*
X376355579Y-111777422D01*
X376364976Y-111791069D01*
X376375432Y-111805893D01*
X376381523Y-111814783D01*
X376420296Y-111872400D01*
X375888732Y-111872400D01*
X375765483Y-111872365D01*
X375662987Y-111872215D01*
X375579420Y-111871878D01*
X375512956Y-111871286D01*
X375461771Y-111870367D01*
X375424041Y-111869051D01*
X375397940Y-111867269D01*
X375381644Y-111864951D01*
X375373328Y-111862026D01*
X375371168Y-111858424D01*
X375373339Y-111854075D01*
X375374535Y-111852645D01*
X375399685Y-111815573D01*
X375425583Y-111762772D01*
X375449192Y-111700770D01*
X375457461Y-111674357D01*
X375462078Y-111656416D01*
X375465979Y-111635355D01*
X375469248Y-111609089D01*
X375471966Y-111575532D01*
X375474215Y-111532599D01*
X375476077Y-111478204D01*
X375477636Y-111410262D01*
X375478972Y-111326688D01*
X375480169Y-111225395D01*
X375481308Y-111104300D01*
X375481685Y-111059600D01*
X375482702Y-110934449D01*
X375483460Y-110830082D01*
X375483903Y-110744707D01*
X375483970Y-110676533D01*
X375483605Y-110623765D01*
X375482748Y-110584614D01*
X375481341Y-110557285D01*
X375479325Y-110539986D01*
X375476643Y-110530926D01*
X375473236Y-110528312D01*
X375469044Y-110530351D01*
X375464571Y-110534667D01*
X375454216Y-110547602D01*
X375432158Y-110576676D01*
X375399957Y-110619759D01*
X375359174Y-110674718D01*
X375311370Y-110739423D01*
X375258105Y-110811742D01*
X375200940Y-110889544D01*
X375141437Y-110970698D01*
X375081155Y-111053072D01*
X375021655Y-111134536D01*
X374964498Y-111212957D01*
X374911245Y-111286204D01*
X374863457Y-111352147D01*
X374822693Y-111408654D01*
X374790516Y-111453593D01*
X374768485Y-111484834D01*
X374763917Y-111491466D01*
X374740996Y-111528369D01*
X374714188Y-111576359D01*
X374688789Y-111625897D01*
X374685568Y-111632577D01*
X374663890Y-111680772D01*
X374651304Y-111718334D01*
X374645574Y-111754160D01*
X374644456Y-111796200D01*
X374645090Y-111872400D01*
X373490651Y-111872400D01*
X373581815Y-111778669D01*
X373628612Y-111728775D01*
X373678899Y-111672295D01*
X373724944Y-111618026D01*
X373745369Y-111592673D01*
X373775807Y-111553128D01*
X373815862Y-111499916D01*
X373864361Y-111434667D01*
X373920135Y-111359011D01*
X373982011Y-111274577D01*
X374048819Y-111182994D01*
X374119387Y-111085892D01*
X374192545Y-110984901D01*
X374267121Y-110881650D01*
X374341944Y-110777768D01*
X374415843Y-110674885D01*
X374487646Y-110574631D01*
X374556184Y-110478636D01*
X374620284Y-110388527D01*
X374678775Y-110305936D01*
X374730486Y-110232492D01*
X374774247Y-110169824D01*
X374808885Y-110119561D01*
X374833230Y-110083334D01*
X374846111Y-110062771D01*
X374847869Y-110058668D01*
X374839910Y-110047342D01*
X374819115Y-110020162D01*
X374786847Y-109978829D01*
X374744470Y-109925044D01*
X374693347Y-109860506D01*
X374634841Y-109786918D01*
X374570314Y-109705978D01*
X374501131Y-109619388D01*
X374428653Y-109528848D01*
X374354246Y-109436060D01*
X374294517Y-109361702D01*
X373283511Y-109361702D01*
X373277602Y-109374659D01*
X373263272Y-109396908D01*
X373262225Y-109398391D01*
X373243438Y-109428544D01*
X373223791Y-109465375D01*
X373219892Y-109473511D01*
X373216356Y-109481940D01*
X373213230Y-109492059D01*
X373210486Y-109505260D01*
X373208092Y-109522938D01*
X373206019Y-109546484D01*
X373204235Y-109577293D01*
X373202712Y-109616757D01*
X373201419Y-109666269D01*
X373200326Y-109727223D01*
X373199403Y-109801011D01*
X373198619Y-109889028D01*
X373197945Y-109992665D01*
X373197350Y-110113316D01*
X373196805Y-110252374D01*
X373196279Y-110411232D01*
X373195745Y-110590089D01*
X373195206Y-110775207D01*
X373194772Y-110939145D01*
X373194509Y-111083303D01*
X373194484Y-111209079D01*
X373194765Y-111317871D01*
X373195419Y-111411077D01*
X373196514Y-111490097D01*
X373198118Y-111556328D01*
X373200297Y-111611170D01*
X373203119Y-111656021D01*
X373206651Y-111692278D01*
X373210961Y-111721341D01*
X373216117Y-111744609D01*
X373222185Y-111763479D01*
X373229233Y-111779351D01*
X373237329Y-111793622D01*
X373246540Y-111807691D01*
X373255040Y-111820158D01*
X373272176Y-111846452D01*
X373282322Y-111864037D01*
X373283511Y-111867257D01*
X373272604Y-111868334D01*
X373241411Y-111869335D01*
X373192223Y-111870235D01*
X373127333Y-111871010D01*
X373049030Y-111871637D01*
X372959607Y-111872091D01*
X372861356Y-111872349D01*
X372792445Y-111872400D01*
X372687452Y-111872180D01*
X372590610Y-111871548D01*
X372504107Y-111870549D01*
X372430132Y-111869227D01*
X372370874Y-111867626D01*
X372328520Y-111865791D01*
X372305260Y-111863765D01*
X372301378Y-111862493D01*
X372309076Y-111847591D01*
X372317074Y-111839560D01*
X372330246Y-111822434D01*
X372347485Y-111792183D01*
X372359407Y-111767622D01*
X372386045Y-111708711D01*
X372389120Y-110531845D01*
X372392195Y-109354978D01*
X372837853Y-109354978D01*
X372935670Y-109355142D01*
X373026064Y-109355611D01*
X373106630Y-109356347D01*
X373174962Y-109357316D01*
X373228656Y-109358480D01*
X373265305Y-109359803D01*
X373282504Y-109361249D01*
X373283511Y-109361702D01*
X374294517Y-109361702D01*
X374279270Y-109342722D01*
X374205090Y-109250537D01*
X374133069Y-109161204D01*
X374064569Y-109076424D01*
X374000955Y-108997898D01*
X373943588Y-108927326D01*
X373893833Y-108866409D01*
X373853052Y-108816847D01*
X373835888Y-108796178D01*
X373749596Y-108695516D01*
X373672997Y-108612259D01*
X373604183Y-108544438D01*
X373541248Y-108490089D01*
X373531867Y-108482722D01*
X373492356Y-108452117D01*
X374624116Y-108451867D01*
X374618827Y-108499844D01*
X374622130Y-108557188D01*
X374643661Y-108625463D01*
X374683635Y-108705212D01*
X374728943Y-108777495D01*
X374745161Y-108800140D01*
X374773214Y-108837696D01*
X374811430Y-108888021D01*
X374858137Y-108948973D01*
X374911661Y-109018411D01*
X374970331Y-109094194D01*
X375032475Y-109174180D01*
X375096421Y-109256228D01*
X375160495Y-109338196D01*
X375223027Y-109417943D01*
X375282343Y-109493327D01*
X375336771Y-109562207D01*
X375384639Y-109622442D01*
X375424275Y-109671889D01*
X375454006Y-109708408D01*
X375472161Y-109729858D01*
X375475220Y-109733156D01*
X375478079Y-109725149D01*
X375480293Y-109694855D01*
X375481857Y-109642556D01*
X375482767Y-109568531D01*
X375483020Y-109473063D01*
X375482613Y-109356434D01*
X375481704Y-109236445D01*
X375480382Y-109104333D01*
X375478857Y-108992594D01*
X375476881Y-108899025D01*
X375474206Y-108821419D01*
X375470582Y-108757574D01*
X375465761Y-108705283D01*
X375459494Y-108662344D01*
X375451532Y-108626551D01*
X375441627Y-108595700D01*
X375429531Y-108567586D01*
X375414993Y-108540005D01*
X375400311Y-108514966D01*
X375362314Y-108451867D01*
X376422197Y-108451867D01*
X376725034Y-108451867D01*
X376725001Y-108445617D01*
X376724195Y-108343544D01*
X376723170Y-108254633D01*
X376721900Y-108177941D01*
X376720360Y-108112527D01*
X376718524Y-108057449D01*
X376716367Y-108011765D01*
X376713863Y-107974534D01*
X376710987Y-107944813D01*
X376707713Y-107921662D01*
X376704015Y-107904139D01*
X376699869Y-107891301D01*
X376695247Y-107882208D01*
X376690126Y-107875918D01*
X376684478Y-107871488D01*
X376678279Y-107867978D01*
X376671504Y-107864445D01*
X376665508Y-107860876D01*
X376660275Y-107858300D01*
X376652099Y-107855972D01*
X376639886Y-107853878D01*
X376622541Y-107852007D01*
X376598969Y-107850347D01*
X376568077Y-107848884D01*
X376528768Y-107847608D01*
X376479950Y-107846504D01*
X376420527Y-107845561D01*
X376349404Y-107844767D01*
X376265488Y-107844109D01*
X376167683Y-107843575D01*
X376054894Y-107843153D01*
X375926029Y-107842829D01*
X375779991Y-107842592D01*
X375615686Y-107842430D01*
X375432020Y-107842330D01*
X375227897Y-107842280D01*
X375016753Y-107842267D01*
X373396400Y-107842267D01*
X373396400Y-107939054D01*
G36*
X329794186Y-109268931D02*
G01*
X329710365Y-109713555D01*
X329401080Y-109841053D01*
X329091794Y-109968551D01*
X328720754Y-109716246D01*
X328616843Y-109645996D01*
X328522913Y-109583272D01*
X328443348Y-109530938D01*
X328382530Y-109491857D01*
X328344843Y-109468893D01*
X328334579Y-109463942D01*
X328316090Y-109476676D01*
X328276580Y-109511882D01*
X328220478Y-109565062D01*
X328152213Y-109631718D01*
X328076214Y-109707354D01*
X327996908Y-109787472D01*
X327918725Y-109867574D01*
X327846093Y-109943164D01*
X327783441Y-110009745D01*
X327735197Y-110062818D01*
X327705790Y-110097887D01*
X327698759Y-110109623D01*
X327708877Y-110131260D01*
X327737241Y-110178662D01*
X327780871Y-110247193D01*
X327836782Y-110332215D01*
X327901994Y-110429093D01*
X327939781Y-110484350D01*
X328008657Y-110585248D01*
X328069860Y-110676299D01*
X328120422Y-110752970D01*
X328157372Y-110810728D01*
X328177742Y-110845043D01*
X328180803Y-110852254D01*
X328173864Y-110872748D01*
X328154949Y-110920513D01*
X328126913Y-110988832D01*
X328092609Y-111070989D01*
X328054891Y-111160270D01*
X328016613Y-111249958D01*
X327980630Y-111333338D01*
X327949794Y-111403694D01*
X327926961Y-111454310D01*
X327914983Y-111478471D01*
X327914276Y-111479422D01*
X327895469Y-111484036D01*
X327845382Y-111494328D01*
X327769207Y-111509287D01*
X327672135Y-111527901D01*
X327559357Y-111549159D01*
X327493558Y-111561418D01*
X327373050Y-111584362D01*
X327264203Y-111606195D01*
X327172524Y-111625722D01*
X327103519Y-111641748D01*
X327062696Y-111653079D01*
X327054489Y-111656674D01*
X327046452Y-111681006D01*
X327039967Y-111735959D01*
X327035030Y-111815108D01*
X327031636Y-111912026D01*
X327029782Y-112020287D01*
X327029462Y-112133465D01*
X327030673Y-112245135D01*
X327033410Y-112348868D01*
X327037669Y-112438241D01*
X327043445Y-112506826D01*
X327050733Y-112548197D01*
X327055105Y-112556810D01*
X327081236Y-112567133D01*
X327136607Y-112581892D01*
X327213893Y-112599352D01*
X327305770Y-112617780D01*
X327337842Y-112623741D01*
X327492476Y-112652066D01*
X327614625Y-112674876D01*
X327708327Y-112693080D01*
X327777616Y-112707583D01*
X327826529Y-112719292D01*
X327859103Y-112729115D01*
X327879372Y-112737956D01*
X327891374Y-112746724D01*
X327893053Y-112748457D01*
X327909816Y-112776371D01*
X327935386Y-112830695D01*
X327967212Y-112904777D01*
X328002740Y-112991965D01*
X328039417Y-113085608D01*
X328074689Y-113179052D01*
X328106004Y-113265647D01*
X328130807Y-113338740D01*
X328146546Y-113391678D01*
X328150668Y-113417811D01*
X328150324Y-113418726D01*
X328136359Y-113440086D01*
X328104678Y-113487084D01*
X328058609Y-113554827D01*
X328001482Y-113638423D01*
X327936627Y-113732982D01*
X327918157Y-113759854D01*
X327852301Y-113857275D01*
X327794350Y-113946163D01*
X327747462Y-114021412D01*
X327714793Y-114077920D01*
X327699500Y-114110581D01*
X327698759Y-114114593D01*
X327711608Y-114135684D01*
X327747112Y-114177464D01*
X327800707Y-114235445D01*
X327867829Y-114305135D01*
X327943913Y-114382045D01*
X328024396Y-114461683D01*
X328104713Y-114539561D01*
X328180301Y-114611186D01*
X328246595Y-114672070D01*
X328299031Y-114717721D01*
X328333045Y-114743650D01*
X328342455Y-114747883D01*
X328364357Y-114737912D01*
X328409200Y-114711020D01*
X328469679Y-114671736D01*
X328516211Y-114640117D01*
X328600525Y-114582098D01*
X328700374Y-114513784D01*
X328800527Y-114445579D01*
X328854373Y-114409075D01*
X329036629Y-114285800D01*
X329189619Y-114368520D01*
X329259318Y-114404759D01*
X329318586Y-114432926D01*
X329358689Y-114448991D01*
X329368897Y-114451226D01*
X329381171Y-114434722D01*
X329405387Y-114388082D01*
X329439737Y-114315609D01*
X329482412Y-114221606D01*
X329531606Y-114110374D01*
X329585510Y-113986215D01*
X329642316Y-113853432D01*
X329700218Y-113716327D01*
X329757407Y-113579202D01*
X329812076Y-113446358D01*
X329862416Y-113322098D01*
X329906620Y-113210725D01*
X329942881Y-113116539D01*
X329969391Y-113043844D01*
X329984342Y-112996941D01*
X329986746Y-112980833D01*
X329967689Y-112960286D01*
X329925964Y-112926933D01*
X329870294Y-112887702D01*
X329865622Y-112884599D01*
X329721736Y-112769423D01*
X329605717Y-112635053D01*
X329518570Y-112485784D01*
X329461301Y-112325913D01*
X329434914Y-112159737D01*
X329440415Y-111991552D01*
X329478810Y-111825655D01*
X329551105Y-111666342D01*
X329572374Y-111631487D01*
X329683004Y-111490737D01*
X329813698Y-111377714D01*
X329959936Y-111293003D01*
X330117192Y-111237194D01*
X330280943Y-111210874D01*
X330446667Y-111214630D01*
X330609838Y-111249050D01*
X330765935Y-111314723D01*
X330910433Y-111412235D01*
X330955131Y-111451813D01*
X331068888Y-111575703D01*
X331151782Y-111706124D01*
X331208644Y-111852315D01*
X331240313Y-111997088D01*
X331248131Y-112159860D01*
X331222062Y-112323440D01*
X331164755Y-112482298D01*
X331078856Y-112630906D01*
X330967014Y-112763735D01*
X330831877Y-112875256D01*
X330814117Y-112887011D01*
X330757850Y-112925508D01*
X330715077Y-112958863D01*
X330694628Y-112980160D01*
X330694331Y-112980833D01*
X330698721Y-113003871D01*
X330716124Y-113056157D01*
X330744732Y-113133390D01*
X330782735Y-113231268D01*
X330828326Y-113345491D01*
X330879697Y-113471758D01*
X330935038Y-113605767D01*
X330992542Y-113743218D01*
X331050399Y-113879808D01*
X331106802Y-114011237D01*
X331159942Y-114133205D01*
X331208010Y-114241409D01*
X331249199Y-114331549D01*
X331281699Y-114399323D01*
X331303703Y-114440430D01*
X331312564Y-114451226D01*
X331339640Y-114442819D01*
X331390303Y-114420272D01*
X331455817Y-114387613D01*
X331491841Y-114368520D01*
X331644832Y-114285800D01*
X331827088Y-114409075D01*
X331920125Y-114472228D01*
X332021985Y-114541727D01*
X332117438Y-114607165D01*
X332165250Y-114640117D01*
X332232495Y-114685273D01*
X332289436Y-114721057D01*
X332328646Y-114742938D01*
X332341381Y-114747563D01*
X332359917Y-114735085D01*
X332400941Y-114700252D01*
X332460475Y-114646678D01*
X332534542Y-114577983D01*
X332619165Y-114497781D01*
X332672685Y-114446286D01*
X332766319Y-114354286D01*
X332847241Y-114271999D01*
X332912177Y-114202945D01*
X332957858Y-114150644D01*
X332981011Y-114118616D01*
X332983232Y-114112116D01*
X332972924Y-114087394D01*
X332944439Y-114037405D01*
X332900937Y-113967212D01*
X332845577Y-113881875D01*
X332781520Y-113786456D01*
X332763303Y-113759854D01*
X332696927Y-113663167D01*
X332637378Y-113576117D01*
X332587984Y-113503595D01*
X332552075Y-113450493D01*
X332532981Y-113421703D01*
X332531136Y-113418726D01*
X332533895Y-113395782D01*
X332548538Y-113345336D01*
X332572513Y-113274041D01*
X332603266Y-113188547D01*
X332638244Y-113095507D01*
X332674893Y-113001574D01*
X332710661Y-112913399D01*
X332742994Y-112837634D01*
X332769338Y-112780931D01*
X332787142Y-112749943D01*
X332788407Y-112748457D01*
X332799294Y-112739601D01*
X332817682Y-112730843D01*
X332847606Y-112721277D01*
X332893103Y-112709996D01*
X332958209Y-112696093D01*
X333046961Y-112678663D01*
X333163393Y-112656798D01*
X333311542Y-112629591D01*
X333343618Y-112623741D01*
X333438686Y-112605374D01*
X333521565Y-112587405D01*
X333584930Y-112571569D01*
X333621458Y-112559600D01*
X333626356Y-112556810D01*
X333634427Y-112532072D01*
X333640987Y-112476790D01*
X333646033Y-112397389D01*
X333649559Y-112300296D01*
X333651561Y-112191938D01*
X333652036Y-112078740D01*
X333650977Y-111967128D01*
X333648382Y-111863529D01*
X333644246Y-111774368D01*
X333638563Y-111706072D01*
X333631331Y-111665066D01*
X333626971Y-111656674D01*
X333602698Y-111648208D01*
X333547426Y-111634435D01*
X333466662Y-111616550D01*
X333365912Y-111595748D01*
X333250683Y-111573223D01*
X333187902Y-111561418D01*
X333068787Y-111539151D01*
X332962565Y-111518979D01*
X332874427Y-111501915D01*
X332809566Y-111488969D01*
X332773174Y-111481155D01*
X332767184Y-111479422D01*
X332757061Y-111459890D01*
X332735662Y-111412843D01*
X332705839Y-111345003D01*
X332670445Y-111263091D01*
X332632332Y-111173828D01*
X332594353Y-111083935D01*
X332559360Y-111000135D01*
X332530206Y-110929147D01*
X332509743Y-110877694D01*
X332500823Y-110852497D01*
X332500657Y-110851396D01*
X332510769Y-110831519D01*
X332539117Y-110785777D01*
X332582723Y-110718717D01*
X332638606Y-110634884D01*
X332703787Y-110538826D01*
X332741679Y-110483650D01*
X332810725Y-110382481D01*
X332872050Y-110290630D01*
X332922663Y-110212744D01*
X332959571Y-110153469D01*
X332979782Y-110117451D01*
X332982701Y-110109377D01*
X332970153Y-110090584D01*
X332935463Y-110050457D01*
X332883063Y-109993493D01*
X332817384Y-109924185D01*
X332742856Y-109847031D01*
X332663913Y-109766525D01*
X332584983Y-109687163D01*
X332510500Y-109613440D01*
X332444894Y-109549852D01*
X332392596Y-109500894D01*
X332358039Y-109471061D01*
X332346478Y-109463942D01*
X332327654Y-109473953D01*
X332282631Y-109502078D01*
X332215787Y-109545454D01*
X332131499Y-109601218D01*
X332034144Y-109666506D01*
X331960707Y-109716246D01*
X331589667Y-109968551D01*
X330971095Y-109713555D01*
X330887275Y-109268931D01*
X330803454Y-108824307D01*
X329878006Y-108824307D01*
X329794186Y-109268931D01*
X329794186Y-109268931D01*
G37*
X329794186Y-109268931D02*
X329710365Y-109713555D01*
X329401080Y-109841053D01*
X329091794Y-109968551D01*
X328720754Y-109716246D01*
X328616843Y-109645996D01*
X328522913Y-109583272D01*
X328443348Y-109530938D01*
X328382530Y-109491857D01*
X328344843Y-109468893D01*
X328334579Y-109463942D01*
X328316090Y-109476676D01*
X328276580Y-109511882D01*
X328220478Y-109565062D01*
X328152213Y-109631718D01*
X328076214Y-109707354D01*
X327996908Y-109787472D01*
X327918725Y-109867574D01*
X327846093Y-109943164D01*
X327783441Y-110009745D01*
X327735197Y-110062818D01*
X327705790Y-110097887D01*
X327698759Y-110109623D01*
X327708877Y-110131260D01*
X327737241Y-110178662D01*
X327780871Y-110247193D01*
X327836782Y-110332215D01*
X327901994Y-110429093D01*
X327939781Y-110484350D01*
X328008657Y-110585248D01*
X328069860Y-110676299D01*
X328120422Y-110752970D01*
X328157372Y-110810728D01*
X328177742Y-110845043D01*
X328180803Y-110852254D01*
X328173864Y-110872748D01*
X328154949Y-110920513D01*
X328126913Y-110988832D01*
X328092609Y-111070989D01*
X328054891Y-111160270D01*
X328016613Y-111249958D01*
X327980630Y-111333338D01*
X327949794Y-111403694D01*
X327926961Y-111454310D01*
X327914983Y-111478471D01*
X327914276Y-111479422D01*
X327895469Y-111484036D01*
X327845382Y-111494328D01*
X327769207Y-111509287D01*
X327672135Y-111527901D01*
X327559357Y-111549159D01*
X327493558Y-111561418D01*
X327373050Y-111584362D01*
X327264203Y-111606195D01*
X327172524Y-111625722D01*
X327103519Y-111641748D01*
X327062696Y-111653079D01*
X327054489Y-111656674D01*
X327046452Y-111681006D01*
X327039967Y-111735959D01*
X327035030Y-111815108D01*
X327031636Y-111912026D01*
X327029782Y-112020287D01*
X327029462Y-112133465D01*
X327030673Y-112245135D01*
X327033410Y-112348868D01*
X327037669Y-112438241D01*
X327043445Y-112506826D01*
X327050733Y-112548197D01*
X327055105Y-112556810D01*
X327081236Y-112567133D01*
X327136607Y-112581892D01*
X327213893Y-112599352D01*
X327305770Y-112617780D01*
X327337842Y-112623741D01*
X327492476Y-112652066D01*
X327614625Y-112674876D01*
X327708327Y-112693080D01*
X327777616Y-112707583D01*
X327826529Y-112719292D01*
X327859103Y-112729115D01*
X327879372Y-112737956D01*
X327891374Y-112746724D01*
X327893053Y-112748457D01*
X327909816Y-112776371D01*
X327935386Y-112830695D01*
X327967212Y-112904777D01*
X328002740Y-112991965D01*
X328039417Y-113085608D01*
X328074689Y-113179052D01*
X328106004Y-113265647D01*
X328130807Y-113338740D01*
X328146546Y-113391678D01*
X328150668Y-113417811D01*
X328150324Y-113418726D01*
X328136359Y-113440086D01*
X328104678Y-113487084D01*
X328058609Y-113554827D01*
X328001482Y-113638423D01*
X327936627Y-113732982D01*
X327918157Y-113759854D01*
X327852301Y-113857275D01*
X327794350Y-113946163D01*
X327747462Y-114021412D01*
X327714793Y-114077920D01*
X327699500Y-114110581D01*
X327698759Y-114114593D01*
X327711608Y-114135684D01*
X327747112Y-114177464D01*
X327800707Y-114235445D01*
X327867829Y-114305135D01*
X327943913Y-114382045D01*
X328024396Y-114461683D01*
X328104713Y-114539561D01*
X328180301Y-114611186D01*
X328246595Y-114672070D01*
X328299031Y-114717721D01*
X328333045Y-114743650D01*
X328342455Y-114747883D01*
X328364357Y-114737912D01*
X328409200Y-114711020D01*
X328469679Y-114671736D01*
X328516211Y-114640117D01*
X328600525Y-114582098D01*
X328700374Y-114513784D01*
X328800527Y-114445579D01*
X328854373Y-114409075D01*
X329036629Y-114285800D01*
X329189619Y-114368520D01*
X329259318Y-114404759D01*
X329318586Y-114432926D01*
X329358689Y-114448991D01*
X329368897Y-114451226D01*
X329381171Y-114434722D01*
X329405387Y-114388082D01*
X329439737Y-114315609D01*
X329482412Y-114221606D01*
X329531606Y-114110374D01*
X329585510Y-113986215D01*
X329642316Y-113853432D01*
X329700218Y-113716327D01*
X329757407Y-113579202D01*
X329812076Y-113446358D01*
X329862416Y-113322098D01*
X329906620Y-113210725D01*
X329942881Y-113116539D01*
X329969391Y-113043844D01*
X329984342Y-112996941D01*
X329986746Y-112980833D01*
X329967689Y-112960286D01*
X329925964Y-112926933D01*
X329870294Y-112887702D01*
X329865622Y-112884599D01*
X329721736Y-112769423D01*
X329605717Y-112635053D01*
X329518570Y-112485784D01*
X329461301Y-112325913D01*
X329434914Y-112159737D01*
X329440415Y-111991552D01*
X329478810Y-111825655D01*
X329551105Y-111666342D01*
X329572374Y-111631487D01*
X329683004Y-111490737D01*
X329813698Y-111377714D01*
X329959936Y-111293003D01*
X330117192Y-111237194D01*
X330280943Y-111210874D01*
X330446667Y-111214630D01*
X330609838Y-111249050D01*
X330765935Y-111314723D01*
X330910433Y-111412235D01*
X330955131Y-111451813D01*
X331068888Y-111575703D01*
X331151782Y-111706124D01*
X331208644Y-111852315D01*
X331240313Y-111997088D01*
X331248131Y-112159860D01*
X331222062Y-112323440D01*
X331164755Y-112482298D01*
X331078856Y-112630906D01*
X330967014Y-112763735D01*
X330831877Y-112875256D01*
X330814117Y-112887011D01*
X330757850Y-112925508D01*
X330715077Y-112958863D01*
X330694628Y-112980160D01*
X330694331Y-112980833D01*
X330698721Y-113003871D01*
X330716124Y-113056157D01*
X330744732Y-113133390D01*
X330782735Y-113231268D01*
X330828326Y-113345491D01*
X330879697Y-113471758D01*
X330935038Y-113605767D01*
X330992542Y-113743218D01*
X331050399Y-113879808D01*
X331106802Y-114011237D01*
X331159942Y-114133205D01*
X331208010Y-114241409D01*
X331249199Y-114331549D01*
X331281699Y-114399323D01*
X331303703Y-114440430D01*
X331312564Y-114451226D01*
X331339640Y-114442819D01*
X331390303Y-114420272D01*
X331455817Y-114387613D01*
X331491841Y-114368520D01*
X331644832Y-114285800D01*
X331827088Y-114409075D01*
X331920125Y-114472228D01*
X332021985Y-114541727D01*
X332117438Y-114607165D01*
X332165250Y-114640117D01*
X332232495Y-114685273D01*
X332289436Y-114721057D01*
X332328646Y-114742938D01*
X332341381Y-114747563D01*
X332359917Y-114735085D01*
X332400941Y-114700252D01*
X332460475Y-114646678D01*
X332534542Y-114577983D01*
X332619165Y-114497781D01*
X332672685Y-114446286D01*
X332766319Y-114354286D01*
X332847241Y-114271999D01*
X332912177Y-114202945D01*
X332957858Y-114150644D01*
X332981011Y-114118616D01*
X332983232Y-114112116D01*
X332972924Y-114087394D01*
X332944439Y-114037405D01*
X332900937Y-113967212D01*
X332845577Y-113881875D01*
X332781520Y-113786456D01*
X332763303Y-113759854D01*
X332696927Y-113663167D01*
X332637378Y-113576117D01*
X332587984Y-113503595D01*
X332552075Y-113450493D01*
X332532981Y-113421703D01*
X332531136Y-113418726D01*
X332533895Y-113395782D01*
X332548538Y-113345336D01*
X332572513Y-113274041D01*
X332603266Y-113188547D01*
X332638244Y-113095507D01*
X332674893Y-113001574D01*
X332710661Y-112913399D01*
X332742994Y-112837634D01*
X332769338Y-112780931D01*
X332787142Y-112749943D01*
X332788407Y-112748457D01*
X332799294Y-112739601D01*
X332817682Y-112730843D01*
X332847606Y-112721277D01*
X332893103Y-112709996D01*
X332958209Y-112696093D01*
X333046961Y-112678663D01*
X333163393Y-112656798D01*
X333311542Y-112629591D01*
X333343618Y-112623741D01*
X333438686Y-112605374D01*
X333521565Y-112587405D01*
X333584930Y-112571569D01*
X333621458Y-112559600D01*
X333626356Y-112556810D01*
X333634427Y-112532072D01*
X333640987Y-112476790D01*
X333646033Y-112397389D01*
X333649559Y-112300296D01*
X333651561Y-112191938D01*
X333652036Y-112078740D01*
X333650977Y-111967128D01*
X333648382Y-111863529D01*
X333644246Y-111774368D01*
X333638563Y-111706072D01*
X333631331Y-111665066D01*
X333626971Y-111656674D01*
X333602698Y-111648208D01*
X333547426Y-111634435D01*
X333466662Y-111616550D01*
X333365912Y-111595748D01*
X333250683Y-111573223D01*
X333187902Y-111561418D01*
X333068787Y-111539151D01*
X332962565Y-111518979D01*
X332874427Y-111501915D01*
X332809566Y-111488969D01*
X332773174Y-111481155D01*
X332767184Y-111479422D01*
X332757061Y-111459890D01*
X332735662Y-111412843D01*
X332705839Y-111345003D01*
X332670445Y-111263091D01*
X332632332Y-111173828D01*
X332594353Y-111083935D01*
X332559360Y-111000135D01*
X332530206Y-110929147D01*
X332509743Y-110877694D01*
X332500823Y-110852497D01*
X332500657Y-110851396D01*
X332510769Y-110831519D01*
X332539117Y-110785777D01*
X332582723Y-110718717D01*
X332638606Y-110634884D01*
X332703787Y-110538826D01*
X332741679Y-110483650D01*
X332810725Y-110382481D01*
X332872050Y-110290630D01*
X332922663Y-110212744D01*
X332959571Y-110153469D01*
X332979782Y-110117451D01*
X332982701Y-110109377D01*
X332970153Y-110090584D01*
X332935463Y-110050457D01*
X332883063Y-109993493D01*
X332817384Y-109924185D01*
X332742856Y-109847031D01*
X332663913Y-109766525D01*
X332584983Y-109687163D01*
X332510500Y-109613440D01*
X332444894Y-109549852D01*
X332392596Y-109500894D01*
X332358039Y-109471061D01*
X332346478Y-109463942D01*
X332327654Y-109473953D01*
X332282631Y-109502078D01*
X332215787Y-109545454D01*
X332131499Y-109601218D01*
X332034144Y-109666506D01*
X331960707Y-109716246D01*
X331589667Y-109968551D01*
X330971095Y-109713555D01*
X330887275Y-109268931D01*
X330803454Y-108824307D01*
X329878006Y-108824307D01*
X329794186Y-109268931D01*
%LPC*%
D12*
X319000000Y-152500000D03*
X34500000Y-152000000D03*
X115500000Y-98000000D03*
X211500000Y-97500000D03*
X269500000Y-129600000D03*
X310200000Y-129600000D03*
X205200000Y-150600000D03*
X125200000Y-149600000D03*
X36200000Y-107600000D03*
X372700000Y-129600000D03*
X331700000Y-129600000D03*
X300000000Y-56500000D03*
X34200000Y-57100000D03*
D13*
X315507000Y-46474400D03*
X315507000Y-49014400D03*
X312967000Y-46474400D03*
X312967000Y-49014400D03*
X310427000Y-46474400D03*
X310427000Y-49014400D03*
X307887000Y-46474400D03*
X307887000Y-49014400D03*
X305347000Y-46474400D03*
X305347000Y-49014400D03*
X302807000Y-46474400D03*
X302807000Y-49014400D03*
X300267000Y-46474400D03*
X300267000Y-49014400D03*
X297727000Y-46474400D03*
X297727000Y-49014400D03*
X295187000Y-46474400D03*
X295187000Y-49014400D03*
X292647000Y-46474400D03*
X292647000Y-49014400D03*
X290107000Y-46474400D03*
X290107000Y-49014400D03*
X287567000Y-46474400D03*
X287567000Y-49014400D03*
X285027000Y-46474400D03*
D14*
X285027000Y-49014400D03*
D15*
X290365000Y-145780000D03*
X280205000Y-145780000D03*
D16*
X285285000Y-145780000D03*
D17*
X281475000Y-143240000D03*
X287825000Y-140700000D03*
D15*
X45740000Y-44780000D03*
X35580000Y-44780000D03*
D16*
X40660000Y-44780000D03*
D17*
X36850000Y-42240000D03*
X43200000Y-39700000D03*
D15*
X45740000Y-69780000D03*
X35580000Y-69780000D03*
D16*
X40660000Y-69780000D03*
D17*
X36850000Y-67240000D03*
X43200000Y-64700000D03*
D15*
X64740000Y-44780000D03*
X54580000Y-44780000D03*
D16*
X59660000Y-44780000D03*
D17*
X55850000Y-42240000D03*
X62200000Y-39700000D03*
D15*
X64740000Y-69780000D03*
X54580000Y-69780000D03*
D16*
X59660000Y-69780000D03*
D17*
X55850000Y-67240000D03*
X62200000Y-64700000D03*
D15*
X74240000Y-88780000D03*
X64080000Y-88780000D03*
D16*
X69160000Y-88780000D03*
D17*
X65350000Y-86240000D03*
X71700000Y-83700000D03*
D15*
X78990000Y-107780000D03*
X68830000Y-107780000D03*
D16*
X73910000Y-107780000D03*
D17*
X70100000Y-105240000D03*
X76450000Y-102700000D03*
D15*
X69490000Y-126780000D03*
X59330000Y-126780000D03*
D16*
X64410000Y-126780000D03*
D17*
X60600000Y-124240000D03*
X66950000Y-121700000D03*
D15*
X83740000Y-44780000D03*
X73580000Y-44780000D03*
D16*
X78660000Y-44780000D03*
D17*
X74850000Y-42240000D03*
X81200000Y-39700000D03*
D15*
X83740000Y-69780000D03*
X73580000Y-69780000D03*
D16*
X78660000Y-69780000D03*
D17*
X74850000Y-67240000D03*
X81200000Y-64700000D03*
D15*
X93240000Y-88780000D03*
X83080000Y-88780000D03*
D16*
X88160000Y-88780000D03*
D17*
X84350000Y-86240000D03*
X90700000Y-83700000D03*
D15*
X97990000Y-107780000D03*
X87830000Y-107780000D03*
D16*
X92910000Y-107780000D03*
D17*
X89100000Y-105240000D03*
X95450000Y-102700000D03*
D15*
X88490000Y-126780000D03*
X78330000Y-126780000D03*
D16*
X83410000Y-126780000D03*
D17*
X79600000Y-124240000D03*
X85950000Y-121700000D03*
D15*
X102740000Y-44780000D03*
X92580000Y-44780000D03*
D16*
X97660000Y-44780000D03*
D17*
X93850000Y-42240000D03*
X100200000Y-39700000D03*
D15*
X102740000Y-69780000D03*
X92580000Y-69780000D03*
D16*
X97660000Y-69780000D03*
D17*
X93850000Y-67240000D03*
X100200000Y-64700000D03*
D15*
X112240000Y-88780000D03*
X102080000Y-88780000D03*
D16*
X107160000Y-88780000D03*
D17*
X103350000Y-86240000D03*
X109700000Y-83700000D03*
D15*
X116990000Y-107780000D03*
X106830000Y-107780000D03*
D16*
X111910000Y-107780000D03*
D17*
X108100000Y-105240000D03*
X114450000Y-102700000D03*
D15*
X107490000Y-126780000D03*
X97330000Y-126780000D03*
D16*
X102410000Y-126780000D03*
D17*
X98600000Y-124240000D03*
X104950000Y-121700000D03*
D15*
X121740000Y-44780000D03*
X111580000Y-44780000D03*
D16*
X116660000Y-44780000D03*
D17*
X112850000Y-42240000D03*
X119200000Y-39700000D03*
D15*
X121740000Y-69780000D03*
X111580000Y-69780000D03*
D16*
X116660000Y-69780000D03*
D17*
X112850000Y-67240000D03*
X119200000Y-64700000D03*
D15*
X131240000Y-88780000D03*
X121080000Y-88780000D03*
D16*
X126160000Y-88780000D03*
D17*
X122350000Y-86240000D03*
X128700000Y-83700000D03*
D15*
X135990000Y-107780000D03*
X125830000Y-107780000D03*
D16*
X130910000Y-107780000D03*
D17*
X127100000Y-105240000D03*
X133450000Y-102700000D03*
D15*
X126490000Y-126780000D03*
X116330000Y-126780000D03*
D16*
X121410000Y-126780000D03*
D17*
X117600000Y-124240000D03*
X123950000Y-121700000D03*
D15*
X140740000Y-44780000D03*
X130580000Y-44780000D03*
D16*
X135660000Y-44780000D03*
D17*
X131850000Y-42240000D03*
X138200000Y-39700000D03*
D15*
X140740000Y-69780000D03*
X130580000Y-69780000D03*
D16*
X135660000Y-69780000D03*
D17*
X131850000Y-67240000D03*
X138200000Y-64700000D03*
D15*
X150240000Y-88780000D03*
X140080000Y-88780000D03*
D16*
X145160000Y-88780000D03*
D17*
X141350000Y-86240000D03*
X147700000Y-83700000D03*
D15*
X154990000Y-107780000D03*
X144830000Y-107780000D03*
D16*
X149910000Y-107780000D03*
D17*
X146100000Y-105240000D03*
X152450000Y-102700000D03*
D15*
X145490000Y-126780000D03*
X135330000Y-126780000D03*
D16*
X140410000Y-126780000D03*
D17*
X136600000Y-124240000D03*
X142950000Y-121700000D03*
D15*
X159740000Y-44780000D03*
X149580000Y-44780000D03*
D16*
X154660000Y-44780000D03*
D17*
X150850000Y-42240000D03*
X157200000Y-39700000D03*
D15*
X159740000Y-69780000D03*
X149580000Y-69780000D03*
D16*
X154660000Y-69780000D03*
D17*
X150850000Y-67240000D03*
X157200000Y-64700000D03*
D15*
X169240000Y-88780000D03*
X159080000Y-88780000D03*
D16*
X164160000Y-88780000D03*
D17*
X160350000Y-86240000D03*
X166700000Y-83700000D03*
D15*
X173990000Y-107780000D03*
X163830000Y-107780000D03*
D16*
X168910000Y-107780000D03*
D17*
X165100000Y-105240000D03*
X171450000Y-102700000D03*
D15*
X164490000Y-126780000D03*
X154330000Y-126780000D03*
D16*
X159410000Y-126780000D03*
D17*
X155600000Y-124240000D03*
X161950000Y-121700000D03*
D15*
X178740000Y-44780000D03*
X168580000Y-44780000D03*
D16*
X173660000Y-44780000D03*
D17*
X169850000Y-42240000D03*
X176200000Y-39700000D03*
D15*
X178740000Y-69780000D03*
X168580000Y-69780000D03*
D16*
X173660000Y-69780000D03*
D17*
X169850000Y-67240000D03*
X176200000Y-64700000D03*
D15*
X188240000Y-88780000D03*
X178080000Y-88780000D03*
D16*
X183160000Y-88780000D03*
D17*
X179350000Y-86240000D03*
X185700000Y-83700000D03*
D15*
X192990000Y-107780000D03*
X182830000Y-107780000D03*
D16*
X187910000Y-107780000D03*
D17*
X184100000Y-105240000D03*
X190450000Y-102700000D03*
D15*
X183490000Y-126780000D03*
X173330000Y-126780000D03*
D16*
X178410000Y-126780000D03*
D17*
X174600000Y-124240000D03*
X180950000Y-121700000D03*
D15*
X197740000Y-44780000D03*
X187580000Y-44780000D03*
D16*
X192660000Y-44780000D03*
D17*
X188850000Y-42240000D03*
X195200000Y-39700000D03*
D15*
X197740000Y-69780000D03*
X187580000Y-69780000D03*
D16*
X192660000Y-69780000D03*
D17*
X188850000Y-67240000D03*
X195200000Y-64700000D03*
D15*
X207240000Y-88780000D03*
X197080000Y-88780000D03*
D16*
X202160000Y-88780000D03*
D17*
X198350000Y-86240000D03*
X204700000Y-83700000D03*
D15*
X211990000Y-107780000D03*
X201830000Y-107780000D03*
D16*
X206910000Y-107780000D03*
D17*
X203100000Y-105240000D03*
X209450000Y-102700000D03*
D15*
X202490000Y-126780000D03*
X192330000Y-126780000D03*
D16*
X197410000Y-126780000D03*
D17*
X193600000Y-124240000D03*
X199950000Y-121700000D03*
D15*
X216740000Y-44780000D03*
X206580000Y-44780000D03*
D16*
X211660000Y-44780000D03*
D17*
X207850000Y-42240000D03*
X214200000Y-39700000D03*
D15*
X216740000Y-69780000D03*
X206580000Y-69780000D03*
D16*
X211660000Y-69780000D03*
D17*
X207850000Y-67240000D03*
X214200000Y-64700000D03*
D15*
X226240000Y-88780000D03*
X216080000Y-88780000D03*
D16*
X221160000Y-88780000D03*
D17*
X217350000Y-86240000D03*
X223700000Y-83700000D03*
D15*
X230990000Y-107780000D03*
X220830000Y-107780000D03*
D16*
X225910000Y-107780000D03*
D17*
X222100000Y-105240000D03*
X228450000Y-102700000D03*
D15*
X221490000Y-126780000D03*
X211330000Y-126780000D03*
D16*
X216410000Y-126780000D03*
D17*
X212600000Y-124240000D03*
X218950000Y-121700000D03*
D15*
X235740000Y-44780000D03*
X225580000Y-44780000D03*
D16*
X230660000Y-44780000D03*
D17*
X226850000Y-42240000D03*
X233200000Y-39700000D03*
D15*
X235740000Y-69780000D03*
X225580000Y-69780000D03*
D16*
X230660000Y-69780000D03*
D17*
X226850000Y-67240000D03*
X233200000Y-64700000D03*
D15*
X245240000Y-88780000D03*
X235080000Y-88780000D03*
D16*
X240160000Y-88780000D03*
D17*
X236350000Y-86240000D03*
X242700000Y-83700000D03*
D15*
X249990000Y-107780000D03*
X239830000Y-107780000D03*
D16*
X244910000Y-107780000D03*
D17*
X241100000Y-105240000D03*
X247450000Y-102700000D03*
D15*
X240490000Y-126780000D03*
X230330000Y-126780000D03*
D16*
X235410000Y-126780000D03*
D17*
X231600000Y-124240000D03*
X237950000Y-121700000D03*
D15*
X254740000Y-44780000D03*
X244580000Y-44780000D03*
D16*
X249660000Y-44780000D03*
D17*
X245850000Y-42240000D03*
X252200000Y-39700000D03*
D15*
X254740000Y-69780000D03*
X244580000Y-69780000D03*
D16*
X249660000Y-69780000D03*
D17*
X245850000Y-67240000D03*
X252200000Y-64700000D03*
D15*
X264240000Y-88780000D03*
X254080000Y-88780000D03*
D16*
X259160000Y-88780000D03*
D17*
X255350000Y-86240000D03*
X261700000Y-83700000D03*
D15*
X268990000Y-107780000D03*
X258830000Y-107780000D03*
D16*
X263910000Y-107780000D03*
D17*
X260100000Y-105240000D03*
X266450000Y-102700000D03*
D15*
X259490000Y-126780000D03*
X249330000Y-126780000D03*
D16*
X254410000Y-126780000D03*
D17*
X250600000Y-124240000D03*
X256950000Y-121700000D03*
D15*
X273740000Y-44780000D03*
X263580000Y-44780000D03*
D16*
X268660000Y-44780000D03*
D17*
X264850000Y-42240000D03*
X271200000Y-39700000D03*
D15*
X273740000Y-69780000D03*
X263580000Y-69780000D03*
D16*
X268660000Y-69780000D03*
D17*
X264850000Y-67240000D03*
X271200000Y-64700000D03*
D15*
X283240000Y-88780000D03*
X273080000Y-88780000D03*
D16*
X278160000Y-88780000D03*
D17*
X274350000Y-86240000D03*
X280700000Y-83700000D03*
D15*
X287990000Y-107780000D03*
X277830000Y-107780000D03*
D16*
X282910000Y-107780000D03*
D17*
X279100000Y-105240000D03*
X285450000Y-102700000D03*
D15*
X336740000Y-44780000D03*
X326580000Y-44780000D03*
D16*
X331660000Y-44780000D03*
D17*
X327850000Y-42240000D03*
X334200000Y-39700000D03*
D15*
X336740000Y-69780000D03*
X326580000Y-69780000D03*
D16*
X331660000Y-69780000D03*
D17*
X327850000Y-67240000D03*
X334200000Y-64700000D03*
D15*
X336740000Y-88780000D03*
X326580000Y-88780000D03*
D16*
X331660000Y-88780000D03*
D17*
X327850000Y-86240000D03*
X334200000Y-83700000D03*
D15*
X336740000Y-145780000D03*
X326580000Y-145780000D03*
D16*
X331660000Y-145780000D03*
D17*
X327850000Y-143240000D03*
X334200000Y-140700000D03*
D15*
X355740000Y-44780000D03*
X345580000Y-44780000D03*
D16*
X350660000Y-44780000D03*
D17*
X346850000Y-42240000D03*
X353200000Y-39700000D03*
D15*
X355740000Y-69780000D03*
X345580000Y-69780000D03*
D16*
X350660000Y-69780000D03*
D17*
X346850000Y-67240000D03*
X353200000Y-64700000D03*
D15*
X355740000Y-88780000D03*
X345580000Y-88780000D03*
D16*
X350660000Y-88780000D03*
D17*
X346850000Y-86240000D03*
X353200000Y-83700000D03*
D15*
X355740000Y-145780000D03*
X345580000Y-145780000D03*
D16*
X350660000Y-145780000D03*
D17*
X346850000Y-143240000D03*
X353200000Y-140700000D03*
D15*
X374740000Y-44780000D03*
X364580000Y-44780000D03*
D16*
X369660000Y-44780000D03*
D17*
X365850000Y-42240000D03*
X372200000Y-39700000D03*
D15*
X374740000Y-69780000D03*
X364580000Y-69780000D03*
D16*
X369660000Y-69780000D03*
D17*
X365850000Y-67240000D03*
X372200000Y-64700000D03*
D15*
X374740000Y-88780000D03*
X364580000Y-88780000D03*
D16*
X369660000Y-88780000D03*
D17*
X365850000Y-86240000D03*
X372200000Y-83700000D03*
D15*
X355740000Y-126780000D03*
X345580000Y-126780000D03*
D16*
X350660000Y-126780000D03*
D17*
X346850000Y-124240000D03*
X353200000Y-121700000D03*
D15*
X374740000Y-145780000D03*
X364580000Y-145780000D03*
D16*
X369660000Y-145780000D03*
D17*
X365850000Y-143240000D03*
X372200000Y-140700000D03*
D15*
X311740000Y-145780000D03*
X301580000Y-145780000D03*
D16*
X306660000Y-145780000D03*
D17*
X302850000Y-143240000D03*
X309200000Y-140700000D03*
D15*
X242865000Y-145780000D03*
X232705000Y-145780000D03*
D16*
X237785000Y-145780000D03*
D17*
X233975000Y-143240000D03*
X240325000Y-140700000D03*
D15*
X266615000Y-145780000D03*
X256455000Y-145780000D03*
D16*
X261535000Y-145780000D03*
D17*
X257725000Y-143240000D03*
X264075000Y-140700000D03*
D18*
X301935000Y-119780000D03*
X278135000Y-119780000D03*
D16*
X278135000Y-135020000D03*
X301935000Y-135020000D03*
D15*
X295115000Y-126780000D03*
X284955000Y-126780000D03*
D16*
X290035000Y-126780000D03*
D17*
X286225000Y-124240000D03*
X292575000Y-121700000D03*
D18*
X297285000Y-86380000D03*
X297285000Y-110180000D03*
D16*
X312525000Y-110180000D03*
X312525000Y-86380000D03*
D15*
X309365000Y-98280000D03*
X299205000Y-98280000D03*
D16*
X304285000Y-98280000D03*
D17*
X300475000Y-95740000D03*
X306825000Y-93200000D03*
D15*
X100365000Y-145780000D03*
X90205000Y-145780000D03*
D16*
X95285000Y-145780000D03*
D17*
X91475000Y-143240000D03*
X97825000Y-140700000D03*
D15*
X76615000Y-145780000D03*
X66455000Y-145780000D03*
D16*
X71535000Y-145780000D03*
D17*
X67725000Y-143240000D03*
X74075000Y-140700000D03*
D15*
X48115000Y-126780000D03*
X37955000Y-126780000D03*
D16*
X43035000Y-126780000D03*
D17*
X39225000Y-124240000D03*
X45575000Y-121700000D03*
D18*
X309060000Y-62780000D03*
X285260000Y-62780000D03*
D16*
X285260000Y-78020000D03*
X309060000Y-78020000D03*
D15*
X302240000Y-69780000D03*
X292080000Y-69780000D03*
D16*
X297160000Y-69780000D03*
D17*
X293350000Y-67240000D03*
X299700000Y-64700000D03*
D18*
X216535000Y-138780000D03*
X116535000Y-138780000D03*
D16*
X116535000Y-154020000D03*
X216535000Y-154020000D03*
D15*
X171615000Y-145780000D03*
X161455000Y-145780000D03*
D16*
X166535000Y-145780000D03*
D17*
X162725000Y-143240000D03*
X169075000Y-140700000D03*
D15*
X50490000Y-145780000D03*
X40330000Y-145780000D03*
D16*
X45410000Y-145780000D03*
D17*
X41600000Y-143240000D03*
X47950000Y-140700000D03*
D15*
X52865000Y-107780000D03*
X42705000Y-107780000D03*
D16*
X47785000Y-107780000D03*
D17*
X43975000Y-105240000D03*
X50325000Y-102700000D03*
D15*
X50490000Y-88780000D03*
X40330000Y-88780000D03*
D16*
X45410000Y-88780000D03*
D17*
X41600000Y-86240000D03*
X47950000Y-83700000D03*
M02*
