M48
; DRILL file {KiCad (5.1.0)-1} date 2022-03-22 21:13:18
; FORMAT={-:-/ absolute / metric / decimal}
; #@! TF.CreationDate,2022-03-22T21:13:18+01:00
; #@! TF.GenerationSoftware,Kicad,Pcbnew,(5.1.0)-1
; #@! TF.FileFunction,Plated,1,2,PTH
FMAT,2
METRIC
T1C0.400
T2C1.016
T3C1.500
%
G90
G05
T1
X51.378Y-52.87
X70.428Y-54.241
X89.396Y-55.034
X108.401Y-55.395
X127.4Y-56.019
X146.425Y-56.985
X165.398Y-58.011
X184.423Y-58.316
X203.417Y-59.251
X222.421Y-60.591
X241.395Y-61.277
X260.42Y-61.618
X279.368Y-59.789
X317.006Y-60.47
X320.9Y-44.4
X322.975Y-46.932
X324.829Y-92.956
X330.3Y-55.1
X338.621Y-112.21
X338.7Y-55.3
X342.411Y-59.296
X343.498Y-114.673
X349.1Y-54.8
X354.7Y-55.2
X357.6Y-55.4
X361.41Y-58.636
X362.446Y-151.63
X362.9Y-55.4
X366.1Y-56.9
X366.307Y-146.576
X367.806Y-149.421
X370.269Y-139.134
X374.41Y-79.164
X374.41Y-85.844
X374.511Y-135.324
X374.511Y-142.283
T2
X285.027Y-46.474
X285.027Y-49.014
X287.567Y-46.474
X287.567Y-49.014
X290.107Y-46.474
X290.107Y-49.014
X292.647Y-46.474
X292.647Y-49.014
X295.187Y-46.474
X295.187Y-49.014
X297.727Y-46.474
X297.727Y-49.014
X300.267Y-46.474
X300.267Y-49.014
X302.807Y-46.474
X302.807Y-49.014
X305.347Y-46.474
X305.347Y-49.014
X307.887Y-46.474
X307.887Y-49.014
X310.427Y-46.474
X310.427Y-49.014
X312.967Y-46.474
X312.967Y-49.014
X315.507Y-46.474
X315.507Y-49.014
T3
X74.85Y-42.24
X81.2Y-39.7
X212.6Y-124.24
X218.95Y-121.7
X146.1Y-105.24
X152.45Y-102.7
X91.475Y-143.24
X97.825Y-140.7
X84.35Y-86.24
X90.7Y-83.7
X274.35Y-86.24
X280.7Y-83.7
X112.85Y-67.24
X119.2Y-64.7
X346.85Y-42.24
X353.2Y-39.7
X207.85Y-67.24
X214.2Y-64.7
X346.85Y-67.24
X353.2Y-64.7
X89.1Y-105.24
X95.45Y-102.7
X281.475Y-143.24
X287.825Y-140.7
X184.1Y-105.24
X190.45Y-102.7
X36.85Y-42.24
X43.2Y-39.7
X136.6Y-124.24
X142.95Y-121.7
X346.85Y-124.24
X353.2Y-121.7
X165.1Y-105.24
X171.45Y-102.7
X150.85Y-67.24
X157.2Y-64.7
X233.975Y-143.24
X240.325Y-140.7
X36.85Y-67.24
X43.2Y-64.7
X127.1Y-105.24
X133.45Y-102.7
X188.85Y-42.24
X195.2Y-39.7
X302.85Y-143.24
X309.2Y-140.7
X226.85Y-42.24
X233.2Y-39.7
X264.85Y-42.24
X271.2Y-39.7
X207.85Y-42.24
X214.2Y-39.7
X327.85Y-67.24
X334.2Y-64.7
X67.725Y-143.24
X74.075Y-140.7
X70.1Y-105.24
X76.45Y-102.7
X245.85Y-42.24
X252.2Y-39.7
X98.6Y-124.24
X104.95Y-121.7
X293.35Y-67.24
X299.7Y-64.7
X260.1Y-105.24
X266.45Y-102.7
X198.35Y-86.24
X204.7Y-83.7
X79.6Y-124.24
X85.95Y-121.7
X327.85Y-42.24
X334.2Y-39.7
X122.35Y-86.24
X128.7Y-83.7
X346.85Y-86.24
X353.2Y-83.7
X222.1Y-105.24
X228.45Y-102.7
X93.85Y-67.24
X100.2Y-64.7
X365.85Y-67.24
X372.2Y-64.7
X179.35Y-86.24
X185.7Y-83.7
X103.35Y-86.24
X109.7Y-83.7
X150.85Y-42.24
X157.2Y-39.7
X365.85Y-42.24
X372.2Y-39.7
X131.85Y-67.24
X138.2Y-64.7
X108.1Y-105.24
X114.45Y-102.7
X257.725Y-143.24
X264.075Y-140.7
X55.85Y-67.24
X62.2Y-64.7
X55.85Y-42.24
X62.2Y-39.7
X155.6Y-124.24
X161.95Y-121.7
X160.35Y-86.24
X166.7Y-83.7
X300.475Y-95.74
X306.825Y-93.2
X241.1Y-105.24
X247.45Y-102.7
X169.85Y-42.24
X176.2Y-39.7
X39.225Y-124.24
X45.575Y-121.7
X231.6Y-124.24
X237.95Y-121.7
X327.85Y-143.24
X334.2Y-140.7
X41.6Y-143.24
X47.95Y-140.7
X60.6Y-124.24
X66.95Y-121.7
X255.35Y-86.24
X261.7Y-83.7
X117.6Y-124.24
X123.95Y-121.7
X43.975Y-105.24
X50.325Y-102.7
X74.85Y-67.24
X81.2Y-64.7
X264.85Y-67.24
X271.2Y-64.7
X203.1Y-105.24
X209.45Y-102.7
X162.725Y-143.24
X169.075Y-140.7
X327.85Y-86.24
X334.2Y-83.7
X188.85Y-67.24
X195.2Y-64.7
X93.85Y-42.24
X100.2Y-39.7
X346.85Y-143.24
X353.2Y-140.7
X226.85Y-67.24
X233.2Y-64.7
X193.6Y-124.24
X199.95Y-121.7
X365.85Y-86.24
X372.2Y-83.7
X141.35Y-86.24
X147.7Y-83.7
X131.85Y-42.24
X138.2Y-39.7
X365.85Y-143.24
X372.2Y-140.7
X112.85Y-42.24
X119.2Y-39.7
X174.6Y-124.24
X180.95Y-121.7
X286.225Y-124.24
X292.575Y-121.7
X169.85Y-67.24
X176.2Y-64.7
X217.35Y-86.24
X223.7Y-83.7
X65.35Y-86.24
X71.7Y-83.7
X245.85Y-67.24
X252.2Y-64.7
X279.1Y-105.24
X285.45Y-102.7
X41.6Y-86.24
X47.95Y-83.7
X236.35Y-86.24
X242.7Y-83.7
X250.6Y-124.24
X256.95Y-121.7
T0
M30
