%FSLAX45Y45*%
G04 Gerber Fmt 4.5, Leading zero omitted, Abs format (unit mm)*
G04 Created by KiCad (PCBNEW (5.1.0)-1) date 2022-03-22 21:13:21*
%MOMM*%
%LPD*%
G04 APERTURE LIST*
%ADD10C,0.050000*%
%ADD11C,0.200000*%
%ADD12C,0.300000*%
G04 APERTURE END LIST*
D10*
X38020000Y-15660000D02*
X38020000Y-15590000D01*
X3020000Y-15660000D02*
X38020000Y-15660000D01*
X3020000Y-15590000D02*
X3020000Y-15660000D01*
X3020000Y-3460000D02*
X3050000Y-3460000D01*
X3020000Y-15590000D02*
X3020000Y-3460000D01*
X38020000Y-3460000D02*
X37980000Y-3460000D01*
X38020000Y-15590000D02*
X38020000Y-3460000D01*
X37980000Y-3460000D02*
X3050000Y-3460000D01*
D11*
X5117780Y-5266980D02*
X5157780Y-5306980D01*
X5157780Y-5266980D02*
X5117780Y-5306980D01*
X7022780Y-5404140D02*
X7062780Y-5444140D01*
X7062780Y-5404140D02*
X7022780Y-5444140D01*
X8919620Y-5483420D02*
X8959620Y-5523420D01*
X8959620Y-5483420D02*
X8919620Y-5523420D01*
X10820080Y-5519520D02*
X10860080Y-5559520D01*
X10860080Y-5519520D02*
X10820080Y-5559520D01*
X12720000Y-5581940D02*
X12760000Y-5621940D01*
X12760000Y-5581940D02*
X12720000Y-5621940D01*
X14622460Y-5678460D02*
X14662460Y-5718460D01*
X14662460Y-5678460D02*
X14622460Y-5718460D01*
X16519840Y-5781140D02*
X16559840Y-5821140D01*
X16559840Y-5781140D02*
X16519840Y-5821140D01*
X18422300Y-5811620D02*
X18462300Y-5851620D01*
X18462300Y-5811620D02*
X18422300Y-5851620D01*
X20321680Y-5905060D02*
X20361680Y-5945060D01*
X20361680Y-5905060D02*
X20321680Y-5945060D01*
X22222140Y-6039140D02*
X22262140Y-6079140D01*
X22262140Y-6039140D02*
X22222140Y-6079140D01*
X24119520Y-6107720D02*
X24159520Y-6147720D01*
X24159520Y-6107720D02*
X24119520Y-6147720D01*
X26021980Y-6141820D02*
X26061980Y-6181820D01*
X26061980Y-6141820D02*
X26021980Y-6181820D01*
X27916820Y-5958940D02*
X27956820Y-5998940D01*
X27956820Y-5958940D02*
X27916820Y-5998940D01*
X31680560Y-6026980D02*
X31720560Y-6066980D01*
X31720560Y-6026980D02*
X31680560Y-6066980D01*
X32070000Y-4420000D02*
X32110000Y-4460000D01*
X32110000Y-4420000D02*
X32070000Y-4460000D01*
X32277460Y-4673160D02*
X32317460Y-4713160D01*
X32317460Y-4673160D02*
X32277460Y-4713160D01*
X32462880Y-9275640D02*
X32502880Y-9315640D01*
X32502880Y-9275640D02*
X32462880Y-9315640D01*
X33010000Y-5490000D02*
X33050000Y-5530000D01*
X33050000Y-5490000D02*
X33010000Y-5530000D01*
X33842100Y-11200960D02*
X33882100Y-11240960D01*
X33882100Y-11200960D02*
X33842100Y-11240960D01*
X33850000Y-5510000D02*
X33890000Y-5550000D01*
X33890000Y-5510000D02*
X33850000Y-5550000D01*
X34221100Y-5909600D02*
X34261100Y-5949600D01*
X34261100Y-5909600D02*
X34221100Y-5949600D01*
X34329780Y-11447340D02*
X34369780Y-11487340D01*
X34369780Y-11447340D02*
X34329780Y-11487340D01*
X34890000Y-5460000D02*
X34930000Y-5500000D01*
X34930000Y-5460000D02*
X34890000Y-5500000D01*
X35450000Y-5500000D02*
X35490000Y-5540000D01*
X35490000Y-5500000D02*
X35450000Y-5540000D01*
X35740000Y-5520000D02*
X35780000Y-5560000D01*
X35780000Y-5520000D02*
X35740000Y-5560000D01*
X36121020Y-5843560D02*
X36161020Y-5883560D01*
X36161020Y-5843560D02*
X36121020Y-5883560D01*
X36224620Y-15143040D02*
X36264620Y-15183040D01*
X36264620Y-15143040D02*
X36224620Y-15183040D01*
X36270000Y-5520000D02*
X36310000Y-5560000D01*
X36310000Y-5520000D02*
X36270000Y-5560000D01*
X36590000Y-5670000D02*
X36630000Y-5710000D01*
X36630000Y-5670000D02*
X36590000Y-5710000D01*
X36610700Y-14637580D02*
X36650700Y-14677580D01*
X36650700Y-14637580D02*
X36610700Y-14677580D01*
X36760560Y-14922060D02*
X36800560Y-14962060D01*
X36800560Y-14922060D02*
X36760560Y-14962060D01*
X37006940Y-13893360D02*
X37046940Y-13933360D01*
X37046940Y-13893360D02*
X37006940Y-13933360D01*
X37420960Y-7896420D02*
X37460960Y-7936420D01*
X37460960Y-7896420D02*
X37420960Y-7936420D01*
X37420960Y-8564440D02*
X37460960Y-8604440D01*
X37460960Y-8564440D02*
X37420960Y-8604440D01*
X37431120Y-13512360D02*
X37471120Y-13552360D01*
X37471120Y-13512360D02*
X37431120Y-13552360D01*
X37431120Y-14208320D02*
X37471120Y-14248320D01*
X37471120Y-14208320D02*
X37431120Y-14248320D01*
X28553500Y-4647440D02*
G75*
G03X28553500Y-4647440I-50800J0D01*
G01*
X28553500Y-4901440D02*
G75*
G03X28553500Y-4901440I-50800J0D01*
G01*
X28807500Y-4647440D02*
G75*
G03X28807500Y-4647440I-50800J0D01*
G01*
X28807500Y-4901440D02*
G75*
G03X28807500Y-4901440I-50800J0D01*
G01*
X29061500Y-4647440D02*
G75*
G03X29061500Y-4647440I-50800J0D01*
G01*
X29061500Y-4901440D02*
G75*
G03X29061500Y-4901440I-50800J0D01*
G01*
X29315500Y-4647440D02*
G75*
G03X29315500Y-4647440I-50800J0D01*
G01*
X29315500Y-4901440D02*
G75*
G03X29315500Y-4901440I-50800J0D01*
G01*
X29569500Y-4647440D02*
G75*
G03X29569500Y-4647440I-50800J0D01*
G01*
X29569500Y-4901440D02*
G75*
G03X29569500Y-4901440I-50800J0D01*
G01*
X29823500Y-4647440D02*
G75*
G03X29823500Y-4647440I-50800J0D01*
G01*
X29823500Y-4901440D02*
G75*
G03X29823500Y-4901440I-50800J0D01*
G01*
X30077500Y-4647440D02*
G75*
G03X30077500Y-4647440I-50800J0D01*
G01*
X30077500Y-4901440D02*
G75*
G03X30077500Y-4901440I-50800J0D01*
G01*
X30331500Y-4647440D02*
G75*
G03X30331500Y-4647440I-50800J0D01*
G01*
X30331500Y-4901440D02*
G75*
G03X30331500Y-4901440I-50800J0D01*
G01*
X30585500Y-4647440D02*
G75*
G03X30585500Y-4647440I-50800J0D01*
G01*
X30585500Y-4901440D02*
G75*
G03X30585500Y-4901440I-50800J0D01*
G01*
X30839500Y-4647440D02*
G75*
G03X30839500Y-4647440I-50800J0D01*
G01*
X30839500Y-4901440D02*
G75*
G03X30839500Y-4901440I-50800J0D01*
G01*
X31093500Y-4647440D02*
G75*
G03X31093500Y-4647440I-50800J0D01*
G01*
X31093500Y-4901440D02*
G75*
G03X31093500Y-4901440I-50800J0D01*
G01*
X31347500Y-4647440D02*
G75*
G03X31347500Y-4647440I-50800J0D01*
G01*
X31347500Y-4901440D02*
G75*
G03X31347500Y-4901440I-50800J0D01*
G01*
X31601500Y-4647440D02*
G75*
G03X31601500Y-4647440I-50800J0D01*
G01*
X31601500Y-4901440D02*
G75*
G03X31601500Y-4901440I-50800J0D01*
G01*
X7485000Y-4149000D02*
X7485000Y-4299000D01*
X7410000Y-4224000D02*
X7560000Y-4224000D01*
X8120000Y-3895000D02*
X8120000Y-4045000D01*
X8045000Y-3970000D02*
X8195000Y-3970000D01*
X21260000Y-12349000D02*
X21260000Y-12499000D01*
X21185000Y-12424000D02*
X21335000Y-12424000D01*
X21895000Y-12095000D02*
X21895000Y-12245000D01*
X21820000Y-12170000D02*
X21970000Y-12170000D01*
X14610000Y-10449000D02*
X14610000Y-10599000D01*
X14535000Y-10524000D02*
X14685000Y-10524000D01*
X15245000Y-10195000D02*
X15245000Y-10345000D01*
X15170000Y-10270000D02*
X15320000Y-10270000D01*
X9147500Y-14249000D02*
X9147500Y-14399000D01*
X9072500Y-14324000D02*
X9222500Y-14324000D01*
X9782500Y-13995000D02*
X9782500Y-14145000D01*
X9707500Y-14070000D02*
X9857500Y-14070000D01*
X8435000Y-8549000D02*
X8435000Y-8699000D01*
X8360000Y-8624000D02*
X8510000Y-8624000D01*
X9070000Y-8295000D02*
X9070000Y-8445000D01*
X8995000Y-8370000D02*
X9145000Y-8370000D01*
X27435000Y-8549000D02*
X27435000Y-8699000D01*
X27360000Y-8624000D02*
X27510000Y-8624000D01*
X28070000Y-8295000D02*
X28070000Y-8445000D01*
X27995000Y-8370000D02*
X28145000Y-8370000D01*
X11285000Y-6649000D02*
X11285000Y-6799000D01*
X11210000Y-6724000D02*
X11360000Y-6724000D01*
X11920000Y-6395000D02*
X11920000Y-6545000D01*
X11845000Y-6470000D02*
X11995000Y-6470000D01*
X34685000Y-4149000D02*
X34685000Y-4299000D01*
X34610000Y-4224000D02*
X34760000Y-4224000D01*
X35320000Y-3895000D02*
X35320000Y-4045000D01*
X35245000Y-3970000D02*
X35395000Y-3970000D01*
X20785000Y-6649000D02*
X20785000Y-6799000D01*
X20710000Y-6724000D02*
X20860000Y-6724000D01*
X21420000Y-6395000D02*
X21420000Y-6545000D01*
X21345000Y-6470000D02*
X21495000Y-6470000D01*
X34685000Y-6649000D02*
X34685000Y-6799000D01*
X34610000Y-6724000D02*
X34760000Y-6724000D01*
X35320000Y-6395000D02*
X35320000Y-6545000D01*
X35245000Y-6470000D02*
X35395000Y-6470000D01*
X8910000Y-10449000D02*
X8910000Y-10599000D01*
X8835000Y-10524000D02*
X8985000Y-10524000D01*
X9545000Y-10195000D02*
X9545000Y-10345000D01*
X9470000Y-10270000D02*
X9620000Y-10270000D01*
X28147500Y-14249000D02*
X28147500Y-14399000D01*
X28072500Y-14324000D02*
X28222500Y-14324000D01*
X28782500Y-13995000D02*
X28782500Y-14145000D01*
X28707500Y-14070000D02*
X28857500Y-14070000D01*
X18410000Y-10449000D02*
X18410000Y-10599000D01*
X18335000Y-10524000D02*
X18485000Y-10524000D01*
X19045000Y-10195000D02*
X19045000Y-10345000D01*
X18970000Y-10270000D02*
X19120000Y-10270000D01*
X3685000Y-4149000D02*
X3685000Y-4299000D01*
X3610000Y-4224000D02*
X3760000Y-4224000D01*
X4320000Y-3895000D02*
X4320000Y-4045000D01*
X4245000Y-3970000D02*
X4395000Y-3970000D01*
X13660000Y-12349000D02*
X13660000Y-12499000D01*
X13585000Y-12424000D02*
X13735000Y-12424000D01*
X14295000Y-12095000D02*
X14295000Y-12245000D01*
X14220000Y-12170000D02*
X14370000Y-12170000D01*
X34685000Y-12349000D02*
X34685000Y-12499000D01*
X34610000Y-12424000D02*
X34760000Y-12424000D01*
X35320000Y-12095000D02*
X35320000Y-12245000D01*
X35245000Y-12170000D02*
X35395000Y-12170000D01*
X16510000Y-10449000D02*
X16510000Y-10599000D01*
X16435000Y-10524000D02*
X16585000Y-10524000D01*
X17145000Y-10195000D02*
X17145000Y-10345000D01*
X17070000Y-10270000D02*
X17220000Y-10270000D01*
X15085000Y-6649000D02*
X15085000Y-6799000D01*
X15010000Y-6724000D02*
X15160000Y-6724000D01*
X15720000Y-6395000D02*
X15720000Y-6545000D01*
X15645000Y-6470000D02*
X15795000Y-6470000D01*
X23397500Y-14249000D02*
X23397500Y-14399000D01*
X23322500Y-14324000D02*
X23472500Y-14324000D01*
X24032500Y-13995000D02*
X24032500Y-14145000D01*
X23957500Y-14070000D02*
X24107500Y-14070000D01*
X3685000Y-6649000D02*
X3685000Y-6799000D01*
X3610000Y-6724000D02*
X3760000Y-6724000D01*
X4320000Y-6395000D02*
X4320000Y-6545000D01*
X4245000Y-6470000D02*
X4395000Y-6470000D01*
X12710000Y-10449000D02*
X12710000Y-10599000D01*
X12635000Y-10524000D02*
X12785000Y-10524000D01*
X13345000Y-10195000D02*
X13345000Y-10345000D01*
X13270000Y-10270000D02*
X13420000Y-10270000D01*
X18885000Y-4149000D02*
X18885000Y-4299000D01*
X18810000Y-4224000D02*
X18960000Y-4224000D01*
X19520000Y-3895000D02*
X19520000Y-4045000D01*
X19445000Y-3970000D02*
X19595000Y-3970000D01*
X30285000Y-14249000D02*
X30285000Y-14399000D01*
X30210000Y-14324000D02*
X30360000Y-14324000D01*
X30920000Y-13995000D02*
X30920000Y-14145000D01*
X30845000Y-14070000D02*
X30995000Y-14070000D01*
X22685000Y-4149000D02*
X22685000Y-4299000D01*
X22610000Y-4224000D02*
X22760000Y-4224000D01*
X23320000Y-3895000D02*
X23320000Y-4045000D01*
X23245000Y-3970000D02*
X23395000Y-3970000D01*
X26485000Y-4149000D02*
X26485000Y-4299000D01*
X26410000Y-4224000D02*
X26560000Y-4224000D01*
X27120000Y-3895000D02*
X27120000Y-4045000D01*
X27045000Y-3970000D02*
X27195000Y-3970000D01*
X20785000Y-4149000D02*
X20785000Y-4299000D01*
X20710000Y-4224000D02*
X20860000Y-4224000D01*
X21420000Y-3895000D02*
X21420000Y-4045000D01*
X21345000Y-3970000D02*
X21495000Y-3970000D01*
X32785000Y-6649000D02*
X32785000Y-6799000D01*
X32710000Y-6724000D02*
X32860000Y-6724000D01*
X33420000Y-6395000D02*
X33420000Y-6545000D01*
X33345000Y-6470000D02*
X33495000Y-6470000D01*
X6772500Y-14249000D02*
X6772500Y-14399000D01*
X6697500Y-14324000D02*
X6847500Y-14324000D01*
X7407500Y-13995000D02*
X7407500Y-14145000D01*
X7332500Y-14070000D02*
X7482500Y-14070000D01*
X7010000Y-10449000D02*
X7010000Y-10599000D01*
X6935000Y-10524000D02*
X7085000Y-10524000D01*
X7645000Y-10195000D02*
X7645000Y-10345000D01*
X7570000Y-10270000D02*
X7720000Y-10270000D01*
X24585000Y-4149000D02*
X24585000Y-4299000D01*
X24510000Y-4224000D02*
X24660000Y-4224000D01*
X25220000Y-3895000D02*
X25220000Y-4045000D01*
X25145000Y-3970000D02*
X25295000Y-3970000D01*
X9860000Y-12349000D02*
X9860000Y-12499000D01*
X9785000Y-12424000D02*
X9935000Y-12424000D01*
X10495000Y-12095000D02*
X10495000Y-12245000D01*
X10420000Y-12170000D02*
X10570000Y-12170000D01*
X29335000Y-6649000D02*
X29335000Y-6799000D01*
X29260000Y-6724000D02*
X29410000Y-6724000D01*
X29970000Y-6395000D02*
X29970000Y-6545000D01*
X29895000Y-6470000D02*
X30045000Y-6470000D01*
X26010000Y-10449000D02*
X26010000Y-10599000D01*
X25935000Y-10524000D02*
X26085000Y-10524000D01*
X26645000Y-10195000D02*
X26645000Y-10345000D01*
X26570000Y-10270000D02*
X26720000Y-10270000D01*
X19835000Y-8549000D02*
X19835000Y-8699000D01*
X19760000Y-8624000D02*
X19910000Y-8624000D01*
X20470000Y-8295000D02*
X20470000Y-8445000D01*
X20395000Y-8370000D02*
X20545000Y-8370000D01*
X7960000Y-12349000D02*
X7960000Y-12499000D01*
X7885000Y-12424000D02*
X8035000Y-12424000D01*
X8595000Y-12095000D02*
X8595000Y-12245000D01*
X8520000Y-12170000D02*
X8670000Y-12170000D01*
X32785000Y-4149000D02*
X32785000Y-4299000D01*
X32710000Y-4224000D02*
X32860000Y-4224000D01*
X33420000Y-3895000D02*
X33420000Y-4045000D01*
X33345000Y-3970000D02*
X33495000Y-3970000D01*
X12235000Y-8549000D02*
X12235000Y-8699000D01*
X12160000Y-8624000D02*
X12310000Y-8624000D01*
X12870000Y-8295000D02*
X12870000Y-8445000D01*
X12795000Y-8370000D02*
X12945000Y-8370000D01*
X34685000Y-8549000D02*
X34685000Y-8699000D01*
X34610000Y-8624000D02*
X34760000Y-8624000D01*
X35320000Y-8295000D02*
X35320000Y-8445000D01*
X35245000Y-8370000D02*
X35395000Y-8370000D01*
X22210000Y-10449000D02*
X22210000Y-10599000D01*
X22135000Y-10524000D02*
X22285000Y-10524000D01*
X22845000Y-10195000D02*
X22845000Y-10345000D01*
X22770000Y-10270000D02*
X22920000Y-10270000D01*
X9385000Y-6649000D02*
X9385000Y-6799000D01*
X9310000Y-6724000D02*
X9460000Y-6724000D01*
X10020000Y-6395000D02*
X10020000Y-6545000D01*
X9945000Y-6470000D02*
X10095000Y-6470000D01*
X36585000Y-6649000D02*
X36585000Y-6799000D01*
X36510000Y-6724000D02*
X36660000Y-6724000D01*
X37220000Y-6395000D02*
X37220000Y-6545000D01*
X37145000Y-6470000D02*
X37295000Y-6470000D01*
X17935000Y-8549000D02*
X17935000Y-8699000D01*
X17860000Y-8624000D02*
X18010000Y-8624000D01*
X18570000Y-8295000D02*
X18570000Y-8445000D01*
X18495000Y-8370000D02*
X18645000Y-8370000D01*
X10335000Y-8549000D02*
X10335000Y-8699000D01*
X10260000Y-8624000D02*
X10410000Y-8624000D01*
X10970000Y-8295000D02*
X10970000Y-8445000D01*
X10895000Y-8370000D02*
X11045000Y-8370000D01*
X15085000Y-4149000D02*
X15085000Y-4299000D01*
X15010000Y-4224000D02*
X15160000Y-4224000D01*
X15720000Y-3895000D02*
X15720000Y-4045000D01*
X15645000Y-3970000D02*
X15795000Y-3970000D01*
X36585000Y-4149000D02*
X36585000Y-4299000D01*
X36510000Y-4224000D02*
X36660000Y-4224000D01*
X37220000Y-3895000D02*
X37220000Y-4045000D01*
X37145000Y-3970000D02*
X37295000Y-3970000D01*
X13185000Y-6649000D02*
X13185000Y-6799000D01*
X13110000Y-6724000D02*
X13260000Y-6724000D01*
X13820000Y-6395000D02*
X13820000Y-6545000D01*
X13745000Y-6470000D02*
X13895000Y-6470000D01*
X10810000Y-10449000D02*
X10810000Y-10599000D01*
X10735000Y-10524000D02*
X10885000Y-10524000D01*
X11445000Y-10195000D02*
X11445000Y-10345000D01*
X11370000Y-10270000D02*
X11520000Y-10270000D01*
X25772500Y-14249000D02*
X25772500Y-14399000D01*
X25697500Y-14324000D02*
X25847500Y-14324000D01*
X26407500Y-13995000D02*
X26407500Y-14145000D01*
X26332500Y-14070000D02*
X26482500Y-14070000D01*
X5585000Y-6649000D02*
X5585000Y-6799000D01*
X5510000Y-6724000D02*
X5660000Y-6724000D01*
X6220000Y-6395000D02*
X6220000Y-6545000D01*
X6145000Y-6470000D02*
X6295000Y-6470000D01*
X5585000Y-4149000D02*
X5585000Y-4299000D01*
X5510000Y-4224000D02*
X5660000Y-4224000D01*
X6220000Y-3895000D02*
X6220000Y-4045000D01*
X6145000Y-3970000D02*
X6295000Y-3970000D01*
X15560000Y-12349000D02*
X15560000Y-12499000D01*
X15485000Y-12424000D02*
X15635000Y-12424000D01*
X16195000Y-12095000D02*
X16195000Y-12245000D01*
X16120000Y-12170000D02*
X16270000Y-12170000D01*
X16035000Y-8549000D02*
X16035000Y-8699000D01*
X15960000Y-8624000D02*
X16110000Y-8624000D01*
X16670000Y-8295000D02*
X16670000Y-8445000D01*
X16595000Y-8370000D02*
X16745000Y-8370000D01*
X30047500Y-9499000D02*
X30047500Y-9649000D01*
X29972500Y-9574000D02*
X30122500Y-9574000D01*
X30682500Y-9245000D02*
X30682500Y-9395000D01*
X30607500Y-9320000D02*
X30757500Y-9320000D01*
X24110000Y-10449000D02*
X24110000Y-10599000D01*
X24035000Y-10524000D02*
X24185000Y-10524000D01*
X24745000Y-10195000D02*
X24745000Y-10345000D01*
X24670000Y-10270000D02*
X24820000Y-10270000D01*
X16985000Y-4149000D02*
X16985000Y-4299000D01*
X16910000Y-4224000D02*
X17060000Y-4224000D01*
X17620000Y-3895000D02*
X17620000Y-4045000D01*
X17545000Y-3970000D02*
X17695000Y-3970000D01*
X3922500Y-12349000D02*
X3922500Y-12499000D01*
X3847500Y-12424000D02*
X3997500Y-12424000D01*
X4557500Y-12095000D02*
X4557500Y-12245000D01*
X4482500Y-12170000D02*
X4632500Y-12170000D01*
X23160000Y-12349000D02*
X23160000Y-12499000D01*
X23085000Y-12424000D02*
X23235000Y-12424000D01*
X23795000Y-12095000D02*
X23795000Y-12245000D01*
X23720000Y-12170000D02*
X23870000Y-12170000D01*
X32785000Y-14249000D02*
X32785000Y-14399000D01*
X32710000Y-14324000D02*
X32860000Y-14324000D01*
X33420000Y-13995000D02*
X33420000Y-14145000D01*
X33345000Y-14070000D02*
X33495000Y-14070000D01*
X4160000Y-14249000D02*
X4160000Y-14399000D01*
X4085000Y-14324000D02*
X4235000Y-14324000D01*
X4795000Y-13995000D02*
X4795000Y-14145000D01*
X4720000Y-14070000D02*
X4870000Y-14070000D01*
X6060000Y-12349000D02*
X6060000Y-12499000D01*
X5985000Y-12424000D02*
X6135000Y-12424000D01*
X6695000Y-12095000D02*
X6695000Y-12245000D01*
X6620000Y-12170000D02*
X6770000Y-12170000D01*
X25535000Y-8549000D02*
X25535000Y-8699000D01*
X25460000Y-8624000D02*
X25610000Y-8624000D01*
X26170000Y-8295000D02*
X26170000Y-8445000D01*
X26095000Y-8370000D02*
X26245000Y-8370000D01*
X11760000Y-12349000D02*
X11760000Y-12499000D01*
X11685000Y-12424000D02*
X11835000Y-12424000D01*
X12395000Y-12095000D02*
X12395000Y-12245000D01*
X12320000Y-12170000D02*
X12470000Y-12170000D01*
X4397500Y-10449000D02*
X4397500Y-10599000D01*
X4322500Y-10524000D02*
X4472500Y-10524000D01*
X5032500Y-10195000D02*
X5032500Y-10345000D01*
X4957500Y-10270000D02*
X5107500Y-10270000D01*
X7485000Y-6649000D02*
X7485000Y-6799000D01*
X7410000Y-6724000D02*
X7560000Y-6724000D01*
X8120000Y-6395000D02*
X8120000Y-6545000D01*
X8045000Y-6470000D02*
X8195000Y-6470000D01*
X26485000Y-6649000D02*
X26485000Y-6799000D01*
X26410000Y-6724000D02*
X26560000Y-6724000D01*
X27120000Y-6395000D02*
X27120000Y-6545000D01*
X27045000Y-6470000D02*
X27195000Y-6470000D01*
X20310000Y-10449000D02*
X20310000Y-10599000D01*
X20235000Y-10524000D02*
X20385000Y-10524000D01*
X20945000Y-10195000D02*
X20945000Y-10345000D01*
X20870000Y-10270000D02*
X21020000Y-10270000D01*
X16272500Y-14249000D02*
X16272500Y-14399000D01*
X16197500Y-14324000D02*
X16347500Y-14324000D01*
X16907500Y-13995000D02*
X16907500Y-14145000D01*
X16832500Y-14070000D02*
X16982500Y-14070000D01*
X32785000Y-8549000D02*
X32785000Y-8699000D01*
X32710000Y-8624000D02*
X32860000Y-8624000D01*
X33420000Y-8295000D02*
X33420000Y-8445000D01*
X33345000Y-8370000D02*
X33495000Y-8370000D01*
X18885000Y-6649000D02*
X18885000Y-6799000D01*
X18810000Y-6724000D02*
X18960000Y-6724000D01*
X19520000Y-6395000D02*
X19520000Y-6545000D01*
X19445000Y-6470000D02*
X19595000Y-6470000D01*
X9385000Y-4149000D02*
X9385000Y-4299000D01*
X9310000Y-4224000D02*
X9460000Y-4224000D01*
X10020000Y-3895000D02*
X10020000Y-4045000D01*
X9945000Y-3970000D02*
X10095000Y-3970000D01*
X34685000Y-14249000D02*
X34685000Y-14399000D01*
X34610000Y-14324000D02*
X34760000Y-14324000D01*
X35320000Y-13995000D02*
X35320000Y-14145000D01*
X35245000Y-14070000D02*
X35395000Y-14070000D01*
X22685000Y-6649000D02*
X22685000Y-6799000D01*
X22610000Y-6724000D02*
X22760000Y-6724000D01*
X23320000Y-6395000D02*
X23320000Y-6545000D01*
X23245000Y-6470000D02*
X23395000Y-6470000D01*
X19360000Y-12349000D02*
X19360000Y-12499000D01*
X19285000Y-12424000D02*
X19435000Y-12424000D01*
X19995000Y-12095000D02*
X19995000Y-12245000D01*
X19920000Y-12170000D02*
X20070000Y-12170000D01*
X36585000Y-8549000D02*
X36585000Y-8699000D01*
X36510000Y-8624000D02*
X36660000Y-8624000D01*
X37220000Y-8295000D02*
X37220000Y-8445000D01*
X37145000Y-8370000D02*
X37295000Y-8370000D01*
X14135000Y-8549000D02*
X14135000Y-8699000D01*
X14060000Y-8624000D02*
X14210000Y-8624000D01*
X14770000Y-8295000D02*
X14770000Y-8445000D01*
X14695000Y-8370000D02*
X14845000Y-8370000D01*
X13185000Y-4149000D02*
X13185000Y-4299000D01*
X13110000Y-4224000D02*
X13260000Y-4224000D01*
X13820000Y-3895000D02*
X13820000Y-4045000D01*
X13745000Y-3970000D02*
X13895000Y-3970000D01*
X36585000Y-14249000D02*
X36585000Y-14399000D01*
X36510000Y-14324000D02*
X36660000Y-14324000D01*
X37220000Y-13995000D02*
X37220000Y-14145000D01*
X37145000Y-14070000D02*
X37295000Y-14070000D01*
X11285000Y-4149000D02*
X11285000Y-4299000D01*
X11210000Y-4224000D02*
X11360000Y-4224000D01*
X11920000Y-3895000D02*
X11920000Y-4045000D01*
X11845000Y-3970000D02*
X11995000Y-3970000D01*
X17460000Y-12349000D02*
X17460000Y-12499000D01*
X17385000Y-12424000D02*
X17535000Y-12424000D01*
X18095000Y-12095000D02*
X18095000Y-12245000D01*
X18020000Y-12170000D02*
X18170000Y-12170000D01*
X28622500Y-12349000D02*
X28622500Y-12499000D01*
X28547500Y-12424000D02*
X28697500Y-12424000D01*
X29257500Y-12095000D02*
X29257500Y-12245000D01*
X29182500Y-12170000D02*
X29332500Y-12170000D01*
X16985000Y-6649000D02*
X16985000Y-6799000D01*
X16910000Y-6724000D02*
X17060000Y-6724000D01*
X17620000Y-6395000D02*
X17620000Y-6545000D01*
X17545000Y-6470000D02*
X17695000Y-6470000D01*
X21735000Y-8549000D02*
X21735000Y-8699000D01*
X21660000Y-8624000D02*
X21810000Y-8624000D01*
X22370000Y-8295000D02*
X22370000Y-8445000D01*
X22295000Y-8370000D02*
X22445000Y-8370000D01*
X6535000Y-8549000D02*
X6535000Y-8699000D01*
X6460000Y-8624000D02*
X6610000Y-8624000D01*
X7170000Y-8295000D02*
X7170000Y-8445000D01*
X7095000Y-8370000D02*
X7245000Y-8370000D01*
X24585000Y-6649000D02*
X24585000Y-6799000D01*
X24510000Y-6724000D02*
X24660000Y-6724000D01*
X25220000Y-6395000D02*
X25220000Y-6545000D01*
X25145000Y-6470000D02*
X25295000Y-6470000D01*
X27910000Y-10449000D02*
X27910000Y-10599000D01*
X27835000Y-10524000D02*
X27985000Y-10524000D01*
X28545000Y-10195000D02*
X28545000Y-10345000D01*
X28470000Y-10270000D02*
X28620000Y-10270000D01*
X4160000Y-8549000D02*
X4160000Y-8699000D01*
X4085000Y-8624000D02*
X4235000Y-8624000D01*
X4795000Y-8295000D02*
X4795000Y-8445000D01*
X4720000Y-8370000D02*
X4870000Y-8370000D01*
X23635000Y-8549000D02*
X23635000Y-8699000D01*
X23560000Y-8624000D02*
X23710000Y-8624000D01*
X24270000Y-8295000D02*
X24270000Y-8445000D01*
X24195000Y-8370000D02*
X24345000Y-8370000D01*
X25060000Y-12349000D02*
X25060000Y-12499000D01*
X24985000Y-12424000D02*
X25135000Y-12424000D01*
X25695000Y-12095000D02*
X25695000Y-12245000D01*
X25620000Y-12170000D02*
X25770000Y-12170000D01*
D12*
X3303928Y-16128214D02*
X3303928Y-15828214D01*
X3375357Y-15828214D01*
X3418214Y-15842500D01*
X3446786Y-15871071D01*
X3461071Y-15899643D01*
X3475357Y-15956786D01*
X3475357Y-15999643D01*
X3461071Y-16056786D01*
X3446786Y-16085357D01*
X3418214Y-16113929D01*
X3375357Y-16128214D01*
X3303928Y-16128214D01*
X3603928Y-16128214D02*
X3603928Y-15928214D01*
X3603928Y-15985357D02*
X3618214Y-15956786D01*
X3632500Y-15942500D01*
X3661071Y-15928214D01*
X3689643Y-15928214D01*
X3789643Y-16128214D02*
X3789643Y-15928214D01*
X3789643Y-15828214D02*
X3775357Y-15842500D01*
X3789643Y-15856786D01*
X3803928Y-15842500D01*
X3789643Y-15828214D01*
X3789643Y-15856786D01*
X3975357Y-16128214D02*
X3946786Y-16113929D01*
X3932500Y-16085357D01*
X3932500Y-15828214D01*
X4132500Y-16128214D02*
X4103928Y-16113929D01*
X4089643Y-16085357D01*
X4089643Y-15828214D01*
X4475357Y-16128214D02*
X4475357Y-15828214D01*
X4575357Y-16042500D01*
X4675357Y-15828214D01*
X4675357Y-16128214D01*
X4946786Y-16128214D02*
X4946786Y-15971071D01*
X4932500Y-15942500D01*
X4903928Y-15928214D01*
X4846786Y-15928214D01*
X4818214Y-15942500D01*
X4946786Y-16113929D02*
X4918214Y-16128214D01*
X4846786Y-16128214D01*
X4818214Y-16113929D01*
X4803928Y-16085357D01*
X4803928Y-16056786D01*
X4818214Y-16028214D01*
X4846786Y-16013929D01*
X4918214Y-16013929D01*
X4946786Y-15999643D01*
X5089643Y-15928214D02*
X5089643Y-16228214D01*
X5089643Y-15942500D02*
X5118214Y-15928214D01*
X5175357Y-15928214D01*
X5203928Y-15942500D01*
X5218214Y-15956786D01*
X5232500Y-15985357D01*
X5232500Y-16071071D01*
X5218214Y-16099643D01*
X5203928Y-16113929D01*
X5175357Y-16128214D01*
X5118214Y-16128214D01*
X5089643Y-16113929D01*
X5361071Y-16099643D02*
X5375357Y-16113929D01*
X5361071Y-16128214D01*
X5346786Y-16113929D01*
X5361071Y-16099643D01*
X5361071Y-16128214D01*
X5361071Y-15942500D02*
X5375357Y-15956786D01*
X5361071Y-15971071D01*
X5346786Y-15956786D01*
X5361071Y-15942500D01*
X5361071Y-15971071D01*
X2977500Y-16602500D02*
X3017500Y-16642500D01*
X3017500Y-16602500D02*
X2977500Y-16642500D01*
X3361071Y-16458214D02*
X3389643Y-16458214D01*
X3418214Y-16472500D01*
X3432500Y-16486786D01*
X3446786Y-16515357D01*
X3461071Y-16572500D01*
X3461071Y-16643929D01*
X3446786Y-16701071D01*
X3432500Y-16729643D01*
X3418214Y-16743929D01*
X3389643Y-16758214D01*
X3361071Y-16758214D01*
X3332500Y-16743929D01*
X3318214Y-16729643D01*
X3303928Y-16701071D01*
X3289643Y-16643929D01*
X3289643Y-16572500D01*
X3303928Y-16515357D01*
X3318214Y-16486786D01*
X3332500Y-16472500D01*
X3361071Y-16458214D01*
X3589643Y-16729643D02*
X3603928Y-16743929D01*
X3589643Y-16758214D01*
X3575357Y-16743929D01*
X3589643Y-16729643D01*
X3589643Y-16758214D01*
X3861071Y-16558214D02*
X3861071Y-16758214D01*
X3789643Y-16443929D02*
X3718214Y-16658214D01*
X3903928Y-16658214D01*
X4075357Y-16458214D02*
X4103928Y-16458214D01*
X4132500Y-16472500D01*
X4146786Y-16486786D01*
X4161071Y-16515357D01*
X4175357Y-16572500D01*
X4175357Y-16643929D01*
X4161071Y-16701071D01*
X4146786Y-16729643D01*
X4132500Y-16743929D01*
X4103928Y-16758214D01*
X4075357Y-16758214D01*
X4046786Y-16743929D01*
X4032500Y-16729643D01*
X4018214Y-16701071D01*
X4003928Y-16643929D01*
X4003928Y-16572500D01*
X4018214Y-16515357D01*
X4032500Y-16486786D01*
X4046786Y-16472500D01*
X4075357Y-16458214D01*
X4303928Y-16758214D02*
X4303928Y-16558214D01*
X4303928Y-16586786D02*
X4318214Y-16572500D01*
X4346786Y-16558214D01*
X4389643Y-16558214D01*
X4418214Y-16572500D01*
X4432500Y-16601071D01*
X4432500Y-16758214D01*
X4432500Y-16601071D02*
X4446786Y-16572500D01*
X4475357Y-16558214D01*
X4518214Y-16558214D01*
X4546786Y-16572500D01*
X4561071Y-16601071D01*
X4561071Y-16758214D01*
X4703928Y-16758214D02*
X4703928Y-16558214D01*
X4703928Y-16586786D02*
X4718214Y-16572500D01*
X4746786Y-16558214D01*
X4789643Y-16558214D01*
X4818214Y-16572500D01*
X4832500Y-16601071D01*
X4832500Y-16758214D01*
X4832500Y-16601071D02*
X4846786Y-16572500D01*
X4875357Y-16558214D01*
X4918214Y-16558214D01*
X4946786Y-16572500D01*
X4961071Y-16601071D01*
X4961071Y-16758214D01*
X5546786Y-16443929D02*
X5289643Y-16829643D01*
X5932500Y-16458214D02*
X5961071Y-16458214D01*
X5989643Y-16472500D01*
X6003928Y-16486786D01*
X6018214Y-16515357D01*
X6032500Y-16572500D01*
X6032500Y-16643929D01*
X6018214Y-16701071D01*
X6003928Y-16729643D01*
X5989643Y-16743929D01*
X5961071Y-16758214D01*
X5932500Y-16758214D01*
X5903928Y-16743929D01*
X5889643Y-16729643D01*
X5875357Y-16701071D01*
X5861071Y-16643929D01*
X5861071Y-16572500D01*
X5875357Y-16515357D01*
X5889643Y-16486786D01*
X5903928Y-16472500D01*
X5932500Y-16458214D01*
X6161071Y-16729643D02*
X6175357Y-16743929D01*
X6161071Y-16758214D01*
X6146786Y-16743929D01*
X6161071Y-16729643D01*
X6161071Y-16758214D01*
X6361071Y-16458214D02*
X6389643Y-16458214D01*
X6418214Y-16472500D01*
X6432500Y-16486786D01*
X6446786Y-16515357D01*
X6461071Y-16572500D01*
X6461071Y-16643929D01*
X6446786Y-16701071D01*
X6432500Y-16729643D01*
X6418214Y-16743929D01*
X6389643Y-16758214D01*
X6361071Y-16758214D01*
X6332500Y-16743929D01*
X6318214Y-16729643D01*
X6303928Y-16701071D01*
X6289643Y-16643929D01*
X6289643Y-16572500D01*
X6303928Y-16515357D01*
X6318214Y-16486786D01*
X6332500Y-16472500D01*
X6361071Y-16458214D01*
X6746786Y-16758214D02*
X6575357Y-16758214D01*
X6661071Y-16758214D02*
X6661071Y-16458214D01*
X6632500Y-16501071D01*
X6603928Y-16529643D01*
X6575357Y-16543929D01*
X7003928Y-16458214D02*
X6946786Y-16458214D01*
X6918214Y-16472500D01*
X6903928Y-16486786D01*
X6875357Y-16529643D01*
X6861071Y-16586786D01*
X6861071Y-16701071D01*
X6875357Y-16729643D01*
X6889643Y-16743929D01*
X6918214Y-16758214D01*
X6975357Y-16758214D01*
X7003928Y-16743929D01*
X7018214Y-16729643D01*
X7032500Y-16701071D01*
X7032500Y-16629643D01*
X7018214Y-16601071D01*
X7003928Y-16586786D01*
X6975357Y-16572500D01*
X6918214Y-16572500D01*
X6889643Y-16586786D01*
X6875357Y-16601071D01*
X6861071Y-16629643D01*
X7146786Y-16458214D02*
X7146786Y-16515357D01*
X7261071Y-16458214D02*
X7261071Y-16515357D01*
X7703928Y-16872500D02*
X7689643Y-16858214D01*
X7661071Y-16815357D01*
X7646786Y-16786786D01*
X7632500Y-16743929D01*
X7618214Y-16672500D01*
X7618214Y-16615357D01*
X7632500Y-16543929D01*
X7646786Y-16501071D01*
X7661071Y-16472500D01*
X7689643Y-16429643D01*
X7703928Y-16415357D01*
X7789643Y-16458214D02*
X7975357Y-16458214D01*
X7875357Y-16572500D01*
X7918214Y-16572500D01*
X7946786Y-16586786D01*
X7961071Y-16601071D01*
X7975357Y-16629643D01*
X7975357Y-16701071D01*
X7961071Y-16729643D01*
X7946786Y-16743929D01*
X7918214Y-16758214D01*
X7832500Y-16758214D01*
X7803928Y-16743929D01*
X7789643Y-16729643D01*
X8232500Y-16458214D02*
X8175357Y-16458214D01*
X8146786Y-16472500D01*
X8132500Y-16486786D01*
X8103928Y-16529643D01*
X8089643Y-16586786D01*
X8089643Y-16701071D01*
X8103928Y-16729643D01*
X8118214Y-16743929D01*
X8146786Y-16758214D01*
X8203928Y-16758214D01*
X8232500Y-16743929D01*
X8246786Y-16729643D01*
X8261071Y-16701071D01*
X8261071Y-16629643D01*
X8246786Y-16601071D01*
X8232500Y-16586786D01*
X8203928Y-16572500D01*
X8146786Y-16572500D01*
X8118214Y-16586786D01*
X8103928Y-16601071D01*
X8089643Y-16629643D01*
X8618214Y-16758214D02*
X8618214Y-16458214D01*
X8746786Y-16758214D02*
X8746786Y-16601071D01*
X8732500Y-16572500D01*
X8703928Y-16558214D01*
X8661071Y-16558214D01*
X8632500Y-16572500D01*
X8618214Y-16586786D01*
X8932500Y-16758214D02*
X8903928Y-16743929D01*
X8889643Y-16729643D01*
X8875357Y-16701071D01*
X8875357Y-16615357D01*
X8889643Y-16586786D01*
X8903928Y-16572500D01*
X8932500Y-16558214D01*
X8975357Y-16558214D01*
X9003928Y-16572500D01*
X9018214Y-16586786D01*
X9032500Y-16615357D01*
X9032500Y-16701071D01*
X9018214Y-16729643D01*
X9003928Y-16743929D01*
X8975357Y-16758214D01*
X8932500Y-16758214D01*
X9203928Y-16758214D02*
X9175357Y-16743929D01*
X9161071Y-16715357D01*
X9161071Y-16458214D01*
X9432500Y-16743929D02*
X9403928Y-16758214D01*
X9346786Y-16758214D01*
X9318214Y-16743929D01*
X9303928Y-16715357D01*
X9303928Y-16601071D01*
X9318214Y-16572500D01*
X9346786Y-16558214D01*
X9403928Y-16558214D01*
X9432500Y-16572500D01*
X9446786Y-16601071D01*
X9446786Y-16629643D01*
X9303928Y-16658214D01*
X9561071Y-16743929D02*
X9589643Y-16758214D01*
X9646786Y-16758214D01*
X9675357Y-16743929D01*
X9689643Y-16715357D01*
X9689643Y-16701071D01*
X9675357Y-16672500D01*
X9646786Y-16658214D01*
X9603928Y-16658214D01*
X9575357Y-16643929D01*
X9561071Y-16615357D01*
X9561071Y-16601071D01*
X9575357Y-16572500D01*
X9603928Y-16558214D01*
X9646786Y-16558214D01*
X9675357Y-16572500D01*
X9789643Y-16872500D02*
X9803928Y-16858214D01*
X9832500Y-16815357D01*
X9846786Y-16786786D01*
X9861071Y-16743929D01*
X9875357Y-16672500D01*
X9875357Y-16615357D01*
X9861071Y-16543929D01*
X9846786Y-16501071D01*
X9832500Y-16472500D01*
X9803928Y-16429643D01*
X9789643Y-16415357D01*
X3017500Y-17018500D02*
G75*
G03X3017500Y-17018500I-50800J0D01*
G01*
X3461071Y-17154214D02*
X3289643Y-17154214D01*
X3375357Y-17154214D02*
X3375357Y-16854214D01*
X3346786Y-16897072D01*
X3318214Y-16925643D01*
X3289643Y-16939929D01*
X3589643Y-17125643D02*
X3603928Y-17139929D01*
X3589643Y-17154214D01*
X3575357Y-17139929D01*
X3589643Y-17125643D01*
X3589643Y-17154214D01*
X3789643Y-16854214D02*
X3818214Y-16854214D01*
X3846786Y-16868500D01*
X3861071Y-16882786D01*
X3875357Y-16911357D01*
X3889643Y-16968500D01*
X3889643Y-17039929D01*
X3875357Y-17097072D01*
X3861071Y-17125643D01*
X3846786Y-17139929D01*
X3818214Y-17154214D01*
X3789643Y-17154214D01*
X3761071Y-17139929D01*
X3746786Y-17125643D01*
X3732500Y-17097072D01*
X3718214Y-17039929D01*
X3718214Y-16968500D01*
X3732500Y-16911357D01*
X3746786Y-16882786D01*
X3761071Y-16868500D01*
X3789643Y-16854214D01*
X4003928Y-16882786D02*
X4018214Y-16868500D01*
X4046786Y-16854214D01*
X4118214Y-16854214D01*
X4146786Y-16868500D01*
X4161071Y-16882786D01*
X4175357Y-16911357D01*
X4175357Y-16939929D01*
X4161071Y-16982786D01*
X3989643Y-17154214D01*
X4175357Y-17154214D01*
X4303928Y-17154214D02*
X4303928Y-16954214D01*
X4303928Y-16982786D02*
X4318214Y-16968500D01*
X4346786Y-16954214D01*
X4389643Y-16954214D01*
X4418214Y-16968500D01*
X4432500Y-16997072D01*
X4432500Y-17154214D01*
X4432500Y-16997072D02*
X4446786Y-16968500D01*
X4475357Y-16954214D01*
X4518214Y-16954214D01*
X4546786Y-16968500D01*
X4561071Y-16997072D01*
X4561071Y-17154214D01*
X4703928Y-17154214D02*
X4703928Y-16954214D01*
X4703928Y-16982786D02*
X4718214Y-16968500D01*
X4746786Y-16954214D01*
X4789643Y-16954214D01*
X4818214Y-16968500D01*
X4832500Y-16997072D01*
X4832500Y-17154214D01*
X4832500Y-16997072D02*
X4846786Y-16968500D01*
X4875357Y-16954214D01*
X4918214Y-16954214D01*
X4946786Y-16968500D01*
X4961071Y-16997072D01*
X4961071Y-17154214D01*
X5546786Y-16839929D02*
X5289643Y-17225643D01*
X5932500Y-16854214D02*
X5961071Y-16854214D01*
X5989643Y-16868500D01*
X6003928Y-16882786D01*
X6018214Y-16911357D01*
X6032500Y-16968500D01*
X6032500Y-17039929D01*
X6018214Y-17097072D01*
X6003928Y-17125643D01*
X5989643Y-17139929D01*
X5961071Y-17154214D01*
X5932500Y-17154214D01*
X5903928Y-17139929D01*
X5889643Y-17125643D01*
X5875357Y-17097072D01*
X5861071Y-17039929D01*
X5861071Y-16968500D01*
X5875357Y-16911357D01*
X5889643Y-16882786D01*
X5903928Y-16868500D01*
X5932500Y-16854214D01*
X6161071Y-17125643D02*
X6175357Y-17139929D01*
X6161071Y-17154214D01*
X6146786Y-17139929D01*
X6161071Y-17125643D01*
X6161071Y-17154214D01*
X6361071Y-16854214D02*
X6389643Y-16854214D01*
X6418214Y-16868500D01*
X6432500Y-16882786D01*
X6446786Y-16911357D01*
X6461071Y-16968500D01*
X6461071Y-17039929D01*
X6446786Y-17097072D01*
X6432500Y-17125643D01*
X6418214Y-17139929D01*
X6389643Y-17154214D01*
X6361071Y-17154214D01*
X6332500Y-17139929D01*
X6318214Y-17125643D01*
X6303928Y-17097072D01*
X6289643Y-17039929D01*
X6289643Y-16968500D01*
X6303928Y-16911357D01*
X6318214Y-16882786D01*
X6332500Y-16868500D01*
X6361071Y-16854214D01*
X6718214Y-16954214D02*
X6718214Y-17154214D01*
X6646786Y-16839929D02*
X6575357Y-17054214D01*
X6761071Y-17054214D01*
X6932500Y-16854214D02*
X6961071Y-16854214D01*
X6989643Y-16868500D01*
X7003928Y-16882786D01*
X7018214Y-16911357D01*
X7032500Y-16968500D01*
X7032500Y-17039929D01*
X7018214Y-17097072D01*
X7003928Y-17125643D01*
X6989643Y-17139929D01*
X6961071Y-17154214D01*
X6932500Y-17154214D01*
X6903928Y-17139929D01*
X6889643Y-17125643D01*
X6875357Y-17097072D01*
X6861071Y-17039929D01*
X6861071Y-16968500D01*
X6875357Y-16911357D01*
X6889643Y-16882786D01*
X6903928Y-16868500D01*
X6932500Y-16854214D01*
X7146786Y-16854214D02*
X7146786Y-16911357D01*
X7261071Y-16854214D02*
X7261071Y-16911357D01*
X7703928Y-17268500D02*
X7689643Y-17254214D01*
X7661071Y-17211357D01*
X7646786Y-17182786D01*
X7632500Y-17139929D01*
X7618214Y-17068500D01*
X7618214Y-17011357D01*
X7632500Y-16939929D01*
X7646786Y-16897072D01*
X7661071Y-16868500D01*
X7689643Y-16825643D01*
X7703928Y-16811357D01*
X7803928Y-16882786D02*
X7818214Y-16868500D01*
X7846786Y-16854214D01*
X7918214Y-16854214D01*
X7946786Y-16868500D01*
X7961071Y-16882786D01*
X7975357Y-16911357D01*
X7975357Y-16939929D01*
X7961071Y-16982786D01*
X7789643Y-17154214D01*
X7975357Y-17154214D01*
X8232500Y-16854214D02*
X8175357Y-16854214D01*
X8146786Y-16868500D01*
X8132500Y-16882786D01*
X8103928Y-16925643D01*
X8089643Y-16982786D01*
X8089643Y-17097072D01*
X8103928Y-17125643D01*
X8118214Y-17139929D01*
X8146786Y-17154214D01*
X8203928Y-17154214D01*
X8232500Y-17139929D01*
X8246786Y-17125643D01*
X8261071Y-17097072D01*
X8261071Y-17025643D01*
X8246786Y-16997072D01*
X8232500Y-16982786D01*
X8203928Y-16968500D01*
X8146786Y-16968500D01*
X8118214Y-16982786D01*
X8103928Y-16997072D01*
X8089643Y-17025643D01*
X8618214Y-17154214D02*
X8618214Y-16854214D01*
X8746786Y-17154214D02*
X8746786Y-16997072D01*
X8732500Y-16968500D01*
X8703928Y-16954214D01*
X8661071Y-16954214D01*
X8632500Y-16968500D01*
X8618214Y-16982786D01*
X8932500Y-17154214D02*
X8903928Y-17139929D01*
X8889643Y-17125643D01*
X8875357Y-17097072D01*
X8875357Y-17011357D01*
X8889643Y-16982786D01*
X8903928Y-16968500D01*
X8932500Y-16954214D01*
X8975357Y-16954214D01*
X9003928Y-16968500D01*
X9018214Y-16982786D01*
X9032500Y-17011357D01*
X9032500Y-17097072D01*
X9018214Y-17125643D01*
X9003928Y-17139929D01*
X8975357Y-17154214D01*
X8932500Y-17154214D01*
X9203928Y-17154214D02*
X9175357Y-17139929D01*
X9161071Y-17111357D01*
X9161071Y-16854214D01*
X9432500Y-17139929D02*
X9403928Y-17154214D01*
X9346786Y-17154214D01*
X9318214Y-17139929D01*
X9303928Y-17111357D01*
X9303928Y-16997072D01*
X9318214Y-16968500D01*
X9346786Y-16954214D01*
X9403928Y-16954214D01*
X9432500Y-16968500D01*
X9446786Y-16997072D01*
X9446786Y-17025643D01*
X9303928Y-17054214D01*
X9561071Y-17139929D02*
X9589643Y-17154214D01*
X9646786Y-17154214D01*
X9675357Y-17139929D01*
X9689643Y-17111357D01*
X9689643Y-17097072D01*
X9675357Y-17068500D01*
X9646786Y-17054214D01*
X9603928Y-17054214D01*
X9575357Y-17039929D01*
X9561071Y-17011357D01*
X9561071Y-16997072D01*
X9575357Y-16968500D01*
X9603928Y-16954214D01*
X9646786Y-16954214D01*
X9675357Y-16968500D01*
X9789643Y-17268500D02*
X9803928Y-17254214D01*
X9832500Y-17211357D01*
X9846786Y-17182786D01*
X9861071Y-17139929D01*
X9875357Y-17068500D01*
X9875357Y-17011357D01*
X9861071Y-16939929D01*
X9846786Y-16897072D01*
X9832500Y-16868500D01*
X9803928Y-16825643D01*
X9789643Y-16811357D01*
X2942500Y-17339500D02*
X2942500Y-17489500D01*
X2867500Y-17414500D02*
X3017500Y-17414500D01*
X3461071Y-17550214D02*
X3289643Y-17550214D01*
X3375357Y-17550214D02*
X3375357Y-17250214D01*
X3346786Y-17293072D01*
X3318214Y-17321643D01*
X3289643Y-17335929D01*
X3589643Y-17521643D02*
X3603928Y-17535929D01*
X3589643Y-17550214D01*
X3575357Y-17535929D01*
X3589643Y-17521643D01*
X3589643Y-17550214D01*
X3875357Y-17250214D02*
X3732500Y-17250214D01*
X3718214Y-17393072D01*
X3732500Y-17378786D01*
X3761071Y-17364500D01*
X3832500Y-17364500D01*
X3861071Y-17378786D01*
X3875357Y-17393072D01*
X3889643Y-17421643D01*
X3889643Y-17493072D01*
X3875357Y-17521643D01*
X3861071Y-17535929D01*
X3832500Y-17550214D01*
X3761071Y-17550214D01*
X3732500Y-17535929D01*
X3718214Y-17521643D01*
X4075357Y-17250214D02*
X4103928Y-17250214D01*
X4132500Y-17264500D01*
X4146786Y-17278786D01*
X4161071Y-17307357D01*
X4175357Y-17364500D01*
X4175357Y-17435929D01*
X4161071Y-17493072D01*
X4146786Y-17521643D01*
X4132500Y-17535929D01*
X4103928Y-17550214D01*
X4075357Y-17550214D01*
X4046786Y-17535929D01*
X4032500Y-17521643D01*
X4018214Y-17493072D01*
X4003928Y-17435929D01*
X4003928Y-17364500D01*
X4018214Y-17307357D01*
X4032500Y-17278786D01*
X4046786Y-17264500D01*
X4075357Y-17250214D01*
X4303928Y-17550214D02*
X4303928Y-17350214D01*
X4303928Y-17378786D02*
X4318214Y-17364500D01*
X4346786Y-17350214D01*
X4389643Y-17350214D01*
X4418214Y-17364500D01*
X4432500Y-17393072D01*
X4432500Y-17550214D01*
X4432500Y-17393072D02*
X4446786Y-17364500D01*
X4475357Y-17350214D01*
X4518214Y-17350214D01*
X4546786Y-17364500D01*
X4561071Y-17393072D01*
X4561071Y-17550214D01*
X4703928Y-17550214D02*
X4703928Y-17350214D01*
X4703928Y-17378786D02*
X4718214Y-17364500D01*
X4746786Y-17350214D01*
X4789643Y-17350214D01*
X4818214Y-17364500D01*
X4832500Y-17393072D01*
X4832500Y-17550214D01*
X4832500Y-17393072D02*
X4846786Y-17364500D01*
X4875357Y-17350214D01*
X4918214Y-17350214D01*
X4946786Y-17364500D01*
X4961071Y-17393072D01*
X4961071Y-17550214D01*
X5546786Y-17235929D02*
X5289643Y-17621643D01*
X5932500Y-17250214D02*
X5961071Y-17250214D01*
X5989643Y-17264500D01*
X6003928Y-17278786D01*
X6018214Y-17307357D01*
X6032500Y-17364500D01*
X6032500Y-17435929D01*
X6018214Y-17493072D01*
X6003928Y-17521643D01*
X5989643Y-17535929D01*
X5961071Y-17550214D01*
X5932500Y-17550214D01*
X5903928Y-17535929D01*
X5889643Y-17521643D01*
X5875357Y-17493072D01*
X5861071Y-17435929D01*
X5861071Y-17364500D01*
X5875357Y-17307357D01*
X5889643Y-17278786D01*
X5903928Y-17264500D01*
X5932500Y-17250214D01*
X6161071Y-17521643D02*
X6175357Y-17535929D01*
X6161071Y-17550214D01*
X6146786Y-17535929D01*
X6161071Y-17521643D01*
X6161071Y-17550214D01*
X6361071Y-17250214D02*
X6389643Y-17250214D01*
X6418214Y-17264500D01*
X6432500Y-17278786D01*
X6446786Y-17307357D01*
X6461071Y-17364500D01*
X6461071Y-17435929D01*
X6446786Y-17493072D01*
X6432500Y-17521643D01*
X6418214Y-17535929D01*
X6389643Y-17550214D01*
X6361071Y-17550214D01*
X6332500Y-17535929D01*
X6318214Y-17521643D01*
X6303928Y-17493072D01*
X6289643Y-17435929D01*
X6289643Y-17364500D01*
X6303928Y-17307357D01*
X6318214Y-17278786D01*
X6332500Y-17264500D01*
X6361071Y-17250214D01*
X6732500Y-17250214D02*
X6589643Y-17250214D01*
X6575357Y-17393072D01*
X6589643Y-17378786D01*
X6618214Y-17364500D01*
X6689643Y-17364500D01*
X6718214Y-17378786D01*
X6732500Y-17393072D01*
X6746786Y-17421643D01*
X6746786Y-17493072D01*
X6732500Y-17521643D01*
X6718214Y-17535929D01*
X6689643Y-17550214D01*
X6618214Y-17550214D01*
X6589643Y-17535929D01*
X6575357Y-17521643D01*
X6889643Y-17550214D02*
X6946786Y-17550214D01*
X6975357Y-17535929D01*
X6989643Y-17521643D01*
X7018214Y-17478786D01*
X7032500Y-17421643D01*
X7032500Y-17307357D01*
X7018214Y-17278786D01*
X7003928Y-17264500D01*
X6975357Y-17250214D01*
X6918214Y-17250214D01*
X6889643Y-17264500D01*
X6875357Y-17278786D01*
X6861071Y-17307357D01*
X6861071Y-17378786D01*
X6875357Y-17407357D01*
X6889643Y-17421643D01*
X6918214Y-17435929D01*
X6975357Y-17435929D01*
X7003928Y-17421643D01*
X7018214Y-17407357D01*
X7032500Y-17378786D01*
X7146786Y-17250214D02*
X7146786Y-17307357D01*
X7261071Y-17250214D02*
X7261071Y-17307357D01*
X7703928Y-17664500D02*
X7689643Y-17650214D01*
X7661071Y-17607357D01*
X7646786Y-17578786D01*
X7632500Y-17535929D01*
X7618214Y-17464500D01*
X7618214Y-17407357D01*
X7632500Y-17335929D01*
X7646786Y-17293072D01*
X7661071Y-17264500D01*
X7689643Y-17221643D01*
X7703928Y-17207357D01*
X7975357Y-17550214D02*
X7803928Y-17550214D01*
X7889643Y-17550214D02*
X7889643Y-17250214D01*
X7861071Y-17293072D01*
X7832500Y-17321643D01*
X7803928Y-17335929D01*
X8075357Y-17250214D02*
X8275357Y-17250214D01*
X8146786Y-17550214D01*
X8518214Y-17250214D02*
X8461071Y-17250214D01*
X8432500Y-17264500D01*
X8418214Y-17278786D01*
X8389643Y-17321643D01*
X8375357Y-17378786D01*
X8375357Y-17493072D01*
X8389643Y-17521643D01*
X8403928Y-17535929D01*
X8432500Y-17550214D01*
X8489643Y-17550214D01*
X8518214Y-17535929D01*
X8532500Y-17521643D01*
X8546786Y-17493072D01*
X8546786Y-17421643D01*
X8532500Y-17393072D01*
X8518214Y-17378786D01*
X8489643Y-17364500D01*
X8432500Y-17364500D01*
X8403928Y-17378786D01*
X8389643Y-17393072D01*
X8375357Y-17421643D01*
X8903928Y-17550214D02*
X8903928Y-17250214D01*
X9032500Y-17550214D02*
X9032500Y-17393072D01*
X9018214Y-17364500D01*
X8989643Y-17350214D01*
X8946786Y-17350214D01*
X8918214Y-17364500D01*
X8903928Y-17378786D01*
X9218214Y-17550214D02*
X9189643Y-17535929D01*
X9175357Y-17521643D01*
X9161071Y-17493072D01*
X9161071Y-17407357D01*
X9175357Y-17378786D01*
X9189643Y-17364500D01*
X9218214Y-17350214D01*
X9261071Y-17350214D01*
X9289643Y-17364500D01*
X9303928Y-17378786D01*
X9318214Y-17407357D01*
X9318214Y-17493072D01*
X9303928Y-17521643D01*
X9289643Y-17535929D01*
X9261071Y-17550214D01*
X9218214Y-17550214D01*
X9489643Y-17550214D02*
X9461071Y-17535929D01*
X9446786Y-17507357D01*
X9446786Y-17250214D01*
X9718214Y-17535929D02*
X9689643Y-17550214D01*
X9632500Y-17550214D01*
X9603928Y-17535929D01*
X9589643Y-17507357D01*
X9589643Y-17393072D01*
X9603928Y-17364500D01*
X9632500Y-17350214D01*
X9689643Y-17350214D01*
X9718214Y-17364500D01*
X9732500Y-17393072D01*
X9732500Y-17421643D01*
X9589643Y-17450214D01*
X9846786Y-17535929D02*
X9875357Y-17550214D01*
X9932500Y-17550214D01*
X9961071Y-17535929D01*
X9975357Y-17507357D01*
X9975357Y-17493072D01*
X9961071Y-17464500D01*
X9932500Y-17450214D01*
X9889643Y-17450214D01*
X9861071Y-17435929D01*
X9846786Y-17407357D01*
X9846786Y-17393072D01*
X9861071Y-17364500D01*
X9889643Y-17350214D01*
X9932500Y-17350214D01*
X9961071Y-17364500D01*
X10075357Y-17664500D02*
X10089643Y-17650214D01*
X10118214Y-17607357D01*
X10132500Y-17578786D01*
X10146786Y-17535929D01*
X10161071Y-17464500D01*
X10161071Y-17407357D01*
X10146786Y-17335929D01*
X10132500Y-17293072D01*
X10118214Y-17264500D01*
X10089643Y-17221643D01*
X10075357Y-17207357D01*
M02*
