M48
; DRILL file {KiCad (5.1.0)-1} date 2022-03-22 21:13:18
; FORMAT={-:-/ absolute / metric / decimal}
; #@! TF.CreationDate,2022-03-22T21:13:18+01:00
; #@! TF.GenerationSoftware,Kicad,Pcbnew,(5.1.0)-1
; #@! TF.FileFunction,NonPlated,1,2,NPTH
FMAT,2
METRIC
T1C1.700
T2C3.050
T3C3.200
T4C4.000
%
G90
G05
T1
X92.58Y-69.78
X102.74Y-69.78
X364.58Y-69.78
X374.74Y-69.78
X178.08Y-88.78
X188.24Y-88.78
X102.08Y-88.78
X112.24Y-88.78
X149.58Y-44.78
X159.74Y-44.78
X364.58Y-44.78
X374.74Y-44.78
X130.58Y-69.78
X140.74Y-69.78
X106.83Y-107.78
X116.99Y-107.78
X256.455Y-145.78
X266.615Y-145.78
X54.58Y-69.78
X64.74Y-69.78
X54.58Y-44.78
X64.74Y-44.78
X154.33Y-126.78
X164.49Y-126.78
X159.08Y-88.78
X169.24Y-88.78
X299.205Y-98.28
X309.365Y-98.28
X239.83Y-107.78
X249.99Y-107.78
X168.58Y-44.78
X178.74Y-44.78
X37.955Y-126.78
X48.115Y-126.78
X230.33Y-126.78
X240.49Y-126.78
X326.58Y-145.78
X336.74Y-145.78
X40.33Y-145.78
X50.49Y-145.78
X59.33Y-126.78
X69.49Y-126.78
X254.08Y-88.78
X264.24Y-88.78
X116.33Y-126.78
X126.49Y-126.78
X42.705Y-107.78
X52.865Y-107.78
X73.58Y-69.78
X83.74Y-69.78
X263.58Y-69.78
X273.74Y-69.78
X201.83Y-107.78
X211.99Y-107.78
X161.455Y-145.78
X171.615Y-145.78
X326.58Y-88.78
X336.74Y-88.78
X187.58Y-69.78
X197.74Y-69.78
X92.58Y-44.78
X102.74Y-44.78
X345.58Y-145.78
X355.74Y-145.78
X225.58Y-69.78
X235.74Y-69.78
X192.33Y-126.78
X202.49Y-126.78
X364.58Y-88.78
X374.74Y-88.78
X140.08Y-88.78
X150.24Y-88.78
X130.58Y-44.78
X140.74Y-44.78
X364.58Y-145.78
X374.74Y-145.78
X111.58Y-44.78
X121.74Y-44.78
X173.33Y-126.78
X183.49Y-126.78
X284.955Y-126.78
X295.115Y-126.78
X168.58Y-69.78
X178.74Y-69.78
X216.08Y-88.78
X226.24Y-88.78
X64.08Y-88.78
X74.24Y-88.78
X244.58Y-69.78
X254.74Y-69.78
X277.83Y-107.78
X287.99Y-107.78
X40.33Y-88.78
X50.49Y-88.78
X235.08Y-88.78
X245.24Y-88.78
X249.33Y-126.78
X259.49Y-126.78
X73.58Y-44.78
X83.74Y-44.78
X211.33Y-126.78
X221.49Y-126.78
X144.83Y-107.78
X154.99Y-107.78
X90.205Y-145.78
X100.365Y-145.78
X83.08Y-88.78
X93.24Y-88.78
X273.08Y-88.78
X283.24Y-88.78
X111.58Y-69.78
X121.74Y-69.78
X345.58Y-44.78
X355.74Y-44.78
X206.58Y-69.78
X216.74Y-69.78
X345.58Y-69.78
X355.74Y-69.78
X87.83Y-107.78
X97.99Y-107.78
X280.205Y-145.78
X290.365Y-145.78
X182.83Y-107.78
X192.99Y-107.78
X35.58Y-44.78
X45.74Y-44.78
X135.33Y-126.78
X145.49Y-126.78
X345.58Y-126.78
X355.74Y-126.78
X163.83Y-107.78
X173.99Y-107.78
X149.58Y-69.78
X159.74Y-69.78
X232.705Y-145.78
X242.865Y-145.78
X35.58Y-69.78
X45.74Y-69.78
X125.83Y-107.78
X135.99Y-107.78
X187.58Y-44.78
X197.74Y-44.78
X301.58Y-145.78
X311.74Y-145.78
X225.58Y-44.78
X235.74Y-44.78
X263.58Y-44.78
X273.74Y-44.78
X206.58Y-44.78
X216.74Y-44.78
X326.58Y-69.78
X336.74Y-69.78
X66.455Y-145.78
X76.615Y-145.78
X68.83Y-107.78
X78.99Y-107.78
X244.58Y-44.78
X254.74Y-44.78
X97.33Y-126.78
X107.49Y-126.78
X292.08Y-69.78
X302.24Y-69.78
X258.83Y-107.78
X268.99Y-107.78
X197.08Y-88.78
X207.24Y-88.78
X78.33Y-126.78
X88.49Y-126.78
X326.58Y-44.78
X336.74Y-44.78
X121.08Y-88.78
X131.24Y-88.78
X345.58Y-88.78
X355.74Y-88.78
X220.83Y-107.78
X230.99Y-107.78
T2
X285.26Y-62.78
X309.06Y-62.78
X297.285Y-86.38
X297.285Y-110.18
X116.535Y-138.78
X216.535Y-138.78
X278.135Y-119.78
X301.935Y-119.78
T3
X211.5Y-97.5
X269.5Y-129.6
X300.0Y-56.5
X372.7Y-129.6
X331.7Y-129.6
X115.5Y-98.0
X34.5Y-152.0
X319.0Y-152.5
X34.2Y-57.1
X310.2Y-129.6
X36.2Y-107.6
X205.2Y-150.6
X125.2Y-149.6
T4
X40.66Y-69.78
X130.91Y-107.78
X192.66Y-44.78
X306.66Y-145.78
X230.66Y-44.78
X268.66Y-44.78
X211.66Y-44.78
X331.66Y-69.78
X71.535Y-145.78
X73.91Y-107.78
X249.66Y-44.78
X102.41Y-126.78
X285.26Y-78.02
X297.16Y-69.78
X309.06Y-78.02
X263.91Y-107.78
X202.16Y-88.78
X83.41Y-126.78
X331.66Y-44.78
X126.16Y-88.78
X350.66Y-88.78
X225.91Y-107.78
X97.66Y-69.78
X369.66Y-69.78
X183.16Y-88.78
X107.16Y-88.78
X154.66Y-44.78
X369.66Y-44.78
X135.66Y-69.78
X111.91Y-107.78
X261.535Y-145.78
X59.66Y-69.78
X59.66Y-44.78
X159.41Y-126.78
X164.16Y-88.78
X304.285Y-98.28
X312.525Y-86.38
X312.525Y-110.18
X244.91Y-107.78
X173.66Y-44.78
X43.035Y-126.78
X235.41Y-126.78
X331.66Y-145.78
X45.41Y-145.78
X64.41Y-126.78
X259.16Y-88.78
X121.41Y-126.78
X47.785Y-107.78
X78.66Y-69.78
X268.66Y-69.78
X206.91Y-107.78
X116.535Y-154.02
X166.535Y-145.78
X216.535Y-154.02
X331.66Y-88.78
X192.66Y-69.78
X97.66Y-44.78
X350.66Y-145.78
X230.66Y-69.78
X197.41Y-126.78
X369.66Y-88.78
X145.16Y-88.78
X135.66Y-44.78
X369.66Y-145.78
X116.66Y-44.78
X178.41Y-126.78
X278.135Y-135.02
X290.035Y-126.78
X301.935Y-135.02
X173.66Y-69.78
X221.16Y-88.78
X69.16Y-88.78
X249.66Y-69.78
X282.91Y-107.78
X45.41Y-88.78
X240.16Y-88.78
X254.41Y-126.78
X78.66Y-44.78
X216.41Y-126.78
X149.91Y-107.78
X95.285Y-145.78
X88.16Y-88.78
X278.16Y-88.78
X116.66Y-69.78
X350.66Y-44.78
X211.66Y-69.78
X350.66Y-69.78
X92.91Y-107.78
X285.285Y-145.78
X187.91Y-107.78
X40.66Y-44.78
X140.41Y-126.78
X350.66Y-126.78
X168.91Y-107.78
X154.66Y-69.78
X237.785Y-145.78
T0
M30
